<svg id="bd7ccaf6-1675-4d70-9972-4dfc79f62043" data-name="Layer 1" xmlns="http://www.w3.org/2000/svg" viewBox="0 0 300.67095 179.8"><defs><style>.e58d73e8-9473-454e-955b-6b70066171b5{fill:#252f3e;}.b381848d-3fd9-4318-9e4b-fcf283b7261a{fill:#f90;}</style></defs><path class="e58d73e8-9473-454e-955b-6b70066171b5" d="M134.3965,175.4a30.25648,30.25648,0,0,0,1.1,8.9,53.526,53.526,0,0,0,3.2,7.2,4.34979,4.34979,0,0,1,.7,2.3,3.95918,3.95918,0,0,1-1.9,3l-6.3,4.2a4.79461,4.79461,0,0,1-2.6.9,4.60134,4.60134,0,0,1-3-1.4,30.93667,30.93667,0,0,1-3.6-4.7c-1-1.7-2-3.6-3.1-5.9q-11.7,13.8-29.4,13.8c-8.4,0-15.1-2.4-20-7.2s-7.4-11.2-7.4-19.2c0-8.5,3-15.4,9.1-20.6s14.2-7.8,24.5-7.8a79.17554,79.17554,0,0,1,10.6.8c3.7.5,7.5,1.3,11.5,2.2v-7.3c0-7.6-1.6-12.9-4.7-16-3.2-3.1-8.6-4.6-16.3-4.6a45.49849,45.49849,0,0,0-10.8,1.3,79.68071,79.68071,0,0,0-10.8,3.4,28.69334,28.69334,0,0,1-3.5,1.3,6.13374,6.13374,0,0,1-1.6.3c-1.4,0-2.1-1-2.1-3.1v-4.9a6.3276,6.3276,0,0,1,.7-3.5,7.48785,7.48785,0,0,1,2.8-2.1,57.57126,57.57126,0,0,1,12.6-4.5,60.62776,60.62776,0,0,1,15.6-1.9c11.9,0,20.6,2.7,26.2,8.1,5.5,5.4,8.3,13.6,8.3,24.6v32.4Zm-40.6,15.2a32.40885,32.40885,0,0,0,10.3-1.8,22.28367,22.28367,0,0,0,9.5-6.4,15.87265,15.87265,0,0,0,3.4-6.4,35.90028,35.90028,0,0,0,1-8.7v-4.2a83.51147,83.51147,0,0,0-9.2-1.7,75.35133,75.35133,0,0,0-9.4-.6c-6.7,0-11.6,1.3-14.9,4s-4.9,6.5-4.9,11.5c0,4.7,1.2,8.2,3.7,10.6C85.6965,189.4,89.1965,190.6,93.7965,190.6Zm80.3,10.8a5.58266,5.58266,0,0,1-3.8-1,8.15048,8.15048,0,0,1-2.1-3.9l-23.5-77.3a17.5169,17.5169,0,0,1-.9-4,2.19368,2.19368,0,0,1,2.4-2.5h9.8c1.9,0,3.2.3,3.9,1,.8.6,1.4,2,2,3.9l16.8,66.2,15.6-66.2c.5-2,1.1-3.3,1.9-3.9a6.87876,6.87876,0,0,1,4-1h8c1.9,0,3.2.3,4,1a6.73836,6.73836,0,0,1,1.9,3.9l15.8,67,17.3-67a8.57515,8.57515,0,0,1,2-3.9,6.52433,6.52433,0,0,1,3.9-1h9.3a2.2229,2.2229,0,0,1,2.5,2.5,9.9713,9.9713,0,0,1-.2,1.6,14.22729,14.22729,0,0,1-.7,2.5l-24.1,77.3q-.9,3-2.1,3.9a6.39757,6.39757,0,0,1-3.8,1h-8.6c-1.9,0-3.2-.3-4-1a7.08937,7.08937,0,0,1-1.9-4l-15.5-64.5-15.4,64.4a7.80524,7.80524,0,0,1-1.9,4,6.19825,6.19825,0,0,1-4,1Zm128.5,2.7a66.175,66.175,0,0,1-15.4-1.8c-5-1.2-8.9-2.5-11.5-4a7.20526,7.20526,0,0,1-3.1-2.8,7.0585,7.0585,0,0,1-.6-2.8v-5.1c0-2.1.8-3.1,2.3-3.1a5.66225,5.66225,0,0,1,1.8.3c.6.2,1.5.6,2.5,1a54.3936,54.3936,0,0,0,11,3.5,60.05418,60.05418,0,0,0,11.9,1.2c6.3,0,11.2-1.1,14.6-3.3a10.76858,10.76858,0,0,0,5.2-9.5,9.73825,9.73825,0,0,0-2.7-7c-1.8-1.9-5.2-3.6-10.1-5.2l-14.5-4.5c-7.3-2.3-12.7-5.7-16-10.2a23.82509,23.82509,0,0,1-5-14.5,22.25548,22.25548,0,0,1,2.7-11.1,25.71212,25.71212,0,0,1,7.2-8.2,31.73875,31.73875,0,0,1,10.4-5.2,43.58429,43.58429,0,0,1,12.6-1.7,50.20063,50.20063,0,0,1,6.7.4c2.3.3,4.4.7,6.5,1.1,2,.5,3.9,1,5.7,1.6a21.82619,21.82619,0,0,1,4.2001,1.8,8.64729,8.64729,0,0,1,3,2.5,5.389,5.389,0,0,1,.9,3.3v4.7c0,2.1-.8,3.2-2.3,3.2a10.402,10.402,0,0,1-3.8-1.2,45.74828,45.74828,0,0,0-19.2-3.9c-5.7,0-10.2.9-13.3,2.8s-4.7,4.8-4.7,8.9a9.44286,9.44286,0,0,0,3,7.1c2,1.9,5.7,3.8,11,5.5l14.2,4.5c7.2,2.3,12.4,5.5,15.5,9.6a22.62855,22.62855,0,0,1,4.6,14,25.70779,25.70779,0,0,1-2.6,11.6,26.89407,26.89407,0,0,1-7.3,8.8,32.23463,32.23463,0,0,1-11.1,5.6A47.553,47.553,0,0,1,302.59649,204.1Z" transform="translate(-49.66448 -110.1)"/><path class="b381848d-3fd9-4318-9e4b-fcf283b7261a" d="M321.49649,252.7c-32.9,24.3-80.7,37.2-121.8,37.2-57.6,0-109.5-21.3-148.7-56.7-3.1-2.8-.3-6.6,3.4-4.4,42.4,24.6,94.7,39.5,148.8,39.5a296.93532,296.93532,0,0,0,113.5-23.2C322.19649,242.6,326.89649,248.7,321.49649,252.7Zm13.7-15.6c-4.2-5.4-27.7999-2.6-38.5-1.3-3.2.4-3.7-2.4-.8-4.5,18.8-13.2,49.7-9.4,53.3-5,3.6,4.5-1,35.4-18.6,50.2-2.7,2.3-5.3,1.1-4.1-1.9C330.49649,264.7,339.39649,242.4,335.19649,237.1Z" transform="translate(-49.66448 -110.1)"/></svg>