<svg xmlns="http://www.w3.org/2000/svg" viewBox="0 0 461.62 450"
    style="backgroundColor: black"
>
    <defs>
        <style>
            .cls-1{isolation:isolate;}.cls-2{fill:#f0f8ff;}.cls-27,.cls-3{fill:#a8cff0;}.cls-4{fill:#f76195;}.cls-5{fill:#d62d69;}.cls-16,.cls-20,.cls-6,.cls-9{fill:#fff;}.cls-6{opacity:0.7;}.cls-15,.cls-7{fill:#3f92d1;}.cls-8{fill:#2672ab;}.cls-10,.cls-17{fill:#084c94;}.cls-10{opacity:0.2;}.cls-11{fill:#d1ebff;}.cls-12{fill:#72b5e8;}.cls-13,.cls-21{fill:#03336e;}.cls-14{fill:#eb4680;}.cls-15{opacity:0.5;}.cls-16,.cls-21{opacity:0.3;}.cls-18{fill:#022652;}.cls-19{fill:#4f9fdb;}.cls-20{mix-blend-mode:screen;}.cls-22{fill:#fc0;}.cls-23{fill:#ffde17;}.cls-24{fill:#0ba19f;}.cls-25{fill:#0fbab8;}.cls-26{fill:#3ecfcd;}.cls-27{mix-blend-mode:multiply;}
        </style>
    </defs>
    <g class="cls-1">
        <g id="Layer_2">
            <path class="cls-2"
                  d="M84.22,142.11l-31.13-18c-5.44-3.14-9.85.19-9.85,7.45v36c0,7.26,4.41,15.69,9.85,18.83l31.13,18c5.45,3.14,9.86-.19,9.86-7.45v-36C94.08,153.68,89.67,145.25,84.22,142.11Z"/>
            <path class="cls-3"
                  d="M89.3,139.13l-31.13-18c-2.33-1.34-4.47-1.49-6.15-.66L52,120.4l-5.38,3.16,0,.07c1.73-1,4-1,6.49.47l31.13,18c5.45,3.14,9.86,11.57,9.86,18.83v36c0,3.53-1,6.12-2.74,7.5l3-2c2.52-1.45,4.82-3.7,4.82-8.5V158C99.16,150.7,94.75,142.27,89.3,139.13Z"/>
            <path class="cls-4" d="M94.08,160.94c0-7.26-4.41-15.69-9.86-18.83l-31.13-18c-5.44-3.14-9.85.19-9.85,7.45Z"/>
            <path class="cls-5"
                  d="M99.16,158c0-7.26-4.41-15.69-9.86-18.83l-31.13-18c-2.33-1.34-4.47-1.49-6.15-.66L52,120.4l-5.38,3.16,0,.07c1.73-1,4-1,6.49.47l31.13,18c5.45,3.14,9.86,11.57,9.86,18.83Z"/>
            <path class="cls-6"
                  d="M84.78,141.65l-31.13-18c-2.71-1.56-5.15-1.52-6.93-.2a6.68,6.68,0,0,1,5.73.84l31.13,18c5.44,3.14,9.85,11.57,9.85,18.83v36c0,3.66-1.12,6.31-2.92,7.65,2.49-.94,4.12-3.89,4.12-8.29v-36C94.63,153.22,90.22,144.79,84.78,141.65Z"/>
            <path class="cls-7"
                  d="M52,172.72a12.9,12.9,0,0,1,1-5.73,9.64,9.64,0,0,1,3.69-3.7,11.18,11.18,0,0,0,3.62-3.38,7.94,7.94,0,0,0,1-4.14,7.73,7.73,0,0,0-.62-3.43A4.55,4.55,0,0,0,59,150.42q-2.45-1.41-2.45,2v3.69L52,153.52v-3.35c0-2.78.6-4.58,1.8-5.38s2.95-.54,5.23.78a13.58,13.58,0,0,1,5.24,5.26,15.29,15.29,0,0,1,1.8,7.47,10.59,10.59,0,0,1-1.31,5.4A13.3,13.3,0,0,1,60.28,168a9,9,0,0,0-2.84,2.52,5.7,5.7,0,0,0-.73,3v.74l9,5.18v4.92L52,176.46Z"/>
            <path class="cls-7"
                  d="M71,185.64a15.29,15.29,0,0,1-1.8-7.47v-2.7L73.62,178v3.1a5,5,0,0,0,2.44,4.76q2.44,1.41,2.45-1.93v-7.73a5.09,5.09,0,0,0-2.45-4.81q-2.44-1.41-2.44,2v.3l-4.46-2.58L70,152.38l12.44,7.18v4.93l-8.23-4.76-.39,8,.09.05c.88-1.16,2.24-1.22,4.07-.16a9.59,9.59,0,0,1,3.91,4.27,15.37,15.37,0,0,1,1.33,6.63v7.78q0,4.19-1.8,5.38c-1.21.8-3,.54-5.24-.78A13.49,13.49,0,0,1,71,185.64Z"/>
            <path class="cls-8"
                  d="M78.35,185.34c.59-.2.89-1,.89-2.29v-7.73a5.12,5.12,0,0,0-2.44-4.81c-1.22-.7-2-.51-2.29.57a2,2,0,0,1,1.55.35,5.09,5.09,0,0,1,2.45,4.81V184A4.81,4.81,0,0,1,78.35,185.34Z"/>
            <polygon class="cls-8" points="74.95 158.81 74.89 160.12 82.45 164.49 82.45 163.15 74.95 158.81"/>
            <path class="cls-8" d="M73.62,173.41a5.75,5.75,0,0,1,.08-1l-3.81-2.2.8-17.45-.68-.39-.85,18.75,4.46,2.58Z"/>
            <path class="cls-8"
                  d="M82.16,190.77c-1.2.8-3,.53-5.24-.79a13.55,13.55,0,0,1-5.23-5.26,15.22,15.22,0,0,1-1.8-7.46v-1.37l-.73-.42v2.7a15.29,15.29,0,0,0,1.8,7.47,13.49,13.49,0,0,0,5.23,5.26c2.29,1.32,4,1.58,5.24.78a3.18,3.18,0,0,0,1-1.12A2.52,2.52,0,0,1,82.16,190.77Z"/>
            <path class="cls-8"
                  d="M56.5,154.89l-3-1.73v-3.35c0-2.79.6-4.58,1.81-5.39l.15-.08a2.82,2.82,0,0,0-1.62.45c-1.2.8-1.8,2.6-1.8,5.38v3.35l4.46,2.58Z"/>
            <path class="cls-8"
                  d="M53.5,176.1v-3.74a13.06,13.06,0,0,1,1-5.74,9.78,9.78,0,0,1,3.69-3.7,11.22,11.22,0,0,0,3.63-3.37,7.94,7.94,0,0,0,1-4.14,7.62,7.62,0,0,0-.63-3.44,4.61,4.61,0,0,0-1.82-1.92c-1-.57-1.68-.54-2.07.08a4.7,4.7,0,0,1,.61.29,4.55,4.55,0,0,1,1.82,1.92,7.73,7.73,0,0,1,.62,3.43,7.94,7.94,0,0,1-1,4.14,11.18,11.18,0,0,1-3.62,3.38,9.64,9.64,0,0,0-3.69,3.7,12.9,12.9,0,0,0-1,5.73v3.74l13.64,7.88v-1.21Z"/>
            <path class="cls-9"
                  d="M60.14,130.75c-1.85-1.07-3.34-.22-3.34,1.9a7.33,7.33,0,0,0,3.34,5.75c1.84,1.07,3.33.22,3.33-1.9A7.34,7.34,0,0,0,60.14,130.75Z"/>
            <path class="cls-9"
                  d="M79.8,142.44c-1.84-1.06-3.34-.21-3.34,1.9a7.37,7.37,0,0,0,3.34,5.76c1.84,1.06,3.34.21,3.34-1.9A7.36,7.36,0,0,0,79.8,142.44Z"/>
            <path class="cls-5"
                  d="M62.88,136.94a7.35,7.35,0,0,1-3.33-5.76,3.66,3.66,0,0,1,.06-.68c-1.59-.62-2.81.24-2.81,2.15a7.33,7.33,0,0,0,3.34,5.75c1.63.94,3,.38,3.27-1.22A4.86,4.86,0,0,1,62.88,136.94Z"/>
            <path class="cls-5"
                  d="M82.55,148.63a7.33,7.33,0,0,1-3.34-5.75,3.58,3.58,0,0,1,.06-.68c-1.59-.63-2.81.23-2.81,2.14a7.37,7.37,0,0,0,3.34,5.76c1.63.94,3,.38,3.27-1.22A3.5,3.5,0,0,1,82.55,148.63Z"/>
            <path class="cls-10"
                  d="M43.24,148.9v18.68c0,7.26,4.41,15.69,9.85,18.83l25.41,14.7c.08-1.26.14-2.56.14-3.94,0-7-.08-21.44.06-28.12Z"/>
            <path class="cls-2"
                  d="M56.1,220.35a8.31,8.31,0,0,0,10.71-2.09c4-5.26,5.58-11.72,5.63-20.85,0-7-.08-21.45.06-28.12l-51.07-29c-.13,6.8,0,21-.05,28-.06,9.74-1.85,16.44-6.47,21.88a4.86,4.86,0,0,0,1.22,7.4Z"/>
            <path class="cls-7"
                  d="M30.56,187.05a13.06,13.06,0,0,1,1-5.77,9.81,9.81,0,0,1,3.71-3.72A11.34,11.34,0,0,0,39,174.17,8,8,0,0,0,40,170a7.87,7.87,0,0,0-.62-3.46,4.6,4.6,0,0,0-1.84-1.92c-1.63-1-2.46-.28-2.46,2v3.72l-4.48-2.59v-3.37c0-2.8.6-4.61,1.81-5.41s3-.55,5.26.78A13.73,13.73,0,0,1,42.9,165a15.37,15.37,0,0,1,1.81,7.51A10.6,10.6,0,0,1,43.39,178a13.19,13.19,0,0,1-4.55,4.3A9.07,9.07,0,0,0,36,184.82a5.59,5.59,0,0,0-.73,3v.75l9,5.2v4.95l-13.72-7.92Z"/>
            <path class="cls-7"
                  d="M55.84,199.12l-9.06-5.23v-4.95l8.63-18.44,5.18,3v23.42l2.24,1.3v4.95l-2.24-1.3v6.29l-4.75-2.74Zm0-5V180.65l-.08-.05L51.1,191.43Z"/>
            <path class="cls-8"
                  d="M36.56,176.67a10.84,10.84,0,0,0,3.4-3.22,7.92,7.92,0,0,0,1-4.16,7.72,7.72,0,0,0-.63-3.46,4.66,4.66,0,0,0-1.83-1.93c-1.11-.64-1.84-.52-2.2.32a2.5,2.5,0,0,1,1.18.4,4.6,4.6,0,0,1,1.84,1.92A7.87,7.87,0,0,1,40,170a8,8,0,0,1-1,4.17A9.36,9.36,0,0,1,36.56,176.67Z"/>
            <polygon class="cls-8"
                     points="56.86 179.94 56.77 179.89 55.84 182.04 55.84 192.87 56.86 193.46 56.86 179.94"/>
            <path class="cls-8"
                  d="M40.44,181.16c-.2.13-.37.27-.58.4-.42.27-.79.53-1.13.79l.11-.08C39.42,181.91,40,181.53,40.44,181.16Z"/>
            <polygon class="cls-8"
                     points="56.86 204.69 56.86 198.41 47.79 193.17 47.79 188.22 55.95 170.81 55.41 170.5 46.78 188.94 46.78 193.89 55.84 199.12 55.84 205.41 60.59 208.15 60.59 206.85 56.86 204.69"/>
            <polygon class="cls-8" points="61.6 201.15 61.6 202.45 62.83 203.16 62.83 201.85 61.6 201.15"/>
            <path class="cls-8"
                  d="M35,169l-3.47-2v-3.37c0-2.36.44-4,1.3-5a2.38,2.38,0,0,0-.5.26c-1.21.8-1.81,2.61-1.81,5.41v3.37L35,170.33Z"/>
            <path class="cls-8"
                  d="M31.57,190.09v-3.76a13,13,0,0,1,1-5.76A8.5,8.5,0,0,1,35,177.75a9.57,9.57,0,0,0-3.44,3.53,13.06,13.06,0,0,0-1,5.77v3.76l13.72,7.92v-1.3Z"/>
            <path class="cls-11"
                  d="M247.73,90.55c0-5-3.53-11.07-7.87-13.58a7.63,7.63,0,0,0-3.19-1.06c0-.07,0-.13,0-.2,0-9.66-6.83-21.42-15.24-26.28-4.73-2.73-8.84-2.37-11.74-.43l-4.86,2.77c-2.75-1.42-5.2-1.41-6.93-.22l-5.8,3.4c1.78-.77,4.1-.52,6.65.95A14.39,14.39,0,0,1,200.35,57c2-5.86,7.72-7.62,14.49-3.71,8.41,4.86,15.24,16.62,15.24,26.28,0,.07,0,.13,0,.2a7.63,7.63,0,0,1,3.19,1.06c4.35,2.51,7.87,8.59,7.87,13.58A5.93,5.93,0,0,1,239.44,99l5.74-3.25h0C246.74,95,247.73,93.19,247.73,90.55Z"/>
            <path class="cls-3"
                  d="M233.26,80.81a7.63,7.63,0,0,0-3.19-1.06c0-.07,0-.13,0-.2,0-9.66-6.83-21.42-15.24-26.28-6.77-3.91-12.5-2.15-14.49,3.71a14.39,14.39,0,0,0-1.59-1.08c-5.55-3.2-10-.64-10,5.73s4.5,14.12,10,17.33l34.5,19.92c4.35,2.5,7.87.5,7.87-4.49S237.61,83.32,233.26,80.81Z"/>
            <path class="cls-11"
                  d="M431,102.56c0-6.46-4.57-14.34-10.2-17.59a9.57,9.57,0,0,0-4.13-1.37c0-.09,0-.17,0-.26,0-12.51-8.84-27.75-19.74-34.05-6.12-3.53-11.45-3.06-15.2-.55l-6.3,3.59c-3.55-1.84-6.73-1.83-9-.28L359,56.44c2.3-1,5.31-.67,8.61,1.23a20.78,20.78,0,0,1,2.06,1.4c2.58-7.59,10-9.87,18.77-4.81,10.9,6.3,19.74,21.54,19.74,34.05,0,.09,0,.17,0,.26a9.6,9.6,0,0,1,4.14,1.37c5.63,3.26,10.19,11.13,10.19,17.59,0,2.73-.82,4.77-2.19,6l7.43-4.21h0C429.74,108.31,431,106,431,102.56Z"/>
            <path class="cls-3"
                  d="M412.28,89.94a9.6,9.6,0,0,0-4.14-1.37c0-.09,0-.17,0-.26,0-12.51-8.84-27.75-19.74-34.05-8.77-5.06-16.19-2.78-18.77,4.81a20.78,20.78,0,0,0-2.06-1.4c-7.19-4.15-13-.82-13,7.42s5.82,18.3,13,22.45l44.69,25.8c5.63,3.25,10.19.65,10.19-5.81S417.91,93.2,412.28,89.94Z"/>
            <path class="cls-7"
                  d="M355.06,114.77c0-26.64-18.82-59.1-42-72.5-11.19-6.46-21.36-7.31-28.9-3.48l0,0-6.52,3.63,3,5.2a42.48,42.48,0,0,0-2.17,14.09c0,26.64,18.82,59.1,42,72.5a43.31,43.31,0,0,0,13.62,5.27l3.09,5.3,4.36-2.34C349.86,138.38,355.06,128.78,355.06,114.77Z"/>
            <ellipse class="cls-9" cx="308.11" cy="93.18" rx="34.21" ry="59.26"
                     transform="translate(-4.91 168.24) rotate(-30.31)"/>
            <ellipse class="cls-3" cx="307.17" cy="93.69" rx="34.21" ry="59.26"
                     transform="translate(-5.29 167.83) rotate(-30.31)"/>
            <ellipse class="cls-9" cx="307.17" cy="93.69" rx="29.19" ry="50.57"
                     transform="matrix(0.86, -0.5, 0.5, 0.86, -5.29, 167.83)"/>
            <path class="cls-12"
                  d="M308.64,134.12C288.83,122.68,272.77,95,272.77,72.25c0-11.38,4-19.36,10.53-23-7.36,3.29-12,11.57-12,23.78,0,22.73,16.05,50.43,35.86,61.87,9.89,5.71,18.85,6.29,25.34,2.6C326.17,140.29,317.81,139.41,308.64,134.12Z"/>
            <path class="cls-13"
                  d="M309.14,94.82c0,1.25-.88,1.75-2,1.12a4.32,4.32,0,0,1-2-3.38c0-1.25.88-1.75,2-1.12A4.3,4.3,0,0,1,309.14,94.82Z"/>
            <path class="cls-12"
                  d="M307.72,58.72h0a1.31,1.31,0,0,1-.54-1V55.85c0-.4.24-.58.54-.41h0a1.32,1.32,0,0,1,.55,1v1.83C308.27,58.71,308,58.89,307.72,58.72Z"/>
            <path class="cls-12"
                  d="M307.72,131.94h0a1.31,1.31,0,0,1-.54-1v-1.83c0-.4.24-.58.54-.41h0a1.32,1.32,0,0,1,.55,1v1.83C308.27,131.93,308,132.11,307.72,131.94Z"/>
            <path class="cls-12"
                  d="M277.24,76.09h0c0,.35-.2.51-.46.36l-1.92-1.11a1.12,1.12,0,0,1-.47-.89h0c0-.35.21-.51.47-.36l1.92,1.11A1.11,1.11,0,0,1,277.24,76.09Z"/>
            <path class="cls-12"
                  d="M341.05,112.93h0c0,.35-.21.51-.46.36l-1.92-1.11a1.12,1.12,0,0,1-.47-.89h0c0-.35.21-.51.47-.36l1.92,1.11A1.14,1.14,0,0,1,341.05,112.93Z"/>
            <path class="cls-12"
                  d="M292.48,54.6h0c-.26,0-.59-.27-.74-.65l-.88-2.27c-.15-.38-.06-.71.2-.74h0c.26,0,.59.28.74.66l.88,2.27C292.83,54.25,292.74,54.58,292.48,54.6Z"/>
            <path class="cls-12"
                  d="M324.39,136.44h0c-.26,0-.59-.28-.74-.66l-.89-2.27c-.15-.38-.06-.71.2-.73h0c.26,0,.59.27.74.65l.89,2.27C324.74,136.08,324.65,136.41,324.39,136.44Z"/>
            <path class="cls-12"
                  d="M281.33,95.94h0c.15.38.06.71-.2.73l-1.53.14c-.26,0-.59-.28-.74-.66h0c-.15-.39-.07-.72.19-.74l1.54-.13C280.85,95.26,281.18,95.55,281.33,95.94Z"/>
            <path class="cls-12"
                  d="M336.59,91.23h0c.15.39.06.72-.2.74l-1.53.13c-.26,0-.59-.27-.74-.66h0c-.15-.38-.06-.71.2-.73l1.53-.14C336.11,90.55,336.44,90.85,336.59,91.23Z"/>
            <path class="cls-12"
                  d="M281.33,61h0c-.15.22-.48.13-.74-.2l-1.54-1.89a.91.91,0,0,1-.19-1h0c.15-.21.48-.12.74.2l1.53,1.9A.9.9,0,0,1,281.33,61Z"/>
            <path class="cls-12"
                  d="M336.59,129.48h0c-.15.21-.48.12-.74-.2l-1.53-1.9a.9.9,0,0,1-.2-1h0c.15-.22.48-.13.74.2l1.53,1.89A.92.92,0,0,1,336.59,129.48Z"/>
            <path class="cls-12"
                  d="M292.48,115.18h0a.92.92,0,0,1,.2,1l-.88,1.24c-.15.21-.48.12-.74-.2h0a.92.92,0,0,1-.2-1l.88-1.24C291.89,114.77,292.22,114.86,292.48,115.18Z"/>
            <path class="cls-12"
                  d="M324.39,70.19h0a.92.92,0,0,1,.2,1l-.89,1.24c-.15.21-.48.12-.74-.2h0a.92.92,0,0,1-.2-1l.89-1.24C323.8,69.78,324.13,69.87,324.39,70.19Z"/>
            <polygon class="cls-13" points="308.12 95.66 306.23 94.57 306.23 64.18 308.12 65.28 308.12 95.66"/>
            <polygon class="cls-13" points="307.51 93.29 306.93 94.11 332.56 125.89 333.14 125.07 307.51 93.29"/>
            <path class="cls-14"
                  d="M308.15,94.26c0,.62-.43.87-1,.56a2.18,2.18,0,0,1-1-1.7c0-.62.44-.87,1-.56A2.15,2.15,0,0,1,308.15,94.26Z"/>
            <polygon class="cls-14"
                     points="314.72 90.63 313.69 88.85 309.51 91.24 309.78 91.7 283.87 106.47 284.36 107.32 310.27 92.55 310.54 93.02 314.72 90.63"/>
            <path class="cls-3"
                  d="M204.89,349.73a.75.75,0,0,1,0-1.49c1-.07,1.92-.19,2.86-.35a.75.75,0,0,1,.87.6.75.75,0,0,1-.6.86c-1,.17-2,.3-3,.37Zm-4.44-.06h-.07a23.2,23.2,0,0,1-3-.5.75.75,0,0,1-.55-.9.74.74,0,0,1,.89-.55,20.48,20.48,0,0,0,2.82.47.74.74,0,0,1-.07,1.48Zm11.68-1.45a.74.74,0,0,1-.26-1.44,21.57,21.57,0,0,0,2.62-1.15.75.75,0,0,1,1,.31.74.74,0,0,1-.32,1,21.53,21.53,0,0,1-2.8,1.23A.74.74,0,0,1,212.13,348.22Zm-18.76-.61a.66.66,0,0,1-.33-.09l-.1,0L190.39,346a.76.76,0,0,1-.27-1,.75.75,0,0,1,1-.27l2.56,1.48a.77.77,0,0,1,.31,1A.75.75,0,0,1,193.37,347.61Zm25.33-2.79a.77.77,0,0,1-.65-.37.75.75,0,0,1,.28-1l2.56-1.48a.74.74,0,1,1,.74,1.29l-2.56,1.48A.74.74,0,0,1,218.7,344.82Zm-31.79-.95a.74.74,0,0,1-.37-.1L184,342.29a.75.75,0,0,1,.75-1.29l2.56,1.49a.74.74,0,0,1-.37,1.38Zm38.21-2.76a.74.74,0,0,1-.38-1.38l2.57-1.48a.74.74,0,1,1,.74,1.28L225.49,341A.74.74,0,0,1,225.12,341.11Zm-44.63-.94a.86.86,0,0,1-.37-.1l-2.56-1.49a.74.74,0,0,1-.28-1,.75.75,0,0,1,1-.27l2.57,1.48a.75.75,0,0,1-.38,1.39Zm51-2.76a.76.76,0,0,1-.64-.37.75.75,0,0,1,.27-1l2.57-1.48a.73.73,0,0,1,1,.27.73.73,0,0,1-.27,1l-2.57,1.49A.79.79,0,0,1,231.53,337.41Zm-57.45-1a.69.69,0,0,1-.37-.1l-2.57-1.48a.74.74,0,0,1,.74-1.29l2.57,1.49a.74.74,0,0,1-.37,1.38ZM238,333.7a.74.74,0,0,1-.37-1.38l2.57-1.49a.74.74,0,0,1,1,.28.73.73,0,0,1-.27,1l-2.57,1.48A.71.71,0,0,1,238,333.7Zm-70.29-.95a.69.69,0,0,1-.37-.1l-2.57-1.48a.73.73,0,0,1-.27-1,.74.74,0,0,1,1-.27l2.57,1.48a.74.74,0,0,1-.37,1.38ZM244.37,330a.74.74,0,0,1-.64-.38.73.73,0,0,1,.27-1l2.57-1.48a.73.73,0,0,1,1,.27.74.74,0,0,1-.27,1l-2.57,1.49A.82.82,0,0,1,244.37,330Zm-83.13-.95a.71.71,0,0,1-.37-.1l-2.57-1.48a.74.74,0,0,1,.74-1.29l2.57,1.48a.74.74,0,0,1,.27,1A.73.73,0,0,1,161.24,329.05Zm89.55-2.76a.72.72,0,0,1-.64-.37.73.73,0,0,1,.27-1l2.56-1.49a.75.75,0,1,1,.75,1.29l-2.57,1.48A.74.74,0,0,1,250.79,326.29Zm-96-1a.71.71,0,0,1-.37-.1l-2.57-1.48a.74.74,0,1,1,.75-1.28l2.56,1.48a.73.73,0,0,1,.27,1A.72.72,0,0,1,154.82,325.34Zm102.39-2.75a.76.76,0,0,1-.65-.38.74.74,0,0,1,.28-1l2.56-1.48a.74.74,0,1,1,.74,1.28l-2.56,1.49A.86.86,0,0,1,257.21,322.59Zm-108.81-.95a.74.74,0,0,1-.37-.1l-2.56-1.48a.74.74,0,1,1,.74-1.29l2.56,1.48a.74.74,0,0,1-.37,1.39Zm115.22-2.76a.74.74,0,0,1-.64-.37.76.76,0,0,1,.27-1l2.57-1.48a.74.74,0,0,1,.74,1.29L264,318.78A.75.75,0,0,1,263.62,318.88ZM142,317.93a.74.74,0,0,1-.37-.1l-2.56-1.48a.74.74,0,1,1,.74-1.28l2.57,1.48a.74.74,0,0,1-.38,1.38ZM270,315.17a.74.74,0,0,1-.37-1.38l2.57-1.48a.74.74,0,1,1,.74,1.28l-2.57,1.48A.69.69,0,0,1,270,315.17Zm-134.47-.94a.69.69,0,0,1-.37-.1l-2.57-1.48a.74.74,0,0,1,.74-1.29l2.57,1.48a.75.75,0,0,1,.27,1A.76.76,0,0,1,135.57,314.23Zm140.89-2.76a.75.75,0,0,1-.64-.37.74.74,0,0,1,.27-1l2.57-1.48a.74.74,0,0,1,.74,1.29l-2.57,1.48A.71.71,0,0,1,276.46,311.47Zm-147.31-1a.71.71,0,0,1-.37-.1l-2.57-1.48a.73.73,0,0,1-.27-1,.74.74,0,0,1,1-.28l2.57,1.49a.73.73,0,0,1,.27,1A.74.74,0,0,1,129.15,310.52Zm153.73-2.76a.74.74,0,0,1-.37-1.38l2.57-1.48a.73.73,0,0,1,1,.27.74.74,0,0,1-.27,1l-2.57,1.48A.71.71,0,0,1,282.88,307.76Zm-160.15-.94a.82.82,0,0,1-.37-.1l-2.57-1.49a.74.74,0,0,1,.74-1.28l2.57,1.48a.73.73,0,0,1,.27,1A.74.74,0,0,1,122.73,306.82Zm166.57-2.76a.75.75,0,0,1-.37-1.39l2.56-1.48a.74.74,0,1,1,.75,1.28L289.67,304A.74.74,0,0,1,289.3,304.06Zm-173-.95a.74.74,0,0,1-.37-.1l-2.57-1.48a.75.75,0,0,1,.75-1.29l2.56,1.49a.73.73,0,0,1,.27,1A.72.72,0,0,1,116.31,303.11Zm179.41-2.76a.75.75,0,0,1-.65-.37.74.74,0,0,1,.28-1l1.49-.86c.35-.21.68-.42,1-.64a.74.74,0,0,1,1,.2.73.73,0,0,1-.19,1c-.35.24-.71.47-1.1.69l-1.49.86A.74.74,0,0,1,295.72,300.35Zm-185.83-1a.74.74,0,0,1-.37-.1L107,297.82a.74.74,0,1,1,.74-1.28l2.56,1.48a.74.74,0,0,1-.37,1.38Zm191.56-3.63a.74.74,0,0,1-.61-1.16,5.8,5.8,0,0,0,1-2.41.74.74,0,1,1,1.47.23,7.52,7.52,0,0,1-1.24,3A.75.75,0,0,1,301.45,295.77Zm-198-.07a.75.75,0,0,1-.38-.1l-2.56-1.48a.74.74,0,1,1,.74-1.29l2.57,1.48a.76.76,0,0,1,.27,1A.74.74,0,0,1,103.48,295.7ZM97.06,292a.69.69,0,0,1-.37-.1l-2.57-1.48a.74.74,0,1,1,.74-1.28l2.57,1.48a.74.74,0,0,1-.37,1.38Zm204.37-3.1a.74.74,0,0,1-.58-.28,8,8,0,0,0-2-1.79.74.74,0,1,1,.8-1.25,9.42,9.42,0,0,1,2.4,2.12.76.76,0,0,1-.13,1.05A.79.79,0,0,1,301.43,288.89Zm-210.79-.6a.71.71,0,0,1-.37-.1l-2.57-1.48a.74.74,0,0,1,.74-1.29L91,286.9a.74.74,0,0,1,.27,1A.75.75,0,0,1,90.64,288.29Zm204.74-3.58a.69.69,0,0,1-.37-.1l-2.57-1.48a.74.74,0,0,1,.74-1.29l2.57,1.48a.75.75,0,0,1-.37,1.39Zm-211.16-.13a.71.71,0,0,1-.37-.1L81.28,283a.74.74,0,0,1,.74-1.29l2.57,1.49a.74.74,0,0,1-.37,1.38ZM289,281a.69.69,0,0,1-.37-.1L286,279.42a.74.74,0,1,1,.74-1.28l2.57,1.48A.74.74,0,0,1,289,281ZM77.8,280.88a.86.86,0,0,1-.37-.1l-2.57-1.49a.74.74,0,0,1-.27-1,.76.76,0,0,1,1-.27l2.56,1.48a.75.75,0,0,1-.37,1.39Zm204.74-3.58a.71.71,0,0,1-.37-.1l-2.57-1.48a.74.74,0,0,1,.74-1.29l2.57,1.48a.74.74,0,0,1,.27,1A.75.75,0,0,1,282.54,277.3Zm-211.16-.13a.74.74,0,0,1-.37-.1l-2.56-1.48a.75.75,0,0,1-.28-1,.76.76,0,0,1,1-.27l2.56,1.49a.74.74,0,0,1-.37,1.38Zm204.74-3.58a.74.74,0,0,1-.37-.1L273.18,272a.75.75,0,0,1,.75-1.29l2.56,1.49a.73.73,0,0,1,.27,1A.72.72,0,0,1,276.12,273.59ZM65,273.47a.86.86,0,0,1-.37-.1L62,271.88a.74.74,0,0,1,.74-1.28l2.57,1.48a.75.75,0,0,1,.27,1A.76.76,0,0,1,65,273.47Zm204.74-3.58a.86.86,0,0,1-.37-.1l-2.56-1.49a.74.74,0,0,1-.28-1,.76.76,0,0,1,1-.27l2.56,1.48a.75.75,0,0,1,.28,1A.77.77,0,0,1,269.7,269.89Zm-211.15-.13a.69.69,0,0,1-.37-.1l-2.57-1.48a.74.74,0,0,1,.74-1.29l2.57,1.49a.74.74,0,0,1-.37,1.38Zm204.74-3.58a.75.75,0,0,1-.38-.1l-2.56-1.48a.74.74,0,0,1,.74-1.29l2.57,1.49a.74.74,0,0,1-.37,1.38Zm-211.16-.13a.69.69,0,0,1-.37-.1l-2.57-1.48a.74.74,0,0,1-.27-1,.73.73,0,0,1,1-.27l2.57,1.48a.73.73,0,0,1,.27,1A.74.74,0,0,1,52.13,266.05Zm204.74-3.57a.79.79,0,0,1-.37-.1l-2.57-1.49a.74.74,0,0,1,.74-1.28l2.57,1.48a.74.74,0,0,1,.27,1A.75.75,0,0,1,256.87,262.48Zm-210.56-.86a.74.74,0,0,1-.64-.36,6,6,0,0,1-.87-3.1l.74-.1h.74a4.62,4.62,0,0,0,.66,2.43.73.73,0,0,1-.25,1A.76.76,0,0,1,46.31,261.62Zm204.14-2.85a.71.71,0,0,1-.37-.1l-2.57-1.48a.74.74,0,0,1,.74-1.29l2.57,1.49a.73.73,0,0,1,.27,1A.74.74,0,0,1,250.45,258.77ZM244,255.06a.71.71,0,0,1-.37-.1l-2.57-1.48a.75.75,0,0,1-.27-1,.73.73,0,0,1,1-.27l2.57,1.48a.73.73,0,0,1,.27,1A.72.72,0,0,1,244,255.06Zm-196.85-.3a.73.73,0,0,1-.46-.17.74.74,0,0,1-.11-1,12.77,12.77,0,0,1,2.28-2.16.76.76,0,0,1,1,.15.74.74,0,0,1-.15,1,11.58,11.58,0,0,0-2,1.9A.75.75,0,0,1,47.18,254.76Zm190.43-3.4a.74.74,0,0,1-.37-.1l-2.57-1.48a.75.75,0,1,1,.75-1.29L238,250a.74.74,0,0,1,.27,1A.72.72,0,0,1,237.61,251.36Zm-184.48-1a.72.72,0,0,1-.64-.37.73.73,0,0,1,.27-1l2.57-1.48a.74.74,0,1,1,.74,1.28l-2.57,1.48A.71.71,0,0,1,53.13,250.41Zm178.06-2.76a.74.74,0,0,1-.37-.1l-2.56-1.48a.74.74,0,1,1,.74-1.28l2.57,1.48a.74.74,0,0,1-.38,1.38Zm-171.64-.94a.77.77,0,0,1-.65-.37.75.75,0,0,1,.28-1l2.56-1.48a.74.74,0,1,1,.75,1.28l-2.57,1.49A.74.74,0,0,1,59.55,246.71ZM224.78,244a.75.75,0,0,1-.38-.1l-2.56-1.48a.74.74,0,0,1,.74-1.29l2.57,1.48a.75.75,0,0,1-.37,1.39ZM66,243a.75.75,0,0,1-.65-.37.74.74,0,0,1,.28-1l2.56-1.49a.75.75,0,1,1,.75,1.29l-2.57,1.48A.74.74,0,0,1,66,243Zm152.39-2.76a.69.69,0,0,1-.37-.1l-2.57-1.48a.73.73,0,0,1-.27-1,.74.74,0,0,1,1-.28l2.57,1.49a.74.74,0,0,1-.37,1.38Zm-146-.94a.75.75,0,0,1-.37-1.39l2.57-1.48a.74.74,0,1,1,.74,1.28l-2.56,1.49A.86.86,0,0,1,72.38,239.3Zm139.56-2.76a.82.82,0,0,1-.37-.1L209,235a.74.74,0,0,1,.74-1.28l2.57,1.48a.73.73,0,0,1,.27,1A.74.74,0,0,1,211.94,236.54ZM78.8,235.59a.74.74,0,0,1-.64-.37.76.76,0,0,1,.27-1L81,232.72a.74.74,0,0,1,.74,1.29l-2.57,1.48A.69.69,0,0,1,78.8,235.59Zm126.72-2.76a.74.74,0,0,1-.37-.1l-2.57-1.48a.76.76,0,0,1-.27-1,.74.74,0,0,1,1-.27l2.57,1.48a.74.74,0,0,1,.27,1A.72.72,0,0,1,205.52,232.83Zm-120.3-1a.74.74,0,0,1-.37-1.38L87.42,229a.73.73,0,0,1,1,.27.74.74,0,0,1-.27,1l-2.57,1.48A.69.69,0,0,1,85.22,231.88Zm113.88-2.76a.74.74,0,0,1-.37-.1l-2.57-1.48a.74.74,0,1,1,.75-1.28l2.56,1.48a.73.73,0,0,1,.27,1A.72.72,0,0,1,199.1,229.12Zm-107.46-.94a.75.75,0,0,1-.37-1.39l2.57-1.48a.74.74,0,0,1,1,.27.76.76,0,0,1-.27,1L92,228.08A.71.71,0,0,1,91.64,228.18Zm101-2.76a.74.74,0,0,1-.37-.1l-2.56-1.48a.74.74,0,0,1,.74-1.29l2.57,1.49a.74.74,0,0,1-.38,1.38Zm-94.62-.95a.72.72,0,0,1-.64-.37.73.73,0,0,1,.27-1l2.56-1.48a.74.74,0,1,1,.75,1.28l-2.57,1.48A.74.74,0,0,1,98.06,224.47Zm88.21-2.76a.75.75,0,0,1-.38-.1l-2.56-1.48a.74.74,0,0,1,.74-1.28l2.57,1.48a.74.74,0,0,1-.37,1.38Zm-81.79-.94a.77.77,0,0,1-.65-.37.76.76,0,0,1,.27-1l2.57-1.48a.74.74,0,1,1,.75,1.28l-2.57,1.49A.86.86,0,0,1,104.48,220.77ZM179.85,218a.69.69,0,0,1-.37-.1l-2.57-1.48a.74.74,0,0,1,.74-1.29l2.57,1.48a.75.75,0,0,1-.37,1.39Zm-69-.95a.74.74,0,0,1-.37-1.38l2.57-1.49a.74.74,0,0,1,1,.28.73.73,0,0,1-.27,1L111.26,217A.69.69,0,0,1,110.89,217.06Zm62.54-2.76a.71.71,0,0,1-.37-.1l-2.57-1.48a.74.74,0,0,1,.74-1.29l2.57,1.49a.73.73,0,0,1,.27,1A.72.72,0,0,1,173.43,214.3Zm-56.12-.94a.75.75,0,0,1-.64-.38.74.74,0,0,1,.27-1l2.57-1.48a.74.74,0,0,1,.74,1.28l-2.57,1.49A.79.79,0,0,1,117.31,213.36ZM167,210.6a.74.74,0,0,1-.37-.1L164.07,209a.75.75,0,1,1,.75-1.29l2.56,1.48a.75.75,0,0,1-.37,1.39Zm-43.28-.95a.72.72,0,0,1-.64-.37.74.74,0,0,1,.27-1l2.57-1.48a.74.74,0,0,1,.74,1.29l-2.57,1.48A.71.71,0,0,1,123.73,209.65Zm36.86-2.76a.74.74,0,0,1-.37-.1l-2.57-1.48a.75.75,0,0,1,.75-1.29l2.56,1.49a.73.73,0,0,1,.27,1A.72.72,0,0,1,160.59,206.89Zm-30.44-.95a.72.72,0,0,1-.64-.37.73.73,0,0,1,.27-1l2.51-1.45a.77.77,0,0,1,1,.24.72.72,0,0,1-.22,1l-2.59,1.5A.81.81,0,0,1,130.15,205.94Zm24-2.73a.8.8,0,0,1-.33-.08,14.08,14.08,0,0,0-2.63-1,.75.75,0,0,1-.52-.92.74.74,0,0,1,.92-.51,15.91,15.91,0,0,1,2.89,1.1.74.74,0,0,1,.34,1A.75.75,0,0,1,154.16,203.21Zm-17.38-.53a.74.74,0,0,1-.23-1.45,27.54,27.54,0,0,1,2.94-.78.75.75,0,1,1,.3,1.46,24.62,24.62,0,0,0-2.78.73A.62.62,0,0,1,136.78,202.68ZM147,201.42H147a25.1,25.1,0,0,0-2.88,0,.73.73,0,0,1-.78-.71.74.74,0,0,1,.71-.77,28.14,28.14,0,0,1,3,0,.75.75,0,0,1,0,1.49Z"/>
            <path class="cls-8"
                  d="M193.52,338.31,60.27,261.37c-2.35-1.35-3.52-3.15-3.55-5.05v-6.6c0-2.3,1.74,1.7,5-.2l75.62-43.66c6.08-3.5,15.27-3.89,20.53-.85l133.25,76.93c1.76,1,3-3.29,3.49-1.92.15.46.05,6.5.06,7,.05,2.36-1.65,4.86-5,6.8L214,337.45C208,341,198.78,341.34,193.52,338.31Z"/>
            <path class="cls-11"
                  d="M193.52,331.83,60.27,254.9c-5.26-3-4.6-8.35,1.47-11.86l75.62-43.66c6.08-3.5,15.27-3.88,20.53-.85l133.25,76.93c5.26,3,4.6,8.35-1.47,11.86L214,331C208,334.48,198.78,334.86,193.52,331.83Z"/>
            <path class="cls-15" d="M193.52,338.31c5.26,3,14.45,2.65,20.52-.86V331c-6.07,3.5-15.26,3.88-20.52.85Z"/>
            <path class="cls-7"
                  d="M193.52,331.83,60.27,254.9c-2.55-1.47-3.69-3.47-3.52-5.54a1.86,1.86,0,0,0,0,.36v6.6c0,1.9,1.2,3.7,3.55,5.05l133.25,76.94Z"/>
            <path class="cls-9"
                  d="M289.67,286.22,214,329.88c-6.07,3.5-15.26,3.88-20.52.85L60.27,253.8c-2.18-1.26-3.33-2.92-3.51-4.67-.28,2.15.87,4.24,3.51,5.77l133.25,76.93c5.26,3,14.45,2.65,20.52-.85l75.63-43.66c3.55-2.06,5.24-4.72,5-7.19C294.38,282.27,292.7,284.47,289.67,286.22Z"/>
            <path class="cls-16"
                  d="M163.18,305l-47.42-27.38c-1-.55-.83-1.5.27-2.14l17.8-10.28a4.13,4.13,0,0,1,3.71-.15L185,292.38c.95.55.83,1.51-.27,2.14l-17.8,10.28A4.13,4.13,0,0,1,163.18,305Z"/>
            <path class="cls-3"
                  d="M116,276.56l17.8-10.28a4.13,4.13,0,0,1,3.71-.15L185,293.5a1.7,1.7,0,0,1,.44.39,1,1,0,0,0-.44-1.51L137.54,265a4.13,4.13,0,0,0-3.71.15L116,275.43c-.87.51-1.12,1.21-.71,1.76A2.12,2.12,0,0,1,116,276.56Z"/>
            <path class="cls-12"
                  d="M149.22,208.42l8.17,4.72a4.16,4.16,0,0,0,3.75,0,1.14,1.14,0,0,0,0-2.17L153,206.26a4.16,4.16,0,0,0-3.75,0A1.14,1.14,0,0,0,149.22,208.42Zm14,8.08,3.87,2.23a4.13,4.13,0,0,0,3.75,0,1.14,1.14,0,0,0,0-2.17L167,214.34a4.16,4.16,0,0,0-3.75,0A1.15,1.15,0,0,0,163.21,216.5Zm9.69,5.59,3.87,2.24a4.18,4.18,0,0,0,3.76,0c1-.6,1-1.57,0-2.17l-3.87-2.24a4.13,4.13,0,0,0-3.75,0A1.14,1.14,0,0,0,172.9,222.09Zm9.69,5.6,3.88,2.23a4.13,4.13,0,0,0,3.75,0c1-.59,1-1.56,0-2.16l-3.88-2.24a4.16,4.16,0,0,0-3.75,0A1.15,1.15,0,0,0,182.59,227.69Zm9.7,5.59,3.87,2.24a4.16,4.16,0,0,0,3.75,0,1.15,1.15,0,0,0,0-2.17L196,231.13a4.15,4.15,0,0,0-3.76,0C191.24,231.72,191.25,232.68,192.29,233.28Zm9.69,5.6,3.87,2.24a4.13,4.13,0,0,0,3.75,0,1.14,1.14,0,0,0,0-2.16l-3.87-2.24a4.16,4.16,0,0,0-3.75,0A1.14,1.14,0,0,0,202,238.88Zm9.69,5.6,3.87,2.23a4.16,4.16,0,0,0,3.75,0,1.15,1.15,0,0,0,0-2.17l-3.87-2.23a4.13,4.13,0,0,0-3.75,0A1.14,1.14,0,0,0,211.67,244.48Zm9.69,5.59,3.87,2.24a4.13,4.13,0,0,0,3.75,0c1-.59,1-1.56,0-2.16l-3.87-2.24a4.13,4.13,0,0,0-3.75,0A1.14,1.14,0,0,0,221.36,250.07Zm9.69,5.6,3.87,2.23a4.16,4.16,0,0,0,3.75,0,1.14,1.14,0,0,0,0-2.17l-3.87-2.23a4.13,4.13,0,0,0-3.75,0A1.15,1.15,0,0,0,231.05,255.67Zm9.69,5.59,3.87,2.24a4.15,4.15,0,0,0,3.76,0c1-.59,1-1.56,0-2.16l-3.87-2.24a4.13,4.13,0,0,0-3.75,0A1.14,1.14,0,0,0,240.74,261.26Zm9.69,5.6,3.88,2.23a4.13,4.13,0,0,0,3.75,0,1.15,1.15,0,0,0,0-2.17l-3.88-2.23a4.16,4.16,0,0,0-3.75,0A1.15,1.15,0,0,0,250.43,266.86Zm9.7,5.59,3.87,2.24a4.13,4.13,0,0,0,3.75,0,1.14,1.14,0,0,0,0-2.16l-3.87-2.24a4.15,4.15,0,0,0-3.76,0C259.08,270.88,259.09,271.85,260.13,272.45Zm9.89,5.71,3.87,2.24a4.16,4.16,0,0,0,3.75,0,1.14,1.14,0,0,0,0-2.17L273.76,276a4.13,4.13,0,0,0-3.75,0C269,276.59,269,277.56,270,278.16ZM140.5,213.75l3.35,1.94a4.76,4.76,0,0,0,4.27,0l3.33-1.93a1.3,1.3,0,0,0,0-2.46l-3.35-1.94a4.76,4.76,0,0,0-4.27,0l-3.33,1.93A1.3,1.3,0,0,0,140.5,213.75Zm17.31,7.54,3.33-1.92c1.18-.68,1.17-1.78,0-2.47L157.78,215a4.69,4.69,0,0,0-4.27,0l-3.33,1.92c-1.18.68-1.17,1.78,0,2.47l3.35,1.93A4.69,4.69,0,0,0,157.81,221.29Zm2.07,3.65,3.36,1.94a4.76,4.76,0,0,0,4.27,0l3.33-1.93a1.3,1.3,0,0,0,0-2.46l-3.35-1.94a4.72,4.72,0,0,0-4.27,0l-3.33,1.92A1.3,1.3,0,0,0,159.88,224.94Zm9.7,5.6,3.35,1.93a4.69,4.69,0,0,0,4.27,0l3.33-1.92c1.17-.68,1.17-1.78,0-2.47l-3.35-1.93a4.72,4.72,0,0,0-4.27,0l-3.33,1.92A1.3,1.3,0,0,0,169.58,230.54Zm20.63,3.15-3.36-1.94a4.72,4.72,0,0,0-4.27,0l-3.33,1.92a1.3,1.3,0,0,0,0,2.46l3.35,1.94a4.72,4.72,0,0,0,4.27,0l3.33-1.93A1.3,1.3,0,0,0,190.21,233.69Zm9.69,5.59-3.35-1.93a4.72,4.72,0,0,0-4.27,0L189,239.26a1.3,1.3,0,0,0,0,2.47l3.35,1.93a4.69,4.69,0,0,0,4.27,0l3.33-1.92C201.09,241.07,201.08,240,199.9,239.28Zm9.69,5.6-3.35-1.94a4.72,4.72,0,0,0-4.27,0l-3.33,1.92c-1.18.68-1.17,1.78,0,2.47l3.35,1.93a4.72,4.72,0,0,0,4.27,0l3.33-1.93C210.78,246.67,210.77,245.56,209.59,244.88Zm9.69,5.59-3.35-1.93a4.72,4.72,0,0,0-4.27,0l-3.33,1.93c-1.18.67-1.17,1.78,0,2.46l3.35,1.94a4.72,4.72,0,0,0,4.27,0l3.33-1.92C220.47,252.26,220.46,251.16,219.28,250.47Zm9.69,5.6-3.35-1.93a4.69,4.69,0,0,0-4.27,0L218,256.05c-1.18.68-1.17,1.78,0,2.47l3.35,1.93a4.74,4.74,0,0,0,4.28,0l3.33-1.92A1.3,1.3,0,0,0,229,256.07Zm9.69,5.6-3.35-1.94a4.72,4.72,0,0,0-4.27,0l-3.33,1.93c-1.17.67-1.17,1.78,0,2.46l3.35,1.94a4.72,4.72,0,0,0,4.27,0l3.33-1.92A1.3,1.3,0,0,0,238.66,261.67Zm-1.24,8,3.35,1.93a4.72,4.72,0,0,0,4.27,0l3.33-1.92a1.31,1.31,0,0,0,0-2.47L245,265.33a4.69,4.69,0,0,0-4.27,0l-3.33,1.92C236.23,267.92,236.23,269,237.42,269.71Zm20.63,3.15-3.35-1.94a4.76,4.76,0,0,0-4.27,0l-3.34,1.93a1.3,1.3,0,0,0,0,2.46l3.35,1.94a4.72,4.72,0,0,0,4.27,0l3.33-1.92A1.3,1.3,0,0,0,258.05,272.86Zm14.19,8.19-7.65-4.42a4.72,4.72,0,0,0-4.27,0L257,278.55a1.3,1.3,0,0,0,0,2.46l7.65,4.42a4.69,4.69,0,0,0,4.27,0l3.33-1.92A1.3,1.3,0,0,0,272.24,281.05ZM131.52,218.94l7.66,4.41a4.69,4.69,0,0,0,4.27,0l3.33-1.92c1.17-.68,1.17-1.78,0-2.47l-7.65-4.42a4.72,4.72,0,0,0-4.27,0l-3.33,1.92A1.31,1.31,0,0,0,131.52,218.94Zm14,8.07,3.35,1.94a4.72,4.72,0,0,0,4.27,0l3.33-1.93c1.18-.67,1.17-1.78,0-2.46l-3.36-1.94a4.72,4.72,0,0,0-4.27,0l-3.33,1.92A1.3,1.3,0,0,0,145.52,227Zm13,7.53a4.69,4.69,0,0,0,4.27,0l3.33-1.92c1.18-.68,1.17-1.78,0-2.47l-3.35-1.93a4.72,4.72,0,0,0-4.27,0l-3.33,1.92a1.3,1.3,0,0,0,0,2.47Zm9.69,5.6a4.72,4.72,0,0,0,4.27,0l3.33-1.93c1.18-.67,1.17-1.78,0-2.46l-3.35-1.94a4.72,4.72,0,0,0-4.27,0l-3.33,1.92a1.3,1.3,0,0,0,0,2.46Zm9.66-.73-3.33,1.92a1.3,1.3,0,0,0,0,2.47l3.35,1.94a4.72,4.72,0,0,0,4.27,0l3.33-1.92c1.18-.68,1.17-1.78,0-2.47l-3.35-1.93A4.72,4.72,0,0,0,177.91,239.41Zm9.9,5.48-3.74,2.16c-1.07.61-1.06,1.61,0,2.23l3.76,2.17a4.27,4.27,0,0,0,3.86,0l3.74-2.16a1.18,1.18,0,0,0,0-2.23l-3.77-2.17A4.25,4.25,0,0,0,187.81,244.89Zm9.69,5.59-3.74,2.16c-1.07.62-1.06,1.61,0,2.23l3.76,2.18a4.27,4.27,0,0,0,3.86,0l3.74-2.16a1.18,1.18,0,0,0,0-2.23l-3.76-2.17A4.27,4.27,0,0,0,197.5,250.48Zm9.69,5.6-3.74,2.16a1.18,1.18,0,0,0,0,2.23l3.76,2.17a4.27,4.27,0,0,0,3.86,0l3.74-2.16c1.07-.62,1.06-1.61,0-2.23l-3.76-2.17A4.27,4.27,0,0,0,207.19,256.08Zm9.69,5.6-3.74,2.15a1.18,1.18,0,0,0,0,2.23l3.77,2.18a4.27,4.27,0,0,0,3.86,0l3.74-2.16c1.06-.61,1-1.61,0-2.22l-3.76-2.18A4.27,4.27,0,0,0,216.88,261.68Zm9.69,5.59-3.74,2.16a1.18,1.18,0,0,0,0,2.23l3.77,2.17a4.27,4.27,0,0,0,3.86,0l3.74-2.16c1.06-.61,1-1.61,0-2.23l-3.76-2.17A4.27,4.27,0,0,0,226.57,267.27Zm13.59,12.16,3.74-2.16a1.17,1.17,0,0,0,0-2.22l-3.77-2.18a4.27,4.27,0,0,0-3.86,0L232.52,275c-1.06.61-1.05,1.61,0,2.22l3.76,2.18A4.27,4.27,0,0,0,240.16,279.43Zm9.69,5.6,3.74-2.16a1.18,1.18,0,0,0,0-2.23l-3.77-2.17a4.25,4.25,0,0,0-3.85,0l-3.75,2.16c-1.06.61-1.05,1.61,0,2.23L246,285A4.27,4.27,0,0,0,249.85,285Zm13.62,1.32-3.76-2.17a4.27,4.27,0,0,0-3.86,0l-3.74,2.16a1.18,1.18,0,0,0,0,2.23l3.76,2.17a4.27,4.27,0,0,0,3.86,0l3.74-2.16C264.55,288,264.54,287,263.47,286.35ZM122.34,224l12.15,7a4.27,4.27,0,0,0,3.86,0l3.74-2.16c1.07-.61,1.06-1.61,0-2.23l-12.15-7a4.27,4.27,0,0,0-3.86,0l-3.74,2.16A1.18,1.18,0,0,0,122.34,224Zm18.08,10.44,3.76,2.17a4.27,4.27,0,0,0,3.86,0l3.74-2.16c1.07-.62,1.06-1.61,0-2.23L148,230.06a4.27,4.27,0,0,0-3.86,0l-3.74,2.16A1.18,1.18,0,0,0,140.42,234.44Zm9.69,5.59,3.77,2.18a4.27,4.27,0,0,0,3.86,0l3.74-2.16c1.06-.61,1.05-1.61,0-2.23l-3.76-2.17a4.27,4.27,0,0,0-3.86,0l-3.74,2.16A1.18,1.18,0,0,0,150.11,240Zm9.69,5.6,3.77,2.17a4.27,4.27,0,0,0,3.86,0l3.74-2.16a1.18,1.18,0,0,0,0-2.23l-3.77-2.17a4.27,4.27,0,0,0-3.86,0l-3.74,2.16A1.18,1.18,0,0,0,159.8,245.63Zm17.32,7.77,3.74-2.16a1.17,1.17,0,0,0,0-2.22l-3.77-2.18a4.27,4.27,0,0,0-3.86,0L169.48,249c-1.06.61-1,1.61,0,2.22l3.76,2.18A4.27,4.27,0,0,0,177.12,253.4Zm9.69,5.6,3.74-2.16a1.18,1.18,0,0,0,0-2.23l-3.77-2.17a4.25,4.25,0,0,0-3.85,0l-3.74,2.16c-1.07.61-1.06,1.61,0,2.23L183,259A4.27,4.27,0,0,0,186.81,259Zm9.69,5.59,3.74-2.16a1.17,1.17,0,0,0,0-2.22L196.47,258a4.27,4.27,0,0,0-3.86,0l-3.74,2.16a1.17,1.17,0,0,0,0,2.22l3.76,2.18A4.27,4.27,0,0,0,196.5,264.59Zm9.69,5.6,3.74-2.16c1.07-.61,1.06-1.61,0-2.23l-3.76-2.17a4.27,4.27,0,0,0-3.86,0l-3.74,2.16a1.18,1.18,0,0,0,0,2.23l3.76,2.17A4.27,4.27,0,0,0,206.19,270.19Zm9.69,5.59,3.75-2.15a1.18,1.18,0,0,0,0-2.23l-3.76-2.18a4.27,4.27,0,0,0-3.86,0l-3.74,2.16a1.17,1.17,0,0,0,0,2.22l3.77,2.18A4.25,4.25,0,0,0,215.88,275.78Zm9.7,5.6,3.74-2.16c1.06-.61,1.05-1.61,0-2.23l-3.76-2.17a4.27,4.27,0,0,0-3.86,0L217.94,277a1.18,1.18,0,0,0,0,2.23l3.77,2.17A4.27,4.27,0,0,0,225.58,281.38Zm2.07,3.42,3.76,2.17a4.27,4.27,0,0,0,3.86,0l3.74-2.16a1.18,1.18,0,0,0,0-2.23l-3.77-2.17a4.24,4.24,0,0,0-3.86,0l-3.74,2.16C226.57,283.18,226.58,284.18,227.65,284.8Zm26.84,6.74L244.92,286a4.27,4.27,0,0,0-3.86,0l-3.74,2.16c-1.06.62-1,1.61,0,2.23l9.57,5.53a4.27,4.27,0,0,0,3.86,0l3.74-2.16C255.57,293.15,255.56,292.15,254.49,291.54ZM113.4,229.45l17.24,10a4.82,4.82,0,0,0,4.36,0l3.24-1.87a1.33,1.33,0,0,0,0-2.52l-17.24-10a4.82,4.82,0,0,0-4.36,0l-3.24,1.87A1.33,1.33,0,0,0,113.4,229.45Zm23.67,13.67,3.27,1.88a4.8,4.8,0,0,0,4.35,0l3.25-1.87c1.2-.7,1.19-1.82,0-2.52l-3.26-1.88a4.79,4.79,0,0,0-4.36,0l-3.24,1.87C135.86,241.29,135.87,242.42,137.07,243.12Zm9.7,5.59,3.26,1.88a4.79,4.79,0,0,0,4.36,0l3.24-1.87c1.2-.69,1.19-1.82,0-2.52l-3.26-1.88a4.82,4.82,0,0,0-4.36,0l-3.24,1.87C145.55,246.89,145.56,248,146.77,248.71Zm9.69,5.6,3.26,1.88a4.82,4.82,0,0,0,4.36,0l3.24-1.87a1.33,1.33,0,0,0,0-2.52L164,249.93a4.82,4.82,0,0,0-4.36,0l-3.24,1.87C155.24,252.48,155.25,253.61,156.46,254.31Zm9.69,5.59,3.26,1.89a4.82,4.82,0,0,0,4.36,0l3.24-1.87a1.32,1.32,0,0,0,0-2.51l-3.26-1.89a4.82,4.82,0,0,0-4.36,0l-3.25,1.88C164.93,258.08,164.94,259.21,166.15,259.9Zm9.69,5.6,3.26,1.88a4.82,4.82,0,0,0,4.36,0l3.24-1.87a1.33,1.33,0,0,0,0-2.52l-3.26-1.88a4.82,4.82,0,0,0-4.36,0L175.83,263A1.33,1.33,0,0,0,175.84,265.5Zm9.69,5.59,3.26,1.89a4.82,4.82,0,0,0,4.36,0l3.24-1.87a1.32,1.32,0,0,0,0-2.51l-3.26-1.89a4.85,4.85,0,0,0-4.36,0l-3.24,1.88A1.32,1.32,0,0,0,185.53,271.09Zm9.69,5.6,3.26,1.88a4.82,4.82,0,0,0,4.36,0l3.25-1.87c1.2-.69,1.19-1.82,0-2.52l-3.26-1.88a4.82,4.82,0,0,0-4.36,0l-3.24,1.87C194,274.86,194,276,195.22,276.69Zm9.69,5.59,3.27,1.89a4.85,4.85,0,0,0,4.36,0l3.24-1.88c1.2-.69,1.19-1.82,0-2.51l-3.26-1.89a4.82,4.82,0,0,0-4.36,0l-3.24,1.87A1.33,1.33,0,0,0,204.91,282.28Zm9.7,5.6,3.26,1.88a4.82,4.82,0,0,0,4.36,0l3.24-1.87c1.2-.69,1.19-1.82,0-2.52l-3.27-1.88a4.82,4.82,0,0,0-4.36,0l-3.24,1.87C213.39,286.06,213.4,287.18,214.61,287.88Zm9.69,5.59,3.26,1.89a4.82,4.82,0,0,0,4.36,0l3.24-1.88a1.33,1.33,0,0,0,0-2.51l-3.27-1.89a4.8,4.8,0,0,0-4.35,0L224.28,291C223.08,291.65,223.09,292.78,224.3,293.47Zm20.75,3.23-3.26-1.89a4.82,4.82,0,0,0-4.36,0l-3.24,1.87a1.33,1.33,0,0,0,0,2.51l3.27,1.89a4.85,4.85,0,0,0,4.36,0l3.24-1.88C246.27,298.52,246.26,297.39,245.05,296.7ZM119.58,234.62,112,230.25a4.82,4.82,0,0,0-4.36,0l-3.24,1.88c-1.2.69-1.19,1.82,0,2.51L112,239a4.82,4.82,0,0,0,4.36,0l3.24-1.87A1.33,1.33,0,0,0,119.58,234.62Zm9.69,5.59L126,238.33a4.82,4.82,0,0,0-4.36,0l-3.24,1.87a1.33,1.33,0,0,0,0,2.52l3.26,1.88a4.82,4.82,0,0,0,4.36,0l3.24-1.87A1.33,1.33,0,0,0,129.27,240.21Zm9.69,5.6-3.26-1.88a4.82,4.82,0,0,0-4.36,0l-3.24,1.87a1.33,1.33,0,0,0,0,2.52l3.26,1.88a4.82,4.82,0,0,0,4.36,0l3.24-1.87A1.33,1.33,0,0,0,139,245.81ZM206.8,285l-61.41-35.46a4.82,4.82,0,0,0-4.36,0l-3.24,1.87a1.33,1.33,0,0,0,0,2.52l61.41,35.46a4.85,4.85,0,0,0,4.36,0l3.24-1.88A1.32,1.32,0,0,0,206.8,285Zm9.69,5.59-3.26-1.88a4.82,4.82,0,0,0-4.36,0l-3.24,1.87a1.33,1.33,0,0,0,0,2.52L208.9,295a4.82,4.82,0,0,0,4.36,0l3.25-1.87C217.71,292.4,217.7,291.27,216.49,290.57Zm9.69,5.6-3.26-1.89a4.82,4.82,0,0,0-4.36,0l-3.24,1.87c-1.2.69-1.19,1.82,0,2.52l3.27,1.88a4.82,4.82,0,0,0,4.36,0l3.24-1.88C227.4,298,227.39,296.87,226.18,296.17Zm9.9,5.71L232.82,300a4.82,4.82,0,0,0-4.36,0l-3.25,1.87c-1.2.69-1.19,1.82,0,2.52l3.26,1.88a4.82,4.82,0,0,0,4.36,0l3.24-1.87A1.33,1.33,0,0,0,236.08,301.88Z"/>
            <path class="cls-3"
                  d="M149.22,207.52l8.17,4.72a4.13,4.13,0,0,0,3.75,0c1-.59,1-1.56,0-2.16L153,205.36a4.13,4.13,0,0,0-3.75,0A1.14,1.14,0,0,0,149.22,207.52Zm14,8.08,3.87,2.23a4.16,4.16,0,0,0,3.75,0,1.14,1.14,0,0,0,0-2.17L167,213.44a4.13,4.13,0,0,0-3.75,0A1.15,1.15,0,0,0,163.21,215.6Zm9.69,5.59,3.87,2.24a4.15,4.15,0,0,0,3.76,0c1-.59,1-1.56,0-2.16L176.64,219a4.13,4.13,0,0,0-3.75,0A1.14,1.14,0,0,0,172.9,221.19Zm9.69,5.6,3.88,2.23a4.13,4.13,0,0,0,3.75,0,1.15,1.15,0,0,0,0-2.17l-3.88-2.23a4.13,4.13,0,0,0-3.75,0A1.15,1.15,0,0,0,182.59,226.79Zm9.7,5.59,3.87,2.24a4.13,4.13,0,0,0,3.75,0,1.14,1.14,0,0,0,0-2.16L196,230.22a4.15,4.15,0,0,0-3.76,0C191.24,230.81,191.25,231.78,192.29,232.38ZM202,238l3.87,2.23a4.13,4.13,0,0,0,3.75,0,1.15,1.15,0,0,0,0-2.17l-3.87-2.23a4.16,4.16,0,0,0-3.75,0A1.14,1.14,0,0,0,202,238Zm9.69,5.59,3.87,2.24a4.13,4.13,0,0,0,3.75,0,1.14,1.14,0,0,0,0-2.16l-3.87-2.24a4.13,4.13,0,0,0-3.75,0C210.62,242,210.63,243,211.67,243.57Zm9.69,5.6,3.87,2.23a4.13,4.13,0,0,0,3.75,0,1.14,1.14,0,0,0,0-2.17L225.1,247a4.16,4.16,0,0,0-3.75,0A1.15,1.15,0,0,0,221.36,249.17Zm9.69,5.59,3.87,2.24a4.16,4.16,0,0,0,3.75,0,1.14,1.14,0,0,0,0-2.17l-3.87-2.24a4.13,4.13,0,0,0-3.75,0A1.14,1.14,0,0,0,231.05,254.76Zm9.69,5.6,3.87,2.23a4.15,4.15,0,0,0,3.76,0c1-.6,1-1.56,0-2.17l-3.87-2.23a4.16,4.16,0,0,0-3.75,0A1.15,1.15,0,0,0,240.74,260.36Zm9.69,5.59,3.88,2.24a4.16,4.16,0,0,0,3.75,0,1.15,1.15,0,0,0,0-2.17l-3.88-2.23a4.13,4.13,0,0,0-3.75,0C249.39,264.38,249.4,265.35,250.43,266Zm9.7,5.6,3.87,2.24a4.13,4.13,0,0,0,3.75,0,1.14,1.14,0,0,0,0-2.16l-3.87-2.24a4.18,4.18,0,0,0-3.76,0C259.08,270,259.09,271,260.13,271.55Zm9.89,5.71,3.87,2.24a4.13,4.13,0,0,0,3.75,0c1-.59,1-1.56,0-2.16l-3.87-2.24a4.13,4.13,0,0,0-3.75,0C269,275.69,269,276.66,270,277.26ZM140.5,212.85l3.35,1.93a4.69,4.69,0,0,0,4.27,0l3.33-1.92c1.18-.68,1.17-1.78,0-2.47l-3.35-1.93a4.72,4.72,0,0,0-4.27,0l-3.33,1.92A1.3,1.3,0,0,0,140.5,212.85Zm17.31,7.54,3.33-1.93c1.18-.67,1.17-1.78,0-2.46l-3.35-1.94a4.72,4.72,0,0,0-4.27,0L150.18,216c-1.18.68-1.17,1.78,0,2.47l3.35,1.93A4.72,4.72,0,0,0,157.81,220.39Zm2.07,3.65,3.36,1.94a4.72,4.72,0,0,0,4.27,0l3.33-1.92a1.3,1.3,0,0,0,0-2.46l-3.35-1.94a4.72,4.72,0,0,0-4.27,0l-3.33,1.93A1.3,1.3,0,0,0,159.88,224Zm9.7,5.6,3.35,1.93a4.72,4.72,0,0,0,4.27,0l3.33-1.92a1.3,1.3,0,0,0,0-2.47l-3.35-1.93a4.69,4.69,0,0,0-4.27,0l-3.33,1.92C168.39,227.85,168.39,229,169.58,229.64Zm20.63,3.15-3.36-1.94a4.72,4.72,0,0,0-4.27,0l-3.33,1.93c-1.17.67-1.17,1.78,0,2.46l3.35,1.94a4.72,4.72,0,0,0,4.27,0l3.33-1.92A1.3,1.3,0,0,0,190.21,232.79Zm9.69,5.59-3.35-1.93a4.69,4.69,0,0,0-4.27,0L189,238.36c-1.18.68-1.17,1.78,0,2.47l3.35,1.93a4.72,4.72,0,0,0,4.27,0l3.33-1.92A1.3,1.3,0,0,0,199.9,238.38Zm9.69,5.6L206.24,242a4.76,4.76,0,0,0-4.27,0L198.64,244a1.3,1.3,0,0,0,0,2.46l3.35,1.94a4.76,4.76,0,0,0,4.27,0l3.33-1.93A1.3,1.3,0,0,0,209.59,244Zm9.69,5.59-3.35-1.93a4.69,4.69,0,0,0-4.27,0l-3.33,1.92c-1.18.68-1.17,1.78,0,2.47l3.35,1.93a4.69,4.69,0,0,0,4.27,0l3.33-1.92C220.47,251.36,220.46,250.26,219.28,249.57Zm9.69,5.6-3.35-1.94a4.76,4.76,0,0,0-4.27,0L218,255.15a1.3,1.3,0,0,0,0,2.46l3.35,1.94a4.78,4.78,0,0,0,4.28,0l3.33-1.93A1.3,1.3,0,0,0,229,255.17Zm9.69,5.59-3.35-1.93a4.72,4.72,0,0,0-4.27,0l-3.33,1.92a1.3,1.3,0,0,0,0,2.47l3.35,1.93a4.69,4.69,0,0,0,4.27,0l3.33-1.92C239.85,262.55,239.85,261.45,238.66,260.76Zm-1.24,8,3.35,1.94a4.72,4.72,0,0,0,4.27,0l3.33-1.93a1.3,1.3,0,0,0,0-2.46L245,264.42a4.72,4.72,0,0,0-4.27,0l-3.33,1.92A1.3,1.3,0,0,0,237.42,268.8ZM258.05,272,254.7,270a4.72,4.72,0,0,0-4.27,0l-3.34,1.92a1.31,1.31,0,0,0,0,2.47l3.35,1.93a4.69,4.69,0,0,0,4.27,0l3.33-1.92C259.24,273.74,259.23,272.64,258.05,272Zm14.19,8.2-7.65-4.42a4.72,4.72,0,0,0-4.27,0L257,277.65c-1.18.67-1.17,1.78,0,2.46l7.65,4.42a4.72,4.72,0,0,0,4.27,0l3.33-1.93C273.43,281.94,273.42,280.83,272.24,280.15ZM131.52,218l7.66,4.42a4.72,4.72,0,0,0,4.27,0l3.33-1.92a1.3,1.3,0,0,0,0-2.47l-7.65-4.42a4.76,4.76,0,0,0-4.27,0l-3.33,1.93A1.3,1.3,0,0,0,131.52,218Zm14,8.08,3.35,1.94a4.72,4.72,0,0,0,4.27,0l3.33-1.92a1.3,1.3,0,0,0,0-2.46l-3.36-1.94a4.72,4.72,0,0,0-4.27,0l-3.33,1.93C144.33,224.32,144.33,225.43,145.52,226.11Zm13,7.53a4.72,4.72,0,0,0,4.27,0l3.33-1.92a1.3,1.3,0,0,0,0-2.47l-3.35-1.93a4.69,4.69,0,0,0-4.27,0l-3.33,1.92c-1.18.68-1.17,1.78,0,2.47Zm9.69,5.6a4.72,4.72,0,0,0,4.27,0l3.33-1.92a1.3,1.3,0,0,0,0-2.46l-3.35-1.94a4.76,4.76,0,0,0-4.27,0l-3.33,1.93a1.3,1.3,0,0,0,0,2.46Zm9.66-.73-3.33,1.92c-1.18.68-1.17,1.78,0,2.47l3.35,1.93a4.69,4.69,0,0,0,4.27,0l3.33-1.92a1.3,1.3,0,0,0,0-2.47l-3.35-1.93A4.69,4.69,0,0,0,177.91,238.51Zm9.9,5.48-3.74,2.16a1.17,1.17,0,0,0,0,2.22l3.76,2.18a4.27,4.27,0,0,0,3.86,0l3.74-2.16a1.17,1.17,0,0,0,0-2.22L191.66,244A4.25,4.25,0,0,0,187.81,244Zm9.69,5.59-3.74,2.16c-1.07.61-1.06,1.61,0,2.23l3.76,2.17a4.27,4.27,0,0,0,3.86,0l3.74-2.16a1.18,1.18,0,0,0,0-2.23l-3.76-2.17A4.27,4.27,0,0,0,197.5,249.58Zm9.69,5.6-3.74,2.16a1.17,1.17,0,0,0,0,2.22l3.76,2.18a4.27,4.27,0,0,0,3.86,0l3.74-2.15a1.18,1.18,0,0,0,0-2.23l-3.76-2.18A4.27,4.27,0,0,0,207.19,255.18Zm9.69,5.59-3.74,2.16a1.18,1.18,0,0,0,0,2.23l3.77,2.17a4.27,4.27,0,0,0,3.86,0l3.74-2.16c1.06-.61,1-1.61,0-2.23l-3.76-2.17A4.27,4.27,0,0,0,216.88,260.77Zm9.69,5.6-3.74,2.16a1.18,1.18,0,0,0,0,2.23l3.77,2.17a4.27,4.27,0,0,0,3.86,0l3.74-2.16c1.06-.62,1-1.61,0-2.23l-3.76-2.17A4.24,4.24,0,0,0,226.57,266.37Zm13.59,12.16,3.74-2.16a1.18,1.18,0,0,0,0-2.23L240.12,272a4.27,4.27,0,0,0-3.86,0l-3.74,2.16c-1.06.62-1.05,1.61,0,2.23l3.76,2.17A4.27,4.27,0,0,0,240.16,278.53Zm9.69,5.6,3.74-2.16a1.18,1.18,0,0,0,0-2.23l-3.77-2.17a4.25,4.25,0,0,0-3.85,0l-3.75,2.16c-1.06.61-1.05,1.61,0,2.23l3.76,2.17A4.27,4.27,0,0,0,249.85,284.13Zm13.62,1.32-3.76-2.17a4.27,4.27,0,0,0-3.86,0l-3.74,2.16a1.18,1.18,0,0,0,0,2.23l3.76,2.17a4.27,4.27,0,0,0,3.86,0l3.74-2.16C264.55,287.07,264.54,286.07,263.47,285.45ZM122.34,223.1l12.15,7a4.27,4.27,0,0,0,3.86,0l3.74-2.16c1.07-.61,1.06-1.61,0-2.23l-12.15-7a4.27,4.27,0,0,0-3.86,0l-3.74,2.16A1.18,1.18,0,0,0,122.34,223.1Zm18.08,10.43,3.76,2.18a4.27,4.27,0,0,0,3.86,0l3.74-2.16a1.17,1.17,0,0,0,0-2.22L148,229.15a4.27,4.27,0,0,0-3.86,0l-3.74,2.16A1.17,1.17,0,0,0,140.42,233.53Zm9.69,5.6,3.77,2.17a4.27,4.27,0,0,0,3.86,0l3.74-2.16c1.06-.61,1.05-1.61,0-2.23l-3.76-2.17a4.27,4.27,0,0,0-3.86,0l-3.74,2.16A1.18,1.18,0,0,0,150.11,239.13Zm9.69,5.59,3.77,2.18a4.24,4.24,0,0,0,3.86,0l3.74-2.15a1.18,1.18,0,0,0,0-2.23l-3.77-2.18a4.27,4.27,0,0,0-3.86,0l-3.74,2.16A1.17,1.17,0,0,0,159.8,244.72Zm17.32,7.78,3.74-2.16a1.18,1.18,0,0,0,0-2.23l-3.77-2.17a4.27,4.27,0,0,0-3.86,0l-3.74,2.16c-1.06.62-1,1.61,0,2.23l3.76,2.17A4.27,4.27,0,0,0,177.12,252.5Zm9.69,5.6,3.74-2.16a1.18,1.18,0,0,0,0-2.23l-3.77-2.17a4.22,4.22,0,0,0-3.85,0l-3.74,2.16c-1.07.61-1.06,1.61,0,2.23l3.76,2.17A4.27,4.27,0,0,0,186.81,258.1Zm9.69,5.59,3.74-2.16a1.18,1.18,0,0,0,0-2.23l-3.76-2.17a4.27,4.27,0,0,0-3.86,0l-3.74,2.16c-1.07.62-1.06,1.61,0,2.23l3.76,2.17A4.27,4.27,0,0,0,196.5,263.69Zm9.69,5.6,3.74-2.16c1.07-.62,1.06-1.61,0-2.23l-3.76-2.17a4.27,4.27,0,0,0-3.86,0l-3.74,2.16a1.18,1.18,0,0,0,0,2.23l3.76,2.17A4.27,4.27,0,0,0,206.19,269.29Zm9.69,5.59,3.75-2.16c1.06-.61,1.05-1.61,0-2.23l-3.76-2.17a4.27,4.27,0,0,0-3.86,0l-3.74,2.16a1.18,1.18,0,0,0,0,2.23l3.77,2.18A4.25,4.25,0,0,0,215.88,274.88Zm9.7,5.6,3.74-2.16c1.06-.62,1.05-1.61,0-2.23l-3.76-2.17a4.27,4.27,0,0,0-3.86,0l-3.74,2.16a1.18,1.18,0,0,0,0,2.23l3.77,2.17A4.27,4.27,0,0,0,225.58,280.48Zm2.07,3.41,3.76,2.18a4.27,4.27,0,0,0,3.86,0l3.74-2.16a1.17,1.17,0,0,0,0-2.22l-3.77-2.18a4.27,4.27,0,0,0-3.86,0l-3.74,2.15A1.18,1.18,0,0,0,227.65,283.89Zm26.84,6.74-9.57-5.52a4.27,4.27,0,0,0-3.86,0l-3.74,2.16c-1.06.61-1,1.61,0,2.23l9.57,5.52a4.27,4.27,0,0,0,3.86,0l3.74-2.16C255.57,292.25,255.56,291.25,254.49,290.63ZM113.4,228.55l17.24,9.95a4.82,4.82,0,0,0,4.36,0l3.24-1.87a1.33,1.33,0,0,0,0-2.52l-17.24-10a4.82,4.82,0,0,0-4.36,0L113.39,226A1.33,1.33,0,0,0,113.4,228.55Zm23.67,13.66,3.27,1.89a4.8,4.8,0,0,0,4.35,0l3.25-1.87c1.2-.69,1.19-1.82,0-2.51l-3.26-1.89a4.85,4.85,0,0,0-4.36,0l-3.24,1.88A1.33,1.33,0,0,0,137.07,242.21Zm9.7,5.6,3.26,1.88a4.82,4.82,0,0,0,4.36,0l3.24-1.87c1.2-.69,1.19-1.82,0-2.52l-3.26-1.88a4.82,4.82,0,0,0-4.36,0l-3.24,1.87C145.55,246,145.56,247.11,146.77,247.81Zm9.69,5.59,3.26,1.89a4.85,4.85,0,0,0,4.36,0l3.24-1.88a1.33,1.33,0,0,0,0-2.51L164,249a4.82,4.82,0,0,0-4.36,0l-3.24,1.87C155.24,251.58,155.25,252.71,156.46,253.4Zm9.69,5.6,3.26,1.88a4.82,4.82,0,0,0,4.36,0L177,259a1.33,1.33,0,0,0,0-2.52l-3.26-1.88a4.82,4.82,0,0,0-4.36,0l-3.25,1.87C164.93,257.18,164.94,258.3,166.15,259Zm9.69,5.6,3.26,1.88a4.82,4.82,0,0,0,4.36,0l3.24-1.88c1.2-.69,1.2-1.81,0-2.51l-3.26-1.89a4.82,4.82,0,0,0-4.36,0l-3.24,1.87A1.33,1.33,0,0,0,175.84,264.6Zm9.69,5.59,3.26,1.88a4.82,4.82,0,0,0,4.36,0l3.24-1.87a1.33,1.33,0,0,0,0-2.52l-3.26-1.88a4.82,4.82,0,0,0-4.36,0l-3.24,1.87A1.33,1.33,0,0,0,185.53,270.19Zm9.69,5.6,3.26,1.88a4.82,4.82,0,0,0,4.36,0l3.25-1.87c1.2-.7,1.19-1.82,0-2.52l-3.26-1.88a4.79,4.79,0,0,0-4.36,0l-3.24,1.87C194,274,194,275.09,195.22,275.79Zm9.69,5.59,3.27,1.88a4.79,4.79,0,0,0,4.36,0l3.24-1.87c1.2-.69,1.19-1.82,0-2.52L212.5,277a4.82,4.82,0,0,0-4.36,0l-3.24,1.87A1.33,1.33,0,0,0,204.91,281.38Zm9.7,5.6,3.26,1.88a4.82,4.82,0,0,0,4.36,0l3.24-1.87a1.33,1.33,0,0,0,0-2.52l-3.27-1.88a4.82,4.82,0,0,0-4.36,0l-3.24,1.87C213.39,285.15,213.4,286.28,214.61,287Zm9.69,5.59,3.26,1.89a4.82,4.82,0,0,0,4.36,0l3.24-1.87a1.33,1.33,0,0,0,0-2.51l-3.27-1.89a4.8,4.8,0,0,0-4.35,0l-3.25,1.88C223.08,290.75,223.09,291.87,224.3,292.57Zm20.75,3.22-3.26-1.88a4.82,4.82,0,0,0-4.36,0l-3.24,1.87a1.33,1.33,0,0,0,0,2.52l3.27,1.89a4.82,4.82,0,0,0,4.36,0l3.24-1.87C246.27,297.62,246.26,296.49,245.05,295.79ZM119.58,233.72,112,229.35a4.82,4.82,0,0,0-4.36,0l-3.24,1.87c-1.2.7-1.19,1.82,0,2.52L112,238.1a4.82,4.82,0,0,0,4.36,0l3.24-1.87A1.33,1.33,0,0,0,119.58,233.72Zm9.69,5.59L126,237.43a4.82,4.82,0,0,0-4.36,0l-3.24,1.87a1.33,1.33,0,0,0,0,2.52l3.26,1.88a4.82,4.82,0,0,0,4.36,0l3.24-1.87A1.33,1.33,0,0,0,129.27,239.31Zm9.69,5.6L135.7,243a4.82,4.82,0,0,0-4.36,0l-3.24,1.87a1.32,1.32,0,0,0,0,2.51l3.26,1.89a4.82,4.82,0,0,0,4.36,0l3.24-1.87A1.32,1.32,0,0,0,139,244.91Zm67.84,39.16-61.41-35.45a4.82,4.82,0,0,0-4.36,0l-3.24,1.87a1.33,1.33,0,0,0,0,2.52l61.41,35.46a4.82,4.82,0,0,0,4.36,0l3.24-1.87A1.33,1.33,0,0,0,206.8,284.07Zm9.69,5.6-3.26-1.88a4.82,4.82,0,0,0-4.36,0l-3.24,1.87c-1.2.69-1.19,1.82,0,2.52l3.26,1.88a4.82,4.82,0,0,0,4.36,0l3.25-1.87C217.71,291.49,217.7,290.37,216.49,289.67Zm9.69,5.6-3.26-1.89a4.82,4.82,0,0,0-4.36,0l-3.24,1.88a1.33,1.33,0,0,0,0,2.51l3.27,1.89a4.82,4.82,0,0,0,4.36,0l3.24-1.87C227.4,297.09,227.39,296,226.18,295.27Zm9.9,5.71-3.26-1.89a4.82,4.82,0,0,0-4.36,0L225.21,301c-1.2.69-1.19,1.82,0,2.51l3.26,1.89a4.85,4.85,0,0,0,4.36,0l3.24-1.88A1.33,1.33,0,0,0,236.08,301Z"/>
            <path class="cls-3"
                  d="M289,274.44,160.64,200.28c-5-2.87-9-10.57-9-17.2V82.36c0-6.62,4-9.67,9-6.8L289,149.73c5,2.87,9,10.57,9,17.19V267.64C298,274.27,294,277.31,289,274.44Z"/>
            <path class="cls-17"
                  d="M290.19,269.27l-127-73.37c-4-2.54-6.47-7.62-6.47-12.82V81.88a1.59,1.59,0,0,1,2.4-1.38l.28.17L286.5,154.1c4.76,2.75,6.47,7.63,6.47,12.82v101a1.72,1.72,0,0,1-2.57,1.5Z"/>
            <path class="cls-18"
                  d="M286.5,154.1,159.38,80.67l-.28-.17a1.59,1.59,0,0,0-2.4,1.38v101.2c0,5.2,2.47,10.28,6.47,12.82l127,73.37.21.12a1.72,1.72,0,0,0,2.57-1.5v-101C293,161.73,291.26,156.85,286.5,154.1ZM292,267.89a.71.71,0,0,1-.71.71.73.73,0,0,1-.35-.09L163.68,195c-3.61-2.29-6-7-6-11.94V81.88a.59.59,0,0,1,.59-.59.6.6,0,0,1,.29.08L286,155c4.94,2.84,6,8.06,6,11.94Z"/>
            <path class="cls-7"
                  d="M291.58,148.37,163.19,74.21a6.06,6.06,0,0,0-5.26-.78c-.19.08-2.7,1.41-2.88,1.51h0c1.54-.74,3.48-.6,5.6.62L289,149.73c5,2.87,9,10.57,9,17.19V267.64c0,4.13-1.57,6.87-4,7.65a1.51,1.51,0,0,0,.79-.26c.11-.07,2.84-1.61,2.94-1.68,1.71-1.2,2.78-3.66,2.78-7.07V165.57C300.58,158.94,296.55,151.24,291.58,148.37Z"/>
            <path class="cls-19"
                  d="M291.58,148.37,163.19,74.21a6.06,6.06,0,0,0-5.26-.78c-.19.08-2.7,1.41-2.88,1.51h0c1.54-.74,3.48-.6,5.6.62L289,149.73Z"/>
            <path class="cls-20"
                  d="M289.46,149.51,161.08,75.35a6,6,0,0,0-5.43-.7,6.7,6.7,0,0,1,4.35,1l128.38,74.17c5,2.87,9,10.56,9,17.19V267.75c0,3.91-1.41,6.55-3.58,7.49,2.78-.44,4.66-3.29,4.66-7.82V166.71C298.46,160.08,294.43,152.38,289.46,149.51Z"/>
            <path class="cls-3"
                  d="M182.75,430h-.23a.74.74,0,0,1-.72-.75.73.73,0,0,1,.75-.73h.2a17.34,17.34,0,0,0,2.64-.2.74.74,0,1,1,.23,1.47A19.19,19.19,0,0,1,182.75,430Zm-4.63-.54a.55.55,0,0,1-.18,0,18.05,18.05,0,0,1-2.94-.95.74.74,0,0,1-.4-1,.75.75,0,0,1,1-.4,17.32,17.32,0,0,0,2.72.88.74.74,0,0,1-.17,1.46Zm11.64-1.07a.74.74,0,0,1-.65-.36.73.73,0,0,1,.24-1l.1,0,2.54-1.47a.74.74,0,0,1,1,.28.73.73,0,0,1-.27,1l-2.58,1.49A.76.76,0,0,1,189.76,428.39Zm-18.4-2a.82.82,0,0,1-.37-.1l-2.58-1.49a.74.74,0,0,1,.74-1.29l2.58,1.49a.75.75,0,0,1-.37,1.39Zm24.87-1.76a.77.77,0,0,1-.65-.37.75.75,0,0,1,.28-1l2.57-1.49a.75.75,0,0,1,.75,1.29l-2.58,1.49A.74.74,0,0,1,196.23,424.67Zm-31.31-2a.75.75,0,0,1-.38-.1L162,421.12a.74.74,0,1,1,.74-1.29l2.58,1.49a.74.74,0,0,1-.37,1.38ZM202.67,421a.75.75,0,0,1-.64-.38.74.74,0,0,1,.27-1l2.58-1.49a.74.74,0,0,1,.74,1.29L203,420.85A.79.79,0,0,1,202.67,421Zm-44.2-2a.71.71,0,0,1-.37-.1l-2.58-1.49a.73.73,0,0,1-.27-1,.75.75,0,0,1,1-.27l2.58,1.49a.73.73,0,0,1,.27,1A.72.72,0,0,1,158.47,419Zm50.65-1.76a.72.72,0,0,1-.64-.37.73.73,0,0,1,.27-1l2.57-1.49a.75.75,0,0,1,1,.27.76.76,0,0,1-.27,1l-2.58,1.48A.74.74,0,0,1,209.12,417.22Zm-57.1-2a.74.74,0,0,1-.37-.1l-2.58-1.49a.74.74,0,1,1,.75-1.28l2.58,1.49a.74.74,0,0,1-.38,1.38Zm63.54-1.76a.74.74,0,0,1-.37-1.38l2.58-1.49a.75.75,0,0,1,1,.27.74.74,0,0,1-.28,1l-2.57,1.49A.75.75,0,0,1,215.56,413.5Zm-70-2a.69.69,0,0,1-.37-.1L142.63,410a.74.74,0,1,1,.74-1.28l2.58,1.48a.75.75,0,0,1-.37,1.39ZM222,409.78a.74.74,0,0,1-.37-1.38l2.58-1.49a.74.74,0,1,1,.74,1.28l-2.58,1.49A.71.71,0,0,1,222,409.78Zm-82.88-2a.74.74,0,0,1-.37-.1l-2.58-1.49a.74.74,0,0,1,.74-1.29l2.58,1.49a.75.75,0,0,1-.37,1.39Zm89.13-2a.72.72,0,0,1-.49-.19.75.75,0,0,1-.06-1.05,3.24,3.24,0,0,0,.9-2.2.74.74,0,0,1,.74-.74.75.75,0,0,1,.75.74,4.77,4.77,0,0,1-1.28,3.19A.77.77,0,0,1,228.26,405.8Zm-95.57-1.7a.86.86,0,0,1-.38-.1l-2.57-1.49a.74.74,0,0,1,.74-1.29l2.58,1.49a.75.75,0,0,1-.37,1.39Zm-6.45-3.73a.71.71,0,0,1-.37-.1l-2.58-1.48a.74.74,0,0,1,.74-1.29l2.58,1.49a.73.73,0,0,1,.27,1A.72.72,0,0,1,126.24,400.37Zm101.13-1.13a.73.73,0,0,1-.5-.19,9.86,9.86,0,0,0-1.85-1.33l-.46-.27a.74.74,0,0,1,.74-1.29l.46.27a11.89,11.89,0,0,1,2.11,1.52.74.74,0,0,1-.5,1.29Zm-107.58-2.59a.74.74,0,0,1-.37-.1l-2.58-1.49a.74.74,0,0,1-.27-1,.76.76,0,0,1,1-.27l2.58,1.49a.74.74,0,0,1-.38,1.38Zm101.27-1.34a.74.74,0,0,1-.37-.1l-2.58-1.48a.75.75,0,0,1,.75-1.29l2.57,1.49a.74.74,0,0,1-.37,1.38Zm-107.71-2.38a.71.71,0,0,1-.37-.1l-2.58-1.49a.74.74,0,0,1,.74-1.28l2.58,1.49a.73.73,0,0,1,.27,1A.74.74,0,0,1,113.35,392.93Zm101.27-1.34a.69.69,0,0,1-.37-.1L211.67,390a.73.73,0,0,1-.27-1,.74.74,0,0,1,1-.27l2.58,1.49a.74.74,0,0,1-.37,1.38ZM106.9,389.21a.74.74,0,0,1-.37-.1L104,387.62a.74.74,0,1,1,.75-1.28l2.57,1.49a.74.74,0,0,1,.28,1A.75.75,0,0,1,106.9,389.21Zm101.27-1.34a.71.71,0,0,1-.37-.1l-2.58-1.49A.74.74,0,0,1,206,385l2.58,1.49a.73.73,0,0,1,.27,1A.72.72,0,0,1,208.17,387.87Zm-107.71-2.38a.75.75,0,0,1-.38-.1l-2.57-1.49a.74.74,0,0,1,.74-1.28l2.58,1.48a.75.75,0,0,1-.37,1.39Zm101.27-1.34a.75.75,0,0,1-.38-.1l-2.57-1.49a.74.74,0,1,1,.74-1.28l2.58,1.49a.74.74,0,0,1-.37,1.38ZM94,381.77a.71.71,0,0,1-.37-.1l-2.58-1.49a.74.74,0,0,1,.74-1.29l2.58,1.49a.75.75,0,0,1-.37,1.39Zm101.27-1.34a.71.71,0,0,1-.37-.1l-2.58-1.49a.74.74,0,0,1,.74-1.28l2.58,1.48a.74.74,0,0,1,.27,1A.73.73,0,0,1,195.28,380.43ZM87.56,378.05a.86.86,0,0,1-.37-.1l-.43-.25a12.45,12.45,0,0,1-2.13-1.55.74.74,0,0,1,0-1,.73.73,0,0,1,1,0,10.71,10.71,0,0,0,1.87,1.35l.44.25a.75.75,0,0,1,.27,1A.76.76,0,0,1,87.56,378.05Zm101.27-1.34a.86.86,0,0,1-.37-.1l-2.58-1.49a.75.75,0,0,1,.75-1.29l2.58,1.49a.76.76,0,0,1,.27,1A.77.77,0,0,1,188.83,376.71ZM182.39,373a.79.79,0,0,1-.37-.1l-2.58-1.49a.74.74,0,0,1,.74-1.29l2.58,1.49a.74.74,0,0,1,.27,1A.75.75,0,0,1,182.39,373Zm-99.22-.51h0a.76.76,0,0,1-.74-.75,4.9,4.9,0,0,1,1.3-3.18.74.74,0,1,1,1.11,1,3.32,3.32,0,0,0-.92,2.2A.74.74,0,0,1,83.17,372.48Zm92.77-3.22a.74.74,0,0,1-.37-.1L173,367.68a.76.76,0,0,1-.27-1,.75.75,0,0,1,1-.27l2.58,1.49a.73.73,0,0,1,.27,1A.72.72,0,0,1,175.94,369.26Zm-88-2a.74.74,0,0,1-.64-.37.73.73,0,0,1,.27-1l2.58-1.49a.74.74,0,1,1,.74,1.28l-2.58,1.49A.71.71,0,0,1,88,367.3Zm81.54-1.76a.75.75,0,0,1-.38-.1L166.55,364a.73.73,0,0,1-.27-1,.74.74,0,0,1,1-.27l2.58,1.49a.74.74,0,0,1-.37,1.38Zm-75.09-2a.74.74,0,0,1-.37-1.39l2.57-1.48a.74.74,0,1,1,.75,1.28l-2.58,1.49A.74.74,0,0,1,94.41,363.58Zm68.64-1.76a.71.71,0,0,1-.37-.1l-2.58-1.49a.74.74,0,0,1-.27-1,.73.73,0,0,1,1-.27l2.58,1.49a.73.73,0,0,1,.27,1A.72.72,0,0,1,163.05,361.82Zm-62.2-2a.76.76,0,0,1-.64-.37.75.75,0,0,1,.27-1l2.58-1.49a.74.74,0,0,1,1,.28.73.73,0,0,1-.27,1l-2.58,1.49A.69.69,0,0,1,100.85,359.86Zm55.75-1.76a.74.74,0,0,1-.37-.1l-2.57-1.49a.74.74,0,1,1,.74-1.28l2.58,1.48a.76.76,0,0,1,.27,1A.75.75,0,0,1,156.6,358.1Zm-49.3-2a.75.75,0,0,1-.37-1.39l2.57-1.49a.75.75,0,0,1,.75,1.29L107.67,356A.74.74,0,0,1,107.3,356.14Zm42.86-1.76a.71.71,0,0,1-.37-.1l-2.58-1.49a.73.73,0,0,1-.27-1,.74.74,0,0,1,1-.28l2.58,1.49a.74.74,0,0,1,.27,1A.75.75,0,0,1,150.16,354.38Zm-36.42-2a.74.74,0,0,1-.37-1.38l2.58-1.49a.74.74,0,1,1,.74,1.29l-2.58,1.49A.78.78,0,0,1,113.74,352.41Zm30-1.75a.74.74,0,0,1-.37-.1l-2.58-1.49a.75.75,0,1,1,.75-1.29l2.57,1.49a.75.75,0,0,1-.37,1.39Zm-23.52-2a.74.74,0,0,1-.37-1.38l2.55-1.47a.74.74,0,0,1,1,.24.72.72,0,0,1-.2,1l-.15.08-2.47,1.43A.71.71,0,0,1,120.19,348.69Zm17-1.64a.75.75,0,0,1-.29-.06,17.18,17.18,0,0,0-2.71-.87.74.74,0,0,1-.55-.89.73.73,0,0,1,.89-.56,19.56,19.56,0,0,1,2.95.95.76.76,0,0,1,.4,1A.75.75,0,0,1,137.21,347.05ZM127,345.81a.74.74,0,0,1-.11-1.47,18.23,18.23,0,0,1,2.9-.22H130a.74.74,0,0,1,0,1.48h-.18a17.74,17.74,0,0,0-2.67.2Z"/>
            <path class="cls-8"
                  d="M189.39,421.13l34.34-19.83a4.53,4.53,0,0,0,2.62-3.73c0-.13,0-2.82,0-2.94-.14-1.62-1.38-.73-3.68-2.06l-80.77-46.63c-4.47-2.58-11.24-2.86-15.11-.62L92.42,365.15c-1.73,1-2.59-.76-2.61.64,0,.12,0,3.33,0,3.45.14,1.62,1.38,3.3,3.69,4.63l80.76,46.63C178.74,423.09,185.51,423.37,189.39,421.13Z"/>
            <path class="cls-11"
                  d="M189.39,418.19l34.34-19.83c3.88-2.24,3.39-6.15-1.08-8.73L141.88,343c-4.47-2.58-11.24-2.86-15.11-.63L92.42,362.2c-3.87,2.24-3.39,6.15,1.09,8.73l80.76,46.63C178.74,420.14,185.51,420.42,189.39,418.19Z"/>
            <path class="cls-9"
                  d="M223.73,398,189.39,417.8c-3.88,2.24-10.65,2-15.12-.63L93.51,370.54c-2.36-1.36-3.61-3.08-3.7-4.74-.09,1.77,1.16,3.67,3.7,5.13l80.76,46.63c4.47,2.58,11.24,2.86,15.12.63l34.34-19.83c1.84-1.06,2.69-2.5,2.61-4A4.56,4.56,0,0,1,223.73,398Z"/>
            <path class="cls-18"
                  d="M220.17,390.88l-80.46-46.45c-3.28-1.9-8.25-2.1-11.09-.46l-33.43,19.3c-2.85,1.65-2.49,4.51.79,6.41l80.46,46.45c3.28,1.9,8.25,2.1,11.09.46L221,397.29C223.81,395.64,223.45,392.78,220.17,390.88Z"/>
            <path class="cls-17"
                  d="M128.91,344.59a10.69,10.69,0,0,1,9.68,0l81.34,47c2.66,1.54,2.65,4,0,5.59L187.24,416a10.67,10.67,0,0,1-9.67,0L96.22,369c-2.66-1.54-2.65-4,0-5.59Z"/>
            <path class="cls-21"
                  d="M204.06,153.53c0,20.73,14.7,46.08,32.77,56.51,4.95,2.86,9.84,4.37,14.14,4.37,10.22,0,16.57-8.37,16.57-21.85,0-20.73-14.7-46.08-32.77-56.51-5-2.86-9.84-4.37-14.14-4.37C210.41,131.68,204.06,140.05,204.06,153.53Z"/>
            <path class="cls-9"
                  d="M189.58,158.7c0,20.73,14.7,46.08,32.77,56.51,4.94,2.86,9.83,4.37,14.14,4.37,10.21,0,16.56-8.37,16.56-21.85,0-20.73-14.7-46.08-32.77-56.51-4.94-2.86-9.83-4.37-14.14-4.37C195.93,136.85,189.58,145.22,189.58,158.7Z"/>
            <path class="cls-22"
                  d="M216.21,197.18a2,2,0,0,0,.43-.05l24.16-5.58c1.86-.43,1.86-3.59,0-6.16l-24.16-33.48a4.6,4.6,0,0,0-3.37-2.23c-1,0-1.8.78-1.8,2.33v39.05c0,2.86,2.62,6.12,4.74,6.12Z"/>
            <path class="cls-22"
                  d="M222.7,217.24c-19.21-11.09-34.83-38.05-34.83-60.09,0-15.78,8.12-26,20.69-26,5.1,0,10.55,1.66,16.2,4.92,19.21,11.09,34.83,38,34.83,60.09,0,15.78-8.12,26-20.69,26C233.8,222.16,228.35,220.5,222.7,217.24ZM192,157.15c0,20.73,14.7,46.08,32.77,56.51,5,2.86,9.84,4.37,14.14,4.37,10.22,0,16.57-8.37,16.57-21.85,0-20.73-14.7-46.08-32.77-56.51-4.95-2.86-9.84-4.37-14.14-4.37C198.34,135.3,192,143.67,192,157.15Z"/>
            <path class="cls-9"
                  d="M214.26,198.42a2.09,2.09,0,0,0,.43,0l24.16-5.59c1.85-.42,1.85-3.58,0-6.16l-24.16-33.47a4.62,4.62,0,0,0-3.37-2.23c-1,0-1.81.78-1.81,2.32v39.06c0,2.85,2.63,6.11,4.75,6.11Z"/>
            <path class="cls-23"
                  d="M213.87,198.68a1.58,1.58,0,0,0,.43-.05l24.16-5.58c1.85-.43,1.85-3.58,0-6.16L214.3,153.42a4.6,4.6,0,0,0-3.37-2.23c-1,0-1.8.77-1.8,2.32v39.06c0,2.85,2.62,6.11,4.74,6.11Z"/>
            <path class="cls-9"
                  d="M220.8,218.53c-19.21-11.09-34.83-38-34.83-60.09,0-15.78,8.12-26,20.69-26,5.1,0,10.55,1.65,16.2,4.91,19.21,11.09,34.84,38.05,34.84,60.09,0,15.78-8.12,26-20.69,26C231.91,223.45,226.46,221.79,220.8,218.53Zm-30.7-60.09c0,20.73,14.7,46.09,32.76,56.52,4.95,2.85,9.84,4.36,14.15,4.36,10.21,0,16.56-8.37,16.56-21.85,0-20.73-14.7-46.08-32.77-56.51-4.94-2.86-9.83-4.37-14.14-4.37C196.44,136.59,190.1,145,190.1,158.44Z"/>
            <path class="cls-23"
                  d="M220.28,218.79c-19.2-11.09-34.83-38-34.83-60.09,0-15.78,8.12-26,20.69-26,5.1,0,10.55,1.65,16.21,4.91,19.21,11.09,34.83,38.05,34.83,60.09,0,15.78-8.12,26-20.69,26C231.39,223.71,225.94,222.05,220.28,218.79Zm-30.7-60.09c0,20.73,14.7,46.08,32.77,56.51,4.94,2.86,9.83,4.37,14.14,4.37,10.21,0,16.56-8.37,16.56-21.85,0-20.73-14.7-46.08-32.77-56.51-4.94-2.86-9.83-4.37-14.14-4.37C195.93,136.85,189.58,145.22,189.58,158.7Z"/>
            <polygon class="cls-24" points="317.64 184.72 317.64 223.15 323.43 219.96 323.43 181.23 317.64 184.72"/>
            <polygon class="cls-25" points="317.68 184.72 317.68 223.15 237.67 176.29 237.67 137.57 317.68 184.72"/>
            <polygon class="cls-26" points="237.67 137.57 317.68 184.72 323.43 181.23 243.35 134.18 237.67 137.57"/>
            <polygon class="cls-6" points="237.67 137.57 317.68 184.72 323.43 181.23 317.74 183.87 237.67 137.57"/>
            <polygon class="cls-9" points="278.8 171.63 278.8 175.29 311 193.9 311 190.24 278.8 171.63"/>
            <polygon class="cls-9" points="293.09 195.15 278.8 186.86 278.8 190.53 293.09 198.81 293.09 195.15"/>
            <polygon class="cls-9" points="278.8 182.91 311 201.52 311 197.85 278.8 179.24 278.8 182.91"/>
            <path class="cls-9"
                  d="M270.34,163.27l-21.87-12.63c-1.34-.77-2.43-.15-2.43,1.39v14.81a5.35,5.35,0,0,0,2.43,4.19l1.37.79v7.84l6.83-3.89,13.67,7.89c1.34.77,2.43.15,2.43-1.39V167.46A5.35,5.35,0,0,0,270.34,163.27Zm-15.72,2.6c-.71.4-1.86-.27-2.58-1.49s-.71-2.55,0-3,1.87.26,2.58,1.49S255.33,165.46,254.62,165.87Zm5.92,3.41c-.71.41-1.86-.26-2.57-1.48s-.71-2.55,0-3,1.86.26,2.57,1.49S261.26,168.88,260.54,169.28Zm5.93,3.42c-.72.41-1.87-.26-2.58-1.48s-.71-2.56,0-3,1.86.26,2.58,1.49S267.18,172.3,266.47,172.7Z"/>
            <polygon class="cls-8" points="197.17 167.31 197.17 237.65 202.8 234.35 202.8 163.87 197.17 167.31"/>
            <polygon class="cls-7" points="197.19 167.31 197.19 237.65 112.53 189 112.53 118.51 197.19 167.31"/>
            <polygon class="cls-12" points="112.53 118.51 197.19 167.31 202.8 163.87 118.1 115.12 112.53 118.51"/>
            <polygon class="cls-6" points="112.53 118.51 197.19 167.31 202.8 163.87 197.18 166.52 112.53 118.51"/>
            <polygon class="cls-9" points="183.59 212.37 183.59 209.92 135.54 182.39 135.54 184.84 183.59 212.37"/>
            <polygon class="cls-9" points="141.85 170.76 118.34 157.19 118.34 159.64 141.85 173.22 141.85 170.76"/>
            <polygon class="cls-9" points="157.76 190.13 157.76 192.58 175.8 202.78 175.8 200.33 157.76 190.13"/>
            <polygon class="cls-9" points="156.25 168.9 118.34 147.01 118.34 149.46 156.25 171.35 156.25 168.9"/>
            <polygon class="cls-9" points="156.25 152.21 118.34 130.32 118.34 135.63 156.25 157.52 156.25 152.21"/>
            <polygon class="cls-9" points="132.23 160.12 118.34 152.1 118.34 154.55 132.23 162.57 132.23 160.12"/>
            <polygon class="cls-9" points="128.7 175.8 155.35 191.19 155.35 188.74 128.7 173.35 128.7 175.8"/>
            <polygon class="cls-9" points="134.64 161.51 134.64 163.96 180.38 190.16 180.38 187.71 134.64 161.51"/>
            <polygon class="cls-9" points="144.26 172.16 144.26 174.61 162.97 185.41 162.97 182.96 144.26 172.16"/>
            <polygon class="cls-9" points="126.29 171.96 118.34 167.37 118.34 169.82 126.29 174.41 126.29 171.96"/>
            <polygon class="cls-9" points="128.7 185.65 155.35 201.04 155.35 198.59 128.7 183.2 128.7 185.65"/>
            <polygon class="cls-9" points="126.29 181.81 118.34 177.22 118.34 179.67 126.29 184.26 126.29 181.81"/>
            <polygon class="cls-9" points="158.66 172.74 193.44 192.61 193.44 190.16 158.66 170.29 158.66 172.74"/>
            <polygon class="cls-9" points="182.8 191.55 193.44 197.7 193.44 195.25 182.8 189.1 182.8 191.55"/>
            <polygon class="cls-9" points="118.34 144.37 193.44 187.52 193.44 185.07 118.34 141.93 118.34 144.37"/>
            <polygon class="cls-9" points="165.38 186.8 193.44 202.79 193.44 200.34 165.38 184.35 165.38 186.8"/>
            <polygon class="cls-9" points="133.13 181 118.34 172.46 118.34 174.91 133.13 183.45 133.13 181"/>
            <polygon class="cls-9" points="186 213.76 193.44 218.05 193.44 215.6 186 211.31 186 213.76"/>
            <polygon class="cls-9" points="178.21 204.17 193.44 212.96 193.44 210.51 178.21 201.72 178.21 204.17"/>
            <polygon class="cls-9" points="118.34 164.73 193.44 207.88 193.44 205.43 118.34 162.28 118.34 164.73"/>
            <path class="cls-9" d="M186.77,222.37v1.09l-5-.26v-1.26l3.84.34v0l-3.84-4.09V216.9Z"/>
            <polygon class="cls-9"
                     points="181.62 216.39 181.62 216.9 181.67 218.29 185.23 222.04 181.62 221.73 181.62 223.38 186.97 223.67 186.97 223.46 186.92 222.23 181.62 216.39"/>
            <polygon class="cls-9"
                     points="193.12 225.81 187.81 219.97 187.81 220.48 187.87 221.87 191.42 225.62 187.81 225.3 187.81 226.96 193.17 227.24 193.17 227.03 193.12 225.81"/>
            <path class="cls-9" d="M193,226V227l-5-.27v-1.25l3.83.33v0l-3.83-4.1v-1.25Z"/>
            <path class="cls-3"
                  d="M384.79,310a.82.82,0,0,1-.37-.1l-.91-.54-.91.53a.74.74,0,1,1-.75-1.28l1.66-1,1.66,1a.75.75,0,0,1,.26,1A.72.72,0,0,1,384.79,310Z"/>
            <path class="cls-3"
                  d="M362.87,389.4a.75.75,0,0,1-.72-.57.75.75,0,0,1,.55-.9,7.58,7.58,0,0,0,2.05-.82l.45-.26a.75.75,0,0,1,.75,1.29l-.46.26a9.24,9.24,0,0,1-2.44,1Zm-4.38-.09-.2,0a9.48,9.48,0,0,1-2.12-.91l-.71-.42a.74.74,0,0,1-.27-1,.76.76,0,0,1,1-.26l.71.41a7.79,7.79,0,0,0,1.78.77.75.75,0,0,1,.51.92A.76.76,0,0,1,358.49,389.31ZM369.41,386a.74.74,0,0,1-.37-1.38l2.56-1.48a.75.75,0,0,1,1,.28.74.74,0,0,1-.28,1l-2.56,1.47A.69.69,0,0,1,369.41,386Zm-17.4-.21a.75.75,0,0,1-.38-.1l-2.54-1.49a.74.74,0,1,1,.75-1.28l2.55,1.49a.75.75,0,0,1,.26,1A.75.75,0,0,1,352,385.81Zm23.8-3.47a.75.75,0,0,1-.37-1.39l2.56-1.47a.73.73,0,0,1,1,.27.74.74,0,0,1-.27,1l-2.56,1.48A.71.71,0,0,1,375.81,382.34Zm-30.17-.26a.75.75,0,0,1-.38-.1l-2.54-1.49a.74.74,0,1,1,.75-1.28L346,380.7a.73.73,0,0,1,.26,1A.74.74,0,0,1,345.64,382.08Zm36.57-3.43a.74.74,0,0,1-.37-1.39l2.55-1.47a.75.75,0,0,1,.75,1.29l-2.56,1.47A.74.74,0,0,1,382.21,378.65Zm-42.94-.3a.86.86,0,0,1-.38-.1l-2.54-1.5a.73.73,0,0,1-.27-1,.75.75,0,0,1,1-.27l2.55,1.49a.75.75,0,0,1-.38,1.39ZM388.6,375a.75.75,0,0,1-.64-.38.74.74,0,0,1,.27-1l2.56-1.48a.75.75,0,0,1,1,.28.74.74,0,0,1-.28,1L389,374.87A.79.79,0,0,1,388.6,375Zm-55.7-.35a.7.7,0,0,1-.37-.11L330,373a.73.73,0,0,1-.27-1,.75.75,0,0,1,1-.27l2.55,1.49a.75.75,0,0,1,.26,1A.76.76,0,0,1,332.9,374.62Zm62.1-3.34a.72.72,0,0,1-.64-.37.74.74,0,0,1,.27-1l2.56-1.47a.74.74,0,0,1,.74,1.29l-2.56,1.47A.71.71,0,0,1,395,371.28Zm-68.47-.4a.69.69,0,0,1-.37-.1l-2.55-1.49a.74.74,0,1,1,.75-1.28l2.55,1.49a.75.75,0,0,1,.26,1A.75.75,0,0,1,326.53,370.88Zm74.87-3.29a.74.74,0,0,1-.37-1.38l2.56-1.48a.75.75,0,0,1,1,.27.76.76,0,0,1-.27,1l-2.56,1.47A.74.74,0,0,1,401.4,367.59Zm-81.24-.44a.75.75,0,0,1-.38-.1l-2.54-1.49a.74.74,0,1,1,.75-1.28l2.55,1.49a.75.75,0,0,1,.26,1A.75.75,0,0,1,320.16,367.15Zm87.63-3.24a.75.75,0,0,1-.64-.38.74.74,0,0,1,.27-1l2.56-1.47a.74.74,0,1,1,.74,1.28l-2.56,1.48A.79.79,0,0,1,407.79,363.91Zm-94-.49a.75.75,0,0,1-.38-.1l-2.54-1.5a.73.73,0,0,1-.27-1,.75.75,0,0,1,1-.27l2.55,1.5a.73.73,0,0,1,.26,1A.74.74,0,0,1,313.79,363.42Zm100.4-3.2a.73.73,0,0,1-.64-.37.74.74,0,0,1,.27-1l2.56-1.47a.74.74,0,0,1,.74,1.29l-2.56,1.47A.71.71,0,0,1,414.19,360.22Zm-106.77-.53a.79.79,0,0,1-.37-.1l-1.88-1.1a3.17,3.17,0,0,1-.78-.64.74.74,0,0,1,.06-1.05.73.73,0,0,1,1,.06,1.74,1.74,0,0,0,.43.34l1.88,1.1a.75.75,0,0,1,.26,1A.73.73,0,0,1,307.42,359.69Zm113.17-3.16a.74.74,0,0,1-.37-1.38l2.56-1.47a.73.73,0,0,1,1,.27.75.75,0,0,1-.27,1L421,356.44A.84.84,0,0,1,420.59,356.53Zm-115-2.31a.75.75,0,0,1-.65-.35.71.71,0,0,1,.21-1l2.58-1.49a.74.74,0,0,1,.74,1.29l-2.49,1.43A.79.79,0,0,1,305.54,354.22ZM427,352.85a.74.74,0,0,1-.64-.37.76.76,0,0,1,.27-1l2.56-1.47a.74.74,0,1,1,.74,1.29l-2.56,1.47A.69.69,0,0,1,427,352.85Zm-115.09-2.29a.74.74,0,0,1-.37-1.38l2.55-1.48a.75.75,0,0,1,1,.27.76.76,0,0,1-.27,1l-2.56,1.47A.74.74,0,0,1,311.89,350.56Zm121.49-1.4a.74.74,0,0,1-.37-1.38l2.56-1.48a.74.74,0,0,1,1,.28.73.73,0,0,1-.27,1l-2.56,1.47A.69.69,0,0,1,433.38,349.16Zm-115.1-2.29a.74.74,0,0,1-.37-1.38l2.56-1.48a.74.74,0,0,1,.74,1.29l-2.56,1.47A.69.69,0,0,1,318.28,346.87Zm121.23-1.71a.8.8,0,0,1-.36-.09.75.75,0,0,1-.3-1,2,2,0,0,0,.24-1,2.12,2.12,0,0,0-.31-1.1.74.74,0,0,1,1.26-.79,3.57,3.57,0,0,1,.12,3.57A.73.73,0,0,1,439.51,345.16Zm-114.83-2a.74.74,0,0,1-.38-1.38l2.56-1.48a.74.74,0,1,1,.75,1.28l-2.56,1.48A.74.74,0,0,1,324.68,343.18Zm111.11-3.32a.75.75,0,0,1-.38-.1l-2.55-1.5a.74.74,0,0,1,.75-1.28l2.55,1.5a.73.73,0,0,1,.27,1A.74.74,0,0,1,435.79,339.86Zm-104.72-.37a.72.72,0,0,1-.64-.37.73.73,0,0,1,.27-1l2.56-1.48a.74.74,0,0,1,1,.27.75.75,0,0,1-.27,1l-2.56,1.47A.71.71,0,0,1,331.07,339.49Zm98.35-3.36A.76.76,0,0,1,429,336l-2.55-1.49a.75.75,0,0,1-.26-1,.74.74,0,0,1,1-.26l2.55,1.49a.75.75,0,0,1-.37,1.39Zm-92-.33a.74.74,0,0,1-.37-1.38l2.56-1.48a.74.74,0,0,1,.74,1.29l-2.55,1.47A.75.75,0,0,1,337.46,335.8Zm85.59-3.41a.75.75,0,0,1-.38-.1l-2.55-1.49a.75.75,0,0,1-.26-1,.74.74,0,0,1,1-.26l2.55,1.49a.74.74,0,0,1-.37,1.38Zm-79.19-.28a.72.72,0,0,1-.64-.37.73.73,0,0,1,.27-1l2.56-1.48a.74.74,0,1,1,.74,1.28L344.23,332A.71.71,0,0,1,343.86,332.11Zm72.82-3.45a.75.75,0,0,1-.38-.1l-2.55-1.49a.75.75,0,0,1-.26-1,.74.74,0,0,1,1-.26l2.55,1.49a.74.74,0,0,1-.37,1.38Zm-66.43-.24a.74.74,0,0,1-.37-1.38l2.56-1.48a.74.74,0,0,1,1,.27.73.73,0,0,1-.27,1l-2.56,1.48A.69.69,0,0,1,350.25,328.42Zm60.06-3.49a.75.75,0,0,1-.38-.1l-2.55-1.49a.75.75,0,0,1,.75-1.29l2.55,1.5a.74.74,0,0,1-.37,1.38Zm-53.66-.2a.72.72,0,0,1-.64-.37.73.73,0,0,1,.27-1l2.55-1.48a.74.74,0,1,1,.75,1.28L357,324.63A.74.74,0,0,1,356.65,324.73Zm47.29-3.53a.76.76,0,0,1-.38-.11L401,319.6a.74.74,0,0,1,.75-1.28l2.55,1.49a.74.74,0,0,1,.27,1A.76.76,0,0,1,403.94,321.2ZM363,321a.74.74,0,0,1-.37-1.38l2.56-1.48a.74.74,0,0,1,1,.27.73.73,0,0,1-.27,1l-2.56,1.48A.69.69,0,0,1,363,321Zm34.53-3.57a.76.76,0,0,1-.38-.11l-2.55-1.49a.74.74,0,1,1,.76-1.28l2.54,1.49a.74.74,0,0,1,.27,1A.76.76,0,0,1,397.57,317.47Zm-28.13-.12a.74.74,0,0,1-.38-1.38l2.56-1.48a.75.75,0,0,1,1,.27.74.74,0,0,1-.28,1l-2.55,1.48A.74.74,0,0,1,369.44,317.35Zm21.76-3.62a.75.75,0,0,1-.38-.1l-2.55-1.49a.75.75,0,0,1-.26-1,.74.74,0,0,1,1-.26l2.55,1.49a.74.74,0,0,1,.27,1A.75.75,0,0,1,391.2,313.73Zm-15.37-.07a.72.72,0,0,1-.64-.37.73.73,0,0,1,.27-1L378,310.8a.74.74,0,0,1,1,.27.73.73,0,0,1-.27,1l-2.56,1.48A.71.71,0,0,1,375.83,313.66Z"/>
            <polygon class="cls-12" points="360.57 374.03 360.57 382.56 432.78 340.96 432.78 332.43 360.57 374.03"/>
            <polygon class="cls-3" points="360.6 374.03 360.6 382.56 311.97 354.21 311.97 345.71 360.6 374.03"/>
            <polygon class="cls-11" points="311.97 345.71 360.6 374.03 432.78 332.43 384.1 304.08 311.97 345.71"/>
            <polygon class="cls-12" points="311.97 206.81 311.97 344.18 384.18 302.59 384.18 165.21 311.97 206.81"/>
            <polygon class="cls-11" points="360.4 371.65 311.97 344.18 384.18 302.59 432.61 330.05 360.4 371.65"/>
            <path class="cls-13"
                  d="M321.72,246.78v94.64l37.86-21.82a2.31,2.31,0,0,0,1.15-2V226.71a1.4,1.4,0,0,0-2.09-1.21Z"/>
            <path class="cls-7"
                  d="M321.94,247.14l36.92-21.28a1.37,1.37,0,0,1,1.76.34,1.39,1.39,0,0,0-2-.7l-36.92,21.28v94.64l.22-.12Z"/>
            <polygon class="cls-11" points="330.91 252.5 330.91 341.04 323.21 336.64 323.21 248.14 330.91 252.5"/>
            <polygon class="cls-9" points="323.21 248.14 330.91 252.5 366.19 232.14 358.42 227.75 323.21 248.14"/>
            <path class="cls-7"
                  d="M330.13,251.43v94.64L368,324.25a2.29,2.29,0,0,0,1.16-2v-90.9a1.4,1.4,0,0,0-2.09-1.21Z"/>
            <path class="cls-7"
                  d="M330.62,251.46V346.1s-6.91-1.3-8.73-5l0,0V246.81h.25C323.94,250.5,330.62,251.46,330.62,251.46Z"/>
            <path class="cls-13"
                  d="M330.44,251.67v94.64l37.85-21.82a2.29,2.29,0,0,0,1.16-2V231.6a1.4,1.4,0,0,0-2.09-1.21Z"/>
            <path class="cls-17"
                  d="M330.47,251.67v94.64s-6.9-1.29-8.72-5l0,0v-94.6h0C323.55,250.38,330.47,251.67,330.47,251.67Z"/>
            <path class="cls-24"
                  d="M333.33,252.23v94.64l37.86-21.82a2.32,2.32,0,0,0,1.15-2V232.16a1.39,1.39,0,0,0-2.09-1.21Z"/>
            <path class="cls-26"
                  d="M333.55,252.59l36.92-21.28a1.36,1.36,0,0,1,1.76.34,1.38,1.38,0,0,0-2-.7l-36.92,21.28v94.64l.22-.13Z"/>
            <polygon class="cls-11" points="346.85 260.53 346.85 349.07 334.82 342.09 334.82 253.58 346.85 260.53"/>
            <polygon class="cls-9" points="334.82 253.58 346.85 260.53 382.13 240.17 370.03 233.19 334.82 253.58"/>
            <path class="cls-26"
                  d="M346.07,259.47V354.1l37.85-21.82a2.3,2.3,0,0,0,1.15-2v-90.9a1.4,1.4,0,0,0-2.09-1.21Z"/>
            <path class="cls-26"
                  d="M346.56,259.49v94.64l-3.73-.63a12.78,12.78,0,0,1-9.33-6.92l0,0V252.26h.25a12,12,0,0,0,9.09,6.6Z"/>
            <path class="cls-24"
                  d="M346.38,259.71v94.63l37.85-21.82a2.28,2.28,0,0,0,1.15-2v-90.9a1.39,1.39,0,0,0-2.08-1.21Z"/>
            <path class="cls-25"
                  d="M346.41,259.71v94.63l-3.72-.63a12.79,12.79,0,0,1-9.33-6.91l0-.05v-94.6h0a12.82,12.82,0,0,0,9.35,6.93Z"/>
            <path class="cls-5"
                  d="M348.28,261.67V356.3l37.86-21.82a2.3,2.3,0,0,0,1.15-2v-90.9a1.4,1.4,0,0,0-2.09-1.21Z"/>
            <path class="cls-4"
                  d="M348.5,262l36.92-21.28a1.37,1.37,0,0,1,1.76.34,1.39,1.39,0,0,0-2-.7l-36.92,21.29V356.3l.22-.12Z"/>
            <polygon class="cls-11" points="354.57 266.3 354.57 354.85 349.77 351.52 349.77 263.02 354.57 266.3"/>
            <polygon class="cls-9" points="349.77 263.02 354.57 266.3 389.85 245.95 384.98 242.63 349.77 263.02"/>
            <path class="cls-4"
                  d="M353.79,265.24v94.64l37.85-21.82a2.31,2.31,0,0,0,1.15-2V245.17A1.4,1.4,0,0,0,390.7,244Z"/>
            <path class="cls-4"
                  d="M354.28,265.27V359.9a7.37,7.37,0,0,1-5.83-3.88l0,0V261.69l.25,0A6.37,6.37,0,0,0,354.28,265.27Z"/>
            <path class="cls-5"
                  d="M354.1,265.48v94.64L392,338.3a2.31,2.31,0,0,0,1.15-2V245.41A1.39,1.39,0,0,0,391,244.2Z"/>
            <path class="cls-14"
                  d="M354.13,265.48v94.64a7.35,7.35,0,0,1-5.82-3.89l0,0v-94.6h0A7.4,7.4,0,0,0,354.13,265.48Z"/>
            <polygon class="cls-12" points="360.57 235.15 360.57 372.53 432.78 330.94 432.78 193.56 360.57 235.15"/>
            <path class="cls-27"
                  d="M370.65,317.31a2,2,0,0,1-2-1.95V248.18a5,5,0,0,1,2.53-4.37l50.51-29.1a2,2,0,0,1,1-.26,2,2,0,0,1,2,2v67.18a5,5,0,0,1-2.53,4.37l-50.51,29.1A2,2,0,0,1,370.65,317.31ZM422.7,215.53a.85.85,0,0,0-.43.12l-50.51,29.1a4,4,0,0,0-2,3.43v67.18a.87.87,0,0,0,1.3.75L421.59,287a4,4,0,0,0,2-3.43V216.4A.87.87,0,0,0,422.7,215.53Z"/>
            <path class="cls-3"
                  d="M370.64,317.31a2,2,0,0,1-1-.26l.54-.94a.85.85,0,0,0,.87,0L421.59,287a4,4,0,0,0,2-3.43V216.4a.87.87,0,0,0-.54-.81l.4-1a2,2,0,0,1,1.23,1.81v67.18a5,5,0,0,1-2.53,4.37l-50.51,29.1A1.92,1.92,0,0,1,370.64,317.31Z"/>
            <polygon class="cls-11" points="311.97 206.84 360.6 235.15 432.78 193.56 384.1 165.21 311.97 206.84"/>
            <path class="cls-3" d="M312,206.84V344.18l48.63,28.35V235.15ZM356.27,365l-40-23.3V214.37l40,23.27Z"/>
            <path class="cls-17"
                  d="M392.6,313.13l-22.24,12.81a2.24,2.24,0,0,0-1.13,1.95v.5a.92.92,0,0,0,1.38.8l22.24-12.81a2.26,2.26,0,0,0,1.12-1.95v-.5A.92.92,0,0,0,392.6,313.13Z"/>
            <path class="cls-17"
                  d="M399.48,310.47v.5a.92.92,0,0,0,1.37.8L423,299a2.25,2.25,0,0,0,1.13-1.95v-.51a.92.92,0,0,0-1.38-.79L400.6,308.52A2.25,2.25,0,0,0,399.48,310.47Z"/>
            <path class="cls-11"
                  d="M393,313a.92.92,0,0,1,.15.5v.5a2.25,2.25,0,0,1-1.12,2L369.8,328.78a.88.88,0,0,1-.41.12.92.92,0,0,0,1.22.29l22.24-12.81a2.26,2.26,0,0,0,1.12-1.95v-.5A.91.91,0,0,0,393,313Z"/>
            <path class="cls-11"
                  d="M423.15,295.65a1,1,0,0,1,.15.51v.5a2.25,2.25,0,0,1-1.12,1.95L400,311.36a.88.88,0,0,1-.41.12.92.92,0,0,0,1.22.29L423,299a2.25,2.25,0,0,0,1.13-1.95v-.51A.92.92,0,0,0,423.15,295.65Z"/>
            <path class="cls-17"
                  d="M392.6,319l-22.24,12.81a2.25,2.25,0,0,0-1.13,1.95v.5a.92.92,0,0,0,1.38.8l22.24-12.81a2.25,2.25,0,0,0,1.12-1.95v-.5A.92.92,0,0,0,392.6,319Z"/>
            <path class="cls-17"
                  d="M399.48,316.29v.5a.92.92,0,0,0,1.37.8L423,304.84a2.25,2.25,0,0,0,1.13-1.95v-.51a.92.92,0,0,0-1.38-.79L400.6,314.34A2.25,2.25,0,0,0,399.48,316.29Z"/>
            <path class="cls-11"
                  d="M393,318.84a.92.92,0,0,1,.15.5v.51a2.25,2.25,0,0,1-1.12,1.94L369.8,334.6a.88.88,0,0,1-.41.12.91.91,0,0,0,1.22.29l22.24-12.81a2.25,2.25,0,0,0,1.12-1.95v-.5A.91.91,0,0,0,393,318.84Z"/>
            <path class="cls-11"
                  d="M423.15,301.47a1,1,0,0,1,.15.51v.5a2.25,2.25,0,0,1-1.12,1.95L400,317.18a.88.88,0,0,1-.41.12.92.92,0,0,0,1.22.29L423,304.84a2.25,2.25,0,0,0,1.13-1.95v-.51A.92.92,0,0,0,423.15,301.47Z"/>
            <path class="cls-17"
                  d="M392.6,324.77l-22.24,12.81a2.25,2.25,0,0,0-1.13,1.95V340a.92.92,0,0,0,1.38.79L392.85,328a2.25,2.25,0,0,0,1.12-1.95v-.5A.92.92,0,0,0,392.6,324.77Z"/>
            <path class="cls-17"
                  d="M399.48,322.11v.5a.92.92,0,0,0,1.37.8L423,310.66a2.25,2.25,0,0,0,1.13-2v-.5a.92.92,0,0,0-1.38-.8L400.6,320.16A2.26,2.26,0,0,0,399.48,322.11Z"/>
            <path class="cls-11"
                  d="M393,324.66a.92.92,0,0,1,.15.5v.51a2.25,2.25,0,0,1-1.12,1.94L369.8,340.42a.88.88,0,0,1-.41.12.91.91,0,0,0,1.22.29L392.85,328a2.25,2.25,0,0,0,1.12-1.95v-.5A.91.91,0,0,0,393,324.66Z"/>
            <path class="cls-11"
                  d="M423.15,307.29a1,1,0,0,1,.15.51v.5a2.25,2.25,0,0,1-1.12,1.95L400,323a.88.88,0,0,1-.41.12.91.91,0,0,0,1.22.29L423,310.66a2.25,2.25,0,0,0,1.13-2v-.5A.92.92,0,0,0,423.15,307.29Z"/>
            <path class="cls-17"
                  d="M392.6,330.59,370.36,343.4a2.25,2.25,0,0,0-1.13,2v.51a.92.92,0,0,0,1.38.79l22.24-12.81a2.25,2.25,0,0,0,1.12-1.95v-.5A.92.92,0,0,0,392.6,330.59Z"/>
            <path class="cls-17"
                  d="M399.48,327.93v.51a.91.91,0,0,0,1.37.79L423,316.48a2.24,2.24,0,0,0,1.13-2V314a.92.92,0,0,0-1.38-.8L400.6,326A2.26,2.26,0,0,0,399.48,327.93Z"/>
            <path class="cls-11"
                  d="M393,330.48a.92.92,0,0,1,.15.5v.51a2.25,2.25,0,0,1-1.12,1.94L369.8,346.24a.88.88,0,0,1-.41.12.91.91,0,0,0,1.22.29l22.24-12.81a2.25,2.25,0,0,0,1.12-1.95v-.5A.91.91,0,0,0,393,330.48Z"/>
            <path class="cls-11"
                  d="M423.15,313.12a.92.92,0,0,1,.15.5v.51a2.25,2.25,0,0,1-1.12,1.94L400,328.82a.88.88,0,0,1-.41.12.91.91,0,0,0,1.22.29L423,316.48a2.24,2.24,0,0,0,1.13-2V314A.91.91,0,0,0,423.15,313.12Z"/>
            <path class="cls-17"
                  d="M392.6,336.41l-22.24,12.81a2.26,2.26,0,0,0-1.13,1.95v.51a.92.92,0,0,0,1.38.79l22.24-12.81a2.25,2.25,0,0,0,1.12-2v-.5A.92.92,0,0,0,392.6,336.41Z"/>
            <path class="cls-17"
                  d="M399.48,333.75v.51a.91.91,0,0,0,1.37.79L423,322.3a2.24,2.24,0,0,0,1.13-1.95v-.5a.92.92,0,0,0-1.38-.8L400.6,331.8A2.26,2.26,0,0,0,399.48,333.75Z"/>
            <path class="cls-11"
                  d="M393,336.3a.92.92,0,0,1,.15.5v.51a2.28,2.28,0,0,1-1.12,1.95L369.8,352.07a1,1,0,0,1-.41.11.91.91,0,0,0,1.22.29l22.24-12.81a2.25,2.25,0,0,0,1.12-2v-.5A.91.91,0,0,0,393,336.3Z"/>
            <path class="cls-11"
                  d="M423.15,318.94a.92.92,0,0,1,.15.5V320a2.25,2.25,0,0,1-1.12,1.94L400,334.64a.88.88,0,0,1-.41.12.91.91,0,0,0,1.22.29L423,322.3a2.24,2.24,0,0,0,1.13-1.95v-.5A.91.91,0,0,0,423.15,318.94Z"/>
            <path class="cls-17"
                  d="M392.6,342.24,370.36,355a2.26,2.26,0,0,0-1.13,1.95v.51a.92.92,0,0,0,1.38.79l22.24-12.81a2.25,2.25,0,0,0,1.12-2V343A.91.91,0,0,0,392.6,342.24Z"/>
            <path class="cls-17"
                  d="M399.48,339.57v.51a.91.91,0,0,0,1.37.79L423,328.12a2.24,2.24,0,0,0,1.13-1.95v-.5a.92.92,0,0,0-1.38-.8L400.6,337.62A2.28,2.28,0,0,0,399.48,339.57Z"/>
            <path class="cls-11"
                  d="M393,342.12a.92.92,0,0,1,.15.5v.51a2.26,2.26,0,0,1-1.12,1.95L369.8,357.89a1,1,0,0,1-.41.11.91.91,0,0,0,1.22.29l22.24-12.81a2.25,2.25,0,0,0,1.12-2V343A.91.91,0,0,0,393,342.12Z"/>
            <path class="cls-11"
                  d="M423.15,324.76a.92.92,0,0,1,.15.5v.51a2.25,2.25,0,0,1-1.12,1.94L400,340.47a1,1,0,0,1-.41.11.91.91,0,0,0,1.22.29L423,328.12a2.24,2.24,0,0,0,1.13-1.95v-.5A.91.91,0,0,0,423.15,324.76Z"/>
            <polygon class="cls-9" points="311.97 345.71 360.6 374.03 432.78 332.43 360.58 373.36 311.97 345.71"/>
            <polygon class="cls-9" points="311.97 206.84 360.6 235.15 432.78 193.56 360.63 234.62 311.97 206.84"/>
            <polygon class="cls-12" points="182.32 410.84 182.32 414.75 250.9 375.13 250.9 371.21 182.32 410.84"/>
            <polygon class="cls-3" points="182.33 410.84 182.33 414.75 160.01 401.74 160.01 397.84 182.33 410.84"/>
            <polygon class="cls-11" points="160.01 397.84 182.33 410.84 250.9 371.21 228.56 358.2 160.01 397.84"/>
            <path class="cls-12"
                  d="M224.61,375l1.91,1.1,9.39-5.49-1.9-1.1Zm-.36,4.93L221,381.73l1.91,1.1,3.21-1.84Zm-14.76,6L224.87,377l-1.9-1.09-15.38,8.88Zm21-9.66-4.6,2.72,1.9,1.1,4.6-2.72ZM227.05,365l-34.93,20.16,3.56,1.86,34.92-20.17ZM206,385.73l-6.81,3.94,1.9,1.1,6.81-3.94Zm13.44-3.05L203.21,392l1.91,1.1,16.17-9.34Z"/>
            <polygon class="cls-7"
                     points="225.44 375.43 234.01 370.42 235.09 371.05 235.91 370.56 234.01 369.47 224.61 374.96 225.44 375.43"/>
            <polygon class="cls-7"
                     points="222.97 375.9 207.59 384.79 208.42 385.26 222.97 376.86 224.05 377.48 224.88 377 222.97 375.9"/>
            <polygon class="cls-7"
                     points="205.95 385.73 199.14 389.67 199.96 390.14 205.95 386.69 207.03 387.31 207.85 386.83 205.95 385.73"/>
            <polygon class="cls-7"
                     points="227.05 365.97 229.74 367.37 230.6 366.87 227.05 365.02 192.12 385.18 192.99 385.63 227.05 365.97"/>
            <polygon class="cls-7"
                     points="225.89 378.94 226.7 379.42 230.49 377.18 231.57 377.8 232.39 377.32 230.49 376.22 225.89 378.94"/>
            <polygon class="cls-7"
                     points="221.03 381.73 221.86 382.21 224.25 380.85 225.32 381.46 226.15 380.99 224.25 379.89 221.03 381.73"/>
            <polygon class="cls-7"
                     points="203.21 392.02 204.04 392.5 219.39 383.63 220.47 384.25 221.29 383.78 219.39 382.68 203.21 392.02"/>
            <path class="cls-8"
                  d="M184.11,405.26l-11.66-6.73a.74.74,0,0,1-.37-.64.73.73,0,0,1,.37-.64l11.74-6.78a.7.7,0,0,1,.74,0l11.66,6.73a.74.74,0,0,1,.37.64.73.73,0,0,1-.37.64l-11.74,6.78a.69.69,0,0,1-.37.1A.74.74,0,0,1,184.11,405.26Zm.45-13.3-10.26,5.93,10.18,5.88,10.26-5.93Z"/>
            <path class="cls-17"
                  d="M172.22,398.3a.81.81,0,0,1,.23-.22l11.74-6.78a.75.75,0,0,1,.74,0L196.59,398a.69.69,0,0,1,.23.22.75.75,0,0,0,.14-.42.74.74,0,0,0-.37-.64l-11.66-6.73a.7.7,0,0,0-.74,0l-11.74,6.78a.73.73,0,0,0-.37.64A.75.75,0,0,0,172.22,398.3Z"/>
            <polygon class="cls-17"
                     points="184.48 404.6 194.74 398.68 194.02 398.26 184.48 403.77 175.02 398.3 174.3 398.72 184.48 404.6"/>
            <path class="cls-8"
                  d="M112.85,374.69l-7.1-4.11a.44.44,0,0,1-.23-.39.45.45,0,0,1,.23-.39l7.15-4.12a.41.41,0,0,1,.45,0l7.11,4.1a.46.46,0,0,1,0,.78l-7.16,4.13a.43.43,0,0,1-.22.06A.46.46,0,0,1,112.85,374.69Zm.27-8.1-6.25,3.6,6.21,3.59,6.25-3.61Z"/>
            <path class="cls-12"
                  d="M137.44,356.21l1.16.67,5.72-3.35-1.15-.67Zm-.22,3-2,1.12,1.16.67,2-1.12Zm-9,3.65,9.37-5.41-1.16-.67-9.37,5.41ZM141,357l-2.8,1.65,1.16.67,2.8-1.66Zm-2.09-6.83-21.28,12.28,2.17,1.13,21.27-12.28Zm-12.86,12.62-4.15,2.4,1.16.67,4.15-2.4Zm8.19-1.86-9.86,5.69,1.16.67,9.86-5.69Z"/>
            <path class="cls-12"
                  d="M150.77,363.54l1.16.67,5.72-3.35-1.16-.66Zm-.23,3-1.95,1.12,1.15.67,2-1.13Zm-9,3.65,9.37-5.41-1.16-.67-9.37,5.41Zm12.78-5.89-2.8,1.66,1.16.67,2.8-1.66Zm-2.09-6.83L131,369.77l2.16,1.13,21.28-12.29ZM139.4,370.1l-4.15,2.4,1.16.67,4.15-2.4Zm8.19-1.86-9.86,5.69,1.16.67,9.85-5.69Z"/>
            <path class="cls-12"
                  d="M164.27,371.05l1.16.67,5.72-3.34-1.15-.67Zm-.22,3-2,1.12,1.16.67,2-1.12Zm-9,3.65,9.37-5.41-1.16-.67L153.9,377Zm12.79-5.89-2.8,1.66,1.16.67,2.8-1.66ZM165.76,365l-21.28,12.28,2.17,1.13,21.27-12.28ZM152.9,377.62,148.75,380l1.16.67,4.15-2.39Zm8.19-1.86-9.85,5.69,1.15.67,9.86-5.69Z"/>
            <path class="cls-12"
                  d="M177.69,378.48l1.16.66,5.72-3.34-1.16-.67Zm-.23,3-2,1.12,1.15.67,2-1.12Zm-9,3.65,9.37-5.41-1.16-.67-9.37,5.41Zm12.78-5.88-2.8,1.65,1.16.67,2.8-1.66Zm-2.09-6.83L157.9,384.7l2.16,1.13,21.28-12.28ZM166.32,385l-4.15,2.4,1.16.66,4.15-2.39Zm8.19-1.86-9.86,5.69,1.16.67,9.85-5.69Z"/>
            <path class="cls-8"
                  d="M126.12,382.12,119,378a.44.44,0,0,1-.23-.39.45.45,0,0,1,.23-.39l7.15-4.13a.45.45,0,0,1,.45,0l7.11,4.11a.46.46,0,0,1,0,.78l-7.16,4.13a.43.43,0,0,1-.22.06A.46.46,0,0,1,126.12,382.12Zm.27-8.1-6.25,3.6,6.21,3.59,6.25-3.61Z"/>
            <path class="cls-8"
                  d="M139.6,389.51l-7.11-4.1a.46.46,0,0,1,0-.78l7.16-4.13a.45.45,0,0,1,.45,0l7.1,4.1a.45.45,0,0,1,0,.78l-7.15,4.13a.46.46,0,0,1-.22.06A.46.46,0,0,1,139.6,389.51Zm.27-8.1L133.62,385l6.21,3.58,6.24-3.61Z"/>
            <path class="cls-8"
                  d="M152.87,396.94l-7.11-4.1a.46.46,0,0,1,0-.78l7.16-4.13a.45.45,0,0,1,.45,0l7.1,4.1a.45.45,0,0,1,0,.78l-7.15,4.13a.46.46,0,0,1-.22.06A.46.46,0,0,1,152.87,396.94Zm.27-8.1-6.25,3.61L153.1,396l6.24-3.61Z"/>
            <polygon class="cls-25"
                     points="108.04 370.6 116.33 371.4 113.73 362.88 110.1 364.03 113.31 369.66 109.31 369.13 108.04 370.6"/>
            <polygon class="cls-25"
                     points="121.27 378.11 129.57 378.91 126.97 370.39 123.33 371.54 126.55 377.17 122.54 376.64 121.27 378.11"/>
            <polygon class="cls-24"
                     points="187.94 395.68 180.25 370.41 169.47 373.82 167.91 371.99 167.91 374.31 178.83 393.41 165.23 391.6 162.78 394.44 160.93 394.26 160.93 396.59 189.05 399.31 189.05 396.99 187.94 395.68"/>
            <polygon class="cls-26"
                     points="160.93 394.26 189.05 396.99 180.25 368.09 167.91 371.99 178.83 391.09 165.23 389.28 160.93 394.26"/>
            <path class="cls-25"
                  d="M256.59,84.76a.74.74,0,0,1-.73-.61c-.09-.49-.17-1-.26-1.47a.74.74,0,0,1,1.47-.24c.08.48.16,1,.25,1.45a.74.74,0,0,1-.6.86Z"/>
            <path class="cls-25"
                  d="M255.68,78.76a.74.74,0,0,1-.74-.65q-.19-1.53-.33-3.06a.74.74,0,0,1,.67-.81.75.75,0,0,1,.81.68c.09,1,.2,2,.32,3a.74.74,0,0,1-.64.83ZM255,71.15a.74.74,0,0,1-.74-.71c0-1-.08-2-.09-3.07a.75.75,0,0,1,.73-.76h0a.74.74,0,0,1,.74.74c0,1,0,2,.09,3a.74.74,0,0,1-.71.77Zm0-7.63h0a.75.75,0,0,1-.71-.78c0-1,.11-2.07.2-3.07a.77.77,0,0,1,.8-.68.74.74,0,0,1,.68.8c-.09,1-.15,2-.19,3A.75.75,0,0,1,255,63.52Zm.72-7.6h-.11a.73.73,0,0,1-.62-.84c.15-1,.33-2,.53-3a.74.74,0,1,1,1.45.29c-.19,1-.36,2-.52,3A.74.74,0,0,1,255.73,55.92Zm1.59-7.46-.2,0a.75.75,0,0,1-.51-.92c.29-1,.6-2,.94-2.95a.74.74,0,0,1,.94-.46.75.75,0,0,1,.46.95c-.33.93-.63,1.89-.91,2.87A.75.75,0,0,1,257.32,48.46ZM260,41.3a.71.71,0,0,1-.32-.07.74.74,0,0,1-.36-1c.45-1,.92-1.88,1.42-2.77a.74.74,0,1,1,1.29.72c-.47.86-.93,1.76-1.36,2.67A.74.74,0,0,1,260,41.3Zm68-5.38a.7.7,0,0,1-.43-.15c-.82-.59-1.65-1.18-2.48-1.75a.74.74,0,1,1,.84-1.22c.84.57,1.68,1.17,2.51,1.77a.75.75,0,0,1,.16,1A.74.74,0,0,1,328,35.92Zm-64.14-1.2a.74.74,0,0,1-.6-1.18c.62-.85,1.28-1.66,1.95-2.43a.74.74,0,1,1,1.12,1c-.65.73-1.27,1.52-1.87,2.33A.73.73,0,0,1,263.82,34.72Zm57.81-3.06a.77.77,0,0,1-.39-.11c-.73-.45-1.46-.89-2.2-1.31l-.41-.24a.74.74,0,0,1,.74-1.29l.42.24c.74.43,1.48.88,2.23,1.33a.75.75,0,0,1-.39,1.38ZM269,29.11a.73.73,0,0,1-.56-.25.74.74,0,0,1,.08-1.05A30.11,30.11,0,0,1,271,25.89a.74.74,0,0,1,.85,1.21c-.8.57-1.59,1.18-2.34,1.83A.76.76,0,0,1,269,29.11Zm46-1.17a.76.76,0,0,1-.33-.08c-.92-.46-1.83-.89-2.74-1.3a.74.74,0,1,1,.61-1.35c.92.41,1.85.86,2.79,1.32a.74.74,0,0,1-.33,1.41ZM275.3,24.89a.74.74,0,0,1-.33-1.4c.92-.46,1.89-.89,2.86-1.26a.74.74,0,1,1,.53,1.39c-.93.35-1.85.76-2.73,1.19A.64.64,0,0,1,275.3,24.89Zm32.66,0a.85.85,0,0,1-.26-.05c-1-.36-1.91-.68-2.85-1a.75.75,0,0,1-.49-.93.76.76,0,0,1,.94-.49c1,.31,1.94.64,2.92,1a.74.74,0,0,1,.44.95A.75.75,0,0,1,308,24.89Zm-7.31-2.21h-.17c-1-.23-2-.43-3-.59a.74.74,0,0,1-.61-.85.74.74,0,0,1,.86-.61c1,.16,2,.36,3,.6a.74.74,0,0,1-.17,1.46Zm-18.17-.33a.74.74,0,0,1-.16-1.47c1-.23,2-.41,3.06-.55a.75.75,0,0,1,.84.64.74.74,0,0,1-.64.83c-1,.13-2,.31-2.94.53Zm10.63-.78h-.05c-.88,0-1.74-.08-2.59-.08h-.42A.74.74,0,0,1,290,20h.43c.88,0,1.78,0,2.68.08a.75.75,0,0,1,0,1.49Z"/>
            <path class="cls-25"
                  d="M332.83,39.68a.68.68,0,0,1-.47-.17l-1.15-.92a.74.74,0,1,1,.93-1.16l1.16.94a.74.74,0,0,1-.47,1.31Z"/>
            <path class="cls-25"
                  d="M243.45,427.27a.74.74,0,0,1-.74-.72.75.75,0,0,1,.72-.77,22.35,22.35,0,0,0,2.87-.25.74.74,0,0,1,.84.62.75.75,0,0,1-.62.85,25.06,25.06,0,0,1-3.05.27ZM239,427h-.1a27.42,27.42,0,0,1-3-.59.73.73,0,0,1-.53-.9.74.74,0,0,1,.9-.54,27.22,27.22,0,0,0,2.83.56.73.73,0,0,1,.63.84A.74.74,0,0,1,239,427Zm11.7-1.15a.74.74,0,0,1-.69-.47.75.75,0,0,1,.42-1,16.36,16.36,0,0,0,2.31-1.09l.26-.15a.74.74,0,1,1,.74,1.28l-.26.15a17.07,17.07,0,0,1-2.51,1.2A.86.86,0,0,1,250.71,425.88Zm-18.8-.93a.71.71,0,0,1-.32-.07c-.57-.27-1.13-.56-1.67-.87l-1-.58a.74.74,0,1,1,.75-1.28l1,.58c.49.28,1,.56,1.55.81a.75.75,0,0,1,.36,1A.73.73,0,0,1,231.91,425Zm25.32-2.59a.75.75,0,0,1-.37-1.39l2.58-1.48a.74.74,0,1,1,.74,1.28l-2.57,1.49A.86.86,0,0,1,257.23,422.36Zm-31.76-1.09a.76.76,0,0,1-.38-.11l-2.56-1.5a.75.75,0,0,1-.26-1,.73.73,0,0,1,1-.26l2.56,1.5a.75.75,0,0,1,.27,1A.74.74,0,0,1,225.47,421.27Zm38.19-2.63a.74.74,0,0,1-.37-1.38l2.57-1.49a.75.75,0,0,1,1,.27.76.76,0,0,1-.27,1L264,418.54A.69.69,0,0,1,263.66,418.64Zm6.43-3.71a.76.76,0,0,1-.64-.37.75.75,0,0,1,.27-1l2.57-1.48a.74.74,0,1,1,.74,1.28l-2.57,1.49A.79.79,0,0,1,270.09,414.93Zm6.43-3.72a.74.74,0,0,1-.64-.37.73.73,0,0,1,.27-1l2.57-1.49a.74.74,0,0,1,1,.27.73.73,0,0,1-.27,1l-2.57,1.49A.69.69,0,0,1,276.52,411.21ZM283,407.5a.75.75,0,0,1-.37-1.39l2.57-1.48a.74.74,0,1,1,.74,1.28l-2.57,1.49A.86.86,0,0,1,283,407.5Zm6.43-3.72a.74.74,0,0,1-.37-1.38l2.57-1.49a.74.74,0,0,1,.74,1.29l-2.57,1.48A.74.74,0,0,1,289.38,403.78Zm6.43-3.71a.77.77,0,0,1-.65-.37.76.76,0,0,1,.27-1L298,397.2a.74.74,0,1,1,.75,1.28L296.18,400A.74.74,0,0,1,295.81,400.07Zm6.42-3.72a.74.74,0,0,1-.37-1.38l2.57-1.49a.75.75,0,0,1,.75,1.29l-2.58,1.48A.69.69,0,0,1,302.23,396.35Zm6.43-3.71a.76.76,0,0,1-.64-.37.75.75,0,0,1,.27-1l2.57-1.48a.74.74,0,0,1,.74,1.28L309,392.54A.69.69,0,0,1,308.66,392.64Zm6.43-3.72a.72.72,0,0,1-.64-.37.73.73,0,0,1,.27-1l2.57-1.49a.74.74,0,0,1,.74,1.29l-2.57,1.48A.71.71,0,0,1,315.09,388.92Zm6.43-3.71a.72.72,0,0,1-.64-.37.74.74,0,0,1,.27-1l2.57-1.48a.74.74,0,0,1,.74,1.28l-2.57,1.49A.74.74,0,0,1,321.52,385.21Z"/>
            <path class="cls-25"
                  d="M254.87,88.71a6.53,6.53,0,0,0,3,5.1,2.55,2.55,0,0,0,1.27.39c.92,0,1.5-.75,1.5-2a6.51,6.51,0,0,0-3-5.09,2.63,2.63,0,0,0-1.28-.4C255.44,86.74,254.87,87.5,254.87,88.71Z"/>
            <polygon class="cls-25" points="332.51 35.58 335.88 41.42 329.81 40.3 332.51 35.58"/>
            <ellipse class="cls-25" cx="221.54" cy="418.12" rx="3.56" ry="2.08"/>
            <path class="cls-14"
                  d="M86.83,343.16c0,1.14,1.6,2.07,3.56,2.07S94,344.3,94,343.16s-1.6-2.08-3.57-2.08S86.83,342,86.83,343.16Z"/>
            <polygon class="cls-25" points="322.96 380.31 327.45 383.3 330.44 378.21 322.96 380.31"/>
            <polygon class="cls-14" points="108.56 312.26 113.05 315.25 116.04 310.17 108.56 312.26"/>
            <path class="cls-14"
                  d="M440.39,211.49a.75.75,0,0,1-.75-.74v-3a.75.75,0,0,1,.75-.74.74.74,0,0,1,.74.74v3A.74.74,0,0,1,440.39,211.49Zm0-7.42a.75.75,0,0,1-.75-.75v-3a.75.75,0,0,1,.75-.75.74.74,0,0,1,.74.75v3A.74.74,0,0,1,440.39,204.07Zm0-7.43a.75.75,0,0,1-.75-.74v-2.09a7,7,0,0,0,0-.8.74.74,0,1,1,1.48-.15c0,.32.05.63.05.95v2.09A.74.74,0,0,1,440.39,196.64Zm-1.34-7.2a.75.75,0,0,1-.66-.4,10.36,10.36,0,0,0-1.57-2.27.74.74,0,1,1,1.08-1,11.27,11.27,0,0,1,1.81,2.59.74.74,0,0,1-.32,1A.69.69,0,0,1,439.05,189.44Zm-5.35-4.93a.79.79,0,0,1-.37-.1l-2.57-1.49a.74.74,0,0,1,.74-1.29l2.57,1.49a.74.74,0,0,1,.27,1A.76.76,0,0,1,433.7,184.51Zm-6.43-3.72a.71.71,0,0,1-.37-.1l-2.57-1.49a.74.74,0,1,1,.74-1.28l2.57,1.48a.74.74,0,0,1,.27,1A.72.72,0,0,1,427.27,180.79Z"/>
            <path class="cls-25"
                  d="M37,142a.74.74,0,0,1-.74-.74v-3a.74.74,0,1,1,1.48,0v3A.74.74,0,0,1,37,142Zm0-7.42a.75.75,0,0,1-.74-.75v-3a.74.74,0,1,1,1.48,0v3A.75.75,0,0,1,37,134.59Zm0-7.43a.74.74,0,0,1-.74-.74v-3a.74.74,0,1,1,1.48,0v3A.74.74,0,0,1,37,127.16Zm0-7.42h0a.75.75,0,0,1-.73-.76,21.11,21.11,0,0,1,.27-3.06.74.74,0,0,1,1.47.24,18.32,18.32,0,0,0-.25,2.85A.75.75,0,0,1,37,119.74Zm23.39-4a.71.71,0,0,1-.37-.1l-2.57-1.49a.74.74,0,1,1,.74-1.28l2.57,1.49a.73.73,0,0,1,.27,1A.72.72,0,0,1,60.43,115.74Zm-21.76-3.18a.77.77,0,0,1-.35-.08.75.75,0,0,1-.3-1A9.7,9.7,0,0,1,40,108.92a.75.75,0,0,1,1,0,.74.74,0,0,1,0,1,8.2,8.2,0,0,0-1.64,2.15A.74.74,0,0,1,38.67,112.56ZM54,112a.74.74,0,0,1-.37-.1l-2.57-1.48a.76.76,0,0,1-.27-1,.75.75,0,0,1,1-.27l2.57,1.49A.74.74,0,0,1,54,112Zm-6.6-3.33-.19,0a7.61,7.61,0,0,0-2.69-.24.73.73,0,0,1-.8-.67.74.74,0,0,1,.66-.81,9.32,9.32,0,0,1,3.2.28.74.74,0,0,1,.53.91A.73.73,0,0,1,47.4,108.69Z"/>
            <path class="cls-3"
                  d="M447.16,191a.75.75,0,0,1-.74-.75,10.37,10.37,0,0,0-.4-2.73.74.74,0,0,1,1.43-.4,11.72,11.72,0,0,1,.45,3.13A.75.75,0,0,1,447.16,191Zm-2.31-7a.75.75,0,0,1-.61-.32,8.89,8.89,0,0,0-1.86-2,.74.74,0,0,1-.15-1,.75.75,0,0,1,1-.15,10.18,10.18,0,0,1,2.19,2.32.74.74,0,0,1-.61,1.17ZM439,179.65a.86.86,0,0,1-.37-.1l-2.57-1.49a.74.74,0,0,1,.74-1.29l2.57,1.49a.75.75,0,0,1-.37,1.39Zm-6.43-3.72a.74.74,0,0,1-.37-.1l-2.57-1.49a.74.74,0,1,1,.75-1.28l2.57,1.48a.76.76,0,0,1,.27,1A.75.75,0,0,1,432.56,175.93Z"/>
            <path class="cls-3"
                  d="M31,127.12a.74.74,0,0,1-.74-.74v-3a.74.74,0,0,1,1.48,0v3A.74.74,0,0,1,31,127.12Zm0-7.47a.7.7,0,0,1-.74-.69c0-1.09,0-2.08.12-3a.73.73,0,0,1,.8-.68.75.75,0,0,1,.68.8c-.08.91-.12,1.86-.12,2.82A.77.77,0,0,1,31,119.65Zm.85-7.31a.65.65,0,0,1-.19,0,.75.75,0,0,1-.53-.9,19.61,19.61,0,0,1,1-2.92.74.74,0,1,1,1.36.58,19.13,19.13,0,0,0-.9,2.71A.75.75,0,0,1,31.84,112.34Zm3.22-6.61a.75.75,0,0,1-.57-1.22,11.66,11.66,0,0,1,2.32-2.14.74.74,0,0,1,.85,1.21,10.57,10.57,0,0,0-2,1.88A.74.74,0,0,1,35.06,105.73Zm16.18-1.43a.69.69,0,0,1-.37-.1,20.26,20.26,0,0,0-2.57-1.26.74.74,0,0,1,.55-1.38,21.33,21.33,0,0,1,2.76,1.36.74.74,0,0,1-.37,1.38ZM41.31,102a.74.74,0,0,1-.13-1.47,11.76,11.76,0,0,1,3.15-.12.74.74,0,1,1-.13,1.48,10.52,10.52,0,0,0-2.76.1Z"/>
            <path class="cls-14"
                  d="M86.22,341a.71.71,0,0,1-.37-.1,11.7,11.7,0,0,1-1.32-.89.74.74,0,1,1,.91-1.17,11,11,0,0,0,1.15.77.75.75,0,0,1-.37,1.39Z"/>
            <path class="cls-14"
                  d="M82.6,337a.74.74,0,0,1-.71-.52,6.08,6.08,0,0,1-.25-1.7,6.59,6.59,0,0,1,.16-1.39.74.74,0,0,1,1.45.34,4.7,4.7,0,0,0-.12,1.05,4.41,4.41,0,0,0,.18,1.26.74.74,0,0,1-.49.93Zm2-6.21a.73.73,0,0,1-.51-.21.74.74,0,0,1,0-1,14.75,14.75,0,0,1,2.21-1.86.74.74,0,0,1,1,.19.75.75,0,0,1-.19,1,11.67,11.67,0,0,0-2,1.66A.76.76,0,0,1,84.55,330.74Zm5.61-3.87a.72.72,0,0,1-.64-.37.75.75,0,0,1,.26-1l2.37-1.37a.74.74,0,0,1,1,.26.75.75,0,0,1-.26,1l-2.37,1.38A.71.71,0,0,1,90.16,326.87Zm5.91-3.44a.75.75,0,0,1-.38-1.39l2.37-1.37a.73.73,0,0,1,1,.26.75.75,0,0,1-.26,1l-2.37,1.37A.72.72,0,0,1,96.07,323.43ZM102,320a.75.75,0,0,1-.38-1.39l2.37-1.38a.74.74,0,0,1,1,.27.75.75,0,0,1-.26,1l-2.37,1.37A.7.7,0,0,1,102,320Z"/>
            <path class="cls-14"
                  d="M107.9,316.54a.75.75,0,0,1-.37-1.39l1.28-.74a.75.75,0,0,1,1,.26.76.76,0,0,1-.27,1l-1.28.75A.75.75,0,0,1,107.9,316.54Z"/>
        </g>
    </g>
</svg>