<svg xmlns="http://www.w3.org/2000/svg" xmlns:xlink="http://www.w3.org/1999/xlink" viewBox="0 0 1920 1080">
    <defs>
        <style>
            .cls-1,.cls-10,.cls-11,.cls-12,.cls-13,.cls-14,.cls-15,.cls-16,.cls-17,.cls-18,.cls-19,.cls-20,.cls-21,.cls-22,.cls-23,.cls-24,.cls-25,.cls-7,.cls-8,.cls-9{fill:none;}.cls-2{isolation:isolate;}.cls-3{fill:url(#linear-gradient);}.cls-4{fill:#2346aa;opacity:0.1;}.cls-5{fill:#07024d;opacity:0.2;mix-blend-mode:multiply;}.cls-6{clip-path:url(#clip-path);}.cls-10,.cls-11,.cls-12,.cls-13,.cls-14,.cls-15,.cls-16,.cls-17,.cls-18,.cls-19,.cls-20,.cls-21,.cls-22,.cls-23,.cls-24,.cls-25,.cls-7,.cls-8,.cls-9{stroke-miterlimit:10;}.cls-10,.cls-11,.cls-12,.cls-13,.cls-14,.cls-15,.cls-16,.cls-17,.cls-18,.cls-19,.cls-20,.cls-21,.cls-22,.cls-23,.cls-24,.cls-25,.cls-7,.cls-9{stroke-width:3px;}.cls-7{stroke:url(#linear-gradient-2);}.cls-8{stroke:#0df1f9;stroke-width:2px;}.cls-9{stroke:url(#linear-gradient-3);}.cls-10{stroke:url(#linear-gradient-4);}.cls-11{stroke:url(#linear-gradient-5);}.cls-12{stroke:url(#linear-gradient-6);}.cls-13{stroke:url(#linear-gradient-7);}.cls-14{stroke:url(#linear-gradient-8);}.cls-15{stroke:url(#linear-gradient-9);}.cls-16{stroke:url(#linear-gradient-10);}.cls-17{stroke:url(#linear-gradient-11);}.cls-18{stroke:url(#linear-gradient-12);}.cls-19{stroke:url(#linear-gradient-13);}.cls-20{stroke:url(#linear-gradient-14);}.cls-21{stroke:url(#linear-gradient-15);}.cls-22{stroke:url(#linear-gradient-16);}.cls-23{stroke:url(#linear-gradient-17);}.cls-24{stroke:url(#linear-gradient-18);}.cls-25{stroke:url(#linear-gradient-19);}.cls-26{opacity:0.5;}.cls-26,.cls-28{mix-blend-mode:color-dodge;}.cls-27{fill:#9fcfff;mix-blend-mode:screen;}
        </style>
        <linearGradient id="linear-gradient" y1="540" x2="1920" y2="540" gradientUnits="userSpaceOnUse">
            <stop offset="0" stop-color="#090450"/>
            <stop offset="1" stop-color="#051c63"/>
        </linearGradient>
        <clipPath id="clip-path">
            <rect id="SVGID" class="cls-1" width="1920" height="1079.93"/>
        </clipPath>
        <linearGradient id="linear-gradient-2" x1="-1842.65" y1="181.55" x2="-895.44" y2="181.55"
                        gradientTransform="translate(683.92 -606.7) rotate(-45)" gradientUnits="userSpaceOnUse">
            <stop offset="0.01" stop-color="#050223" stop-opacity="0"/>
            <stop offset="1" stop-color="#0cf9ff"/>
        </linearGradient>
        <linearGradient id="linear-gradient-3" x1="-1906.84" y1="475.2" x2="-986.49" y2="475.2"
                        xlink:href="#linear-gradient-2"/>
        <linearGradient id="linear-gradient-4" x1="-938.07" y1="133.71" x2="132.7" y2="133.71"
                        gradientTransform="translate(683.92 -606.7) rotate(-45)" gradientUnits="userSpaceOnUse">
            <stop offset="0" stop-color="#0cf9ff"/>
            <stop offset="0.99" stop-color="#050223" stop-opacity="0"/>
        </linearGradient>
        <linearGradient id="linear-gradient-5" x1="-1388.75" y1="457.96" x2="-491.6" y2="457.96"
                        gradientTransform="matrix(-0.71, 0.71, 0.71, 0.71, -354.79, 111.73)"
                        xlink:href="#linear-gradient-2"/>
        <linearGradient id="linear-gradient-6" x1="-2054.01" y1="1507.38" x2="-1156.86" y2="1507.38"
                        gradientTransform="matrix(-0.71, 0.71, 0.71, 0.71, -354.79, 111.73)"
                        xlink:href="#linear-gradient-2"/>
        <linearGradient id="linear-gradient-7" x1="-1541.53" y1="-3237.3" x2="-621.18" y2="-3237.3"
                        gradientTransform="translate(-2188.8 -1722.28) rotate(135)" xlink:href="#linear-gradient-2"/>
        <linearGradient id="linear-gradient-8" x1="-2095.22" y1="-3432.96" x2="-1198.07" y2="-3432.96"
                        gradientTransform="matrix(0.71, -0.71, -0.71, -0.71, -1150.1, -2440.71)"
                        xlink:href="#linear-gradient-2"/>
        <linearGradient id="linear-gradient-9" x1="-2204.12" y1="868.09" x2="-1283.78" y2="868.09"
                        gradientTransform="translate(682.06 -547.1) rotate(-45)" xlink:href="#linear-gradient-2"/>
        <linearGradient id="linear-gradient-10" x1="-199.11" y1="-3373.09" x2="698.05" y2="-3373.09"
                        gradientTransform="translate(-1200.43 -1208.7) rotate(135)" xlink:href="#linear-gradient-4"/>
        <linearGradient id="linear-gradient-11" x1="-1133.07" y1="822.86" x2="-235.92" y2="822.86"
                        gradientTransform="translate(1779.46 -571.3) rotate(-45)" xlink:href="#linear-gradient-4"/>
        <linearGradient id="linear-gradient-12" x1="-1597.95" y1="-3619.52" x2="-594.01" y2="-3619.52"
                        gradientTransform="translate(-1200.43 -1208.7) rotate(135)" xlink:href="#linear-gradient-2"/>
        <linearGradient id="linear-gradient-13" x1="-1282.74" y1="-3576.11" x2="-389.77" y2="-3576.11"
                        gradientTransform="translate(-1200.43 -1208.7) rotate(135)" xlink:href="#linear-gradient-2"/>
        <linearGradient id="linear-gradient-14" x1="-854.92" y1="680.02" x2="-556.27" y2="680.02"
                        gradientTransform="translate(1672.28 -93.12) rotate(-45)" xlink:href="#linear-gradient-2"/>
        <linearGradient id="linear-gradient-15" x1="-1306.58" y1="630.13" x2="-658.02" y2="630.13"
                        gradientTransform="translate(1672.28 -93.12) rotate(-45)" xlink:href="#linear-gradient-4"/>
        <linearGradient id="linear-gradient-16" x1="-1914.3" y1="701.2" x2="-843.54" y2="701.2"
                        gradientTransform="translate(1672.28 -93.12) rotate(-45)" xlink:href="#linear-gradient-2"/>
        <linearGradient id="linear-gradient-17" x1="-598.89" y1="632.18" x2="471.87" y2="632.18"
                        gradientTransform="translate(1672.28 -93.12) rotate(-45)" xlink:href="#linear-gradient-4"/>
        <linearGradient id="linear-gradient-18" x1="-1258.78" y1="-3121.04" x2="-254.84" y2="-3121.04"
                        gradientTransform="translate(-2188.8 -1722.28) rotate(135)" xlink:href="#linear-gradient-2"/>
        <linearGradient id="linear-gradient-19" x1="-943.57" y1="-3077.64" x2="-50.6" y2="-3077.64"
                        gradientTransform="translate(-2188.8 -1722.28) rotate(135)" xlink:href="#linear-gradient-2"/>
    </defs>
    <g class="cls-2">
        <g id="Layer_3">
            <g id="banner_bg">
                <rect class="cls-3" width="1920" height="1080"/>
                <path class="cls-4"
                      d="M740.57,913.22A503.55,503.55,0,0,1,712.31,1080H0V468.29a501.34,501.34,0,0,1,236.71-59C515,409.32,740.57,634.92,740.57,913.22Z"/>
                <path class="cls-5"
                      d="M1920,0V738.16c-99.14,104-239,168.73-394,168.73-300.68,0-544.45-243.77-544.45-544.44A542.41,542.41,0,0,1,1119.72,0Z"/>
            </g>
            <g class="cls-6">
                <polyline class="cls-7" points="-500.14 815.12 80.83 234.14 108.95 244.01 188.63 164.33"/>
                <path class="cls-8" d="M188.63,164.33a12.58,12.58,0,1,0,0-17.79A12.57,12.57,0,0,0,188.63,164.33Z"/>
                <polyline class="cls-9" points="-320.24 1085.8 260.74 504.82 260.74 472.18 314.22 418.7"/>
                <path class="cls-8" d="M312.62,420.31a12.58,12.58,0,1,0,0-17.8A12.58,12.58,0,0,0,312.62,420.31Z"/>
                <path class="cls-8"
                      d="M-14.89,368.16a12.6,12.6,0,0,0,17.8,0,12.6,12.6,0,0,0,0-17.8,12.6,12.6,0,0,0-17.8,0A12.6,12.6,0,0,0-14.89,368.16Z"/>
                <polyline class="cls-10" points="866.97 -611.3 285.99 -30.32 276.81 0.13 120.47 156.47"/>
                <path class="cls-8" d="M121,155.93a12.58,12.58,0,1,0,0,17.79A12.57,12.57,0,0,0,121,155.93Z"/>
                <polyline class="cls-11" points="961.18 -536.27 473.47 -48.56 432.83 -48.56 306.49 77.78"/>
                <path class="cls-8" d="M308,76.24a12.58,12.58,0,1,1-17.79,0A12.58,12.58,0,0,1,308,76.24Z"/>
                <polyline class="cls-12" points="2173.64 -264.63 1685.92 223.08 1645.29 223.08 1518.94 349.42"/>
                <path class="cls-8" d="M1520.49,347.88a12.58,12.58,0,1,1-17.8,0A12.58,12.58,0,0,1,1520.49,347.88Z"/>
                <polyline class="cls-13" points="1182.16 -531.36 601.18 49.62 601.18 82.26 547.7 135.74"/>
                <path class="cls-8" d="M549.3,134.13a12.58,12.58,0,1,0,0,17.8A12.58,12.58,0,0,0,549.3,134.13Z"/>
                <polyline class="cls-14" points="-214.34 1458.1 273.38 970.39 314.02 970.39 440.36 844.04"/>
                <path class="cls-8" d="M438.82,845.59a12.58,12.58,0,1,1,17.79,0A12.59,12.59,0,0,1,438.82,845.59Z"/>
                <polyline class="cls-15" points="-254.49 1633.41 326.49 1052.43 326.49 1019.8 379.97 966.32"/>
                <circle class="cls-8" cx="387.26" cy="959.03" r="12.58"/>
                <polyline class="cls-16" points="701.26 1680.16 1282.24 1099.19 1282.24 1058.55 1315.32 1025.47"/>
                <path class="cls-8" d="M1313.77,1027a12.58,12.58,0,1,0,0-17.79A12.59,12.59,0,0,0,1313.77,1027Z"/>
                <polyline class="cls-17" points="2184.33 167.21 1603.35 748.18 1603.35 788.82 1570.27 821.9"/>
                <path class="cls-8" d="M1571.81,820.35a12.58,12.58,0,1,0,0,17.8A12.58,12.58,0,0,0,1571.81,820.35Z"/>
                <polyline class="cls-18"
                          points="2480.94 212.85 1902.33 791.47 1899.96 793.83 1898.07 827.32 1786.85 938.53"/>
                <path class="cls-8" d="M1786.85,938.53a12.58,12.58,0,1,0,0,17.8A12.58,12.58,0,0,0,1786.85,938.53Z"/>
                <polyline class="cls-19" points="2243.47 421.15 1662.49 1002.13 1631.5 1000.3 1595.64 1036.16"/>
                <path class="cls-8" d="M1596.64,1035.17a12.58,12.58,0,1,0,0,17.79A12.59,12.59,0,0,0,1596.64,1035.17Z"/>
                <polyline class="cls-20" points="1539.12 982.75 1661.5 860.36 1689.62 870.23 1769.29 790.56"/>
                <line class="cls-21" x1="1193.96" y1="1276.33" x2="1652.56" y2="817.74"/>
                <path class="cls-8" d="M1769.29,790.56a12.58,12.58,0,1,0,0-17.79A12.6,12.6,0,0,0,1769.29,790.56Z"/>
                <polyline class="cls-22" points="819.81 1761.62 1400.79 1180.64 1409.98 1150.18 1566.32 993.85"/>
                <path class="cls-8" d="M1565.78,994.39a12.58,12.58,0,1,0,0-17.8A12.58,12.58,0,0,0,1565.78,994.39Z"/>
                <polyline class="cls-23" points="2447.64 14.92 1866.66 595.9 1857.47 626.36 1701.14 782.69"/>
                <path class="cls-8" d="M1701.68,782.16a12.58,12.58,0,1,0,0,17.79A12.58,12.58,0,0,0,1701.68,782.16Z"/>
                <polyline class="cls-24" points="900.28 -413.38 321.66 165.24 319.3 167.6 317.4 201.09 206.19 312.31"/>
                <path class="cls-8" d="M206.19,312.31a12.58,12.58,0,1,0,0,17.79A12.59,12.59,0,0,0,206.19,312.31Z"/>
                <polyline class="cls-25" points="662.81 -205.08 81.83 375.9 50.83 374.07 14.98 409.93"/>
                <path class="cls-8" d="M16,408.94a12.58,12.58,0,1,0,0,17.79A12.59,12.59,0,0,0,16,408.94Z"/>
                <g class="cls-26">
                    <path class="cls-27" d="M1320.53,207.89a5.08,5.08,0,0,1-7.77,6.56,5.08,5.08,0,1,1,7.77-6.56Z"/>
                    <path class="cls-27" d="M1399.19,628.12a5.57,5.57,0,1,1-7.84-.67A5.56,5.56,0,0,1,1399.19,628.12Z"/>
                    <path class="cls-27" d="M1773.92,96.07a4.26,4.26,0,0,1-6-.49,4.21,4.21,0,0,1,.5-5.94"/>
                    <path class="cls-27" d="M1091.35,250.49a4.4,4.4,0,1,1-6.21-.52A4.39,4.39,0,0,1,1091.35,250.49Z"/>
                    <path class="cls-27"
                          d="M1120.15,404.58a4.52,4.52,0,0,1-.53,6.31,4.46,4.46,0,0,1-5.75-6.82A4.5,4.5,0,0,1,1120.15,404.58Z"/>
                    <path class="cls-27" d="M1080.54,106.67a4.93,4.93,0,1,1-6.91-.58A4.91,4.91,0,0,1,1080.54,106.67Z"/>
                    <path class="cls-27" d="M1574.16,855.86a3.47,3.47,0,0,1-5.3,4.48,3.47,3.47,0,0,1,5.3-4.48Z"/>
                    <path class="cls-27" d="M572.91,50.73a5.11,5.11,0,1,1-7.22-.59A5.11,5.11,0,0,1,572.91,50.73Z"/>
                    <path class="cls-27" d="M484.21,487.22a3.49,3.49,0,1,1-4.92-.41A3.49,3.49,0,0,1,484.21,487.22Z"/>
                    <path class="cls-27" d="M518.11,77a3.81,3.81,0,0,1-.45,5.42,3.84,3.84,0,1,1,.45-5.42Z"/>
                    <path class="cls-27"
                          d="M1340,112.74a3.36,3.36,0,0,1-.4,4.78,3.39,3.39,0,1,1-4.38-5.18A3.35,3.35,0,0,1,1340,112.74Z"/>
                    <path class="cls-27" d="M1655.05,246.87a3.55,3.55,0,1,1-5-.41A3.55,3.55,0,0,1,1655.05,246.87Z"/>
                    <path class="cls-27"
                          d="M1395.59,5.27a3.43,3.43,0,1,1-5.23,4.43,3.39,3.39,0,0,1,.39-4.81A3.46,3.46,0,0,1,1395.59,5.27Z"/>
                    <path class="cls-27"
                          d="M1593.59,212.8a4.36,4.36,0,0,1-.54,6.14,4.35,4.35,0,0,1-5.61-6.66A4.41,4.41,0,0,1,1593.59,212.8Z"/>
                    <path class="cls-27" d="M1527.83,92.14a3.59,3.59,0,0,1-5.49,4.64,3.59,3.59,0,0,1,5.49-4.64Z"/>
                    <path class="cls-27" d="M1638.11,249.91a4,4,0,1,1-5.63-.46A4,4,0,0,1,1638.11,249.91Z"/>
                    <path class="cls-27" d="M576.37,74a3.48,3.48,0,1,1-4.89-.41A3.48,3.48,0,0,1,576.37,74Z"/>
                    <path class="cls-27"
                          d="M1718.88,98.65a3.71,3.71,0,0,1-5.66,4.81,3.76,3.76,0,0,1,.42-5.25A3.71,3.71,0,0,1,1718.88,98.65Z"/>
                    <path class="cls-27" d="M507.44,380.16a4.13,4.13,0,1,1-5.82-.46A4.16,4.16,0,0,1,507.44,380.16Z"/>
                    <path class="cls-27" d="M447.42,496.5a3.43,3.43,0,1,1-4.81-.38A3.43,3.43,0,0,1,447.42,496.5Z"/>
                    <path class="cls-27" d="M1114.22,676.74a4.25,4.25,0,0,1-6.5,5.47,4.25,4.25,0,0,1,6.5-5.47Z"/>
                    <path class="cls-27" d="M1465.37,98.58a6,6,0,1,1-8.51-.73A6,6,0,0,1,1465.37,98.58Z"/>
                    <path class="cls-27" d="M1450.73,110.23a5,5,0,1,1-7.08-.6A5,5,0,0,1,1450.73,110.23Z"/>
                    <path class="cls-27" d="M1433.49,109.37a4.16,4.16,0,1,1-5.84-.47A4.12,4.12,0,0,1,1433.49,109.37Z"/>
                    <path class="cls-27"
                          d="M1416.31,113.5a4.2,4.2,0,0,1-.51,5.91,4.14,4.14,0,0,1-5.88-.5,4.19,4.19,0,1,1,6.39-5.41Z"/>
                    <path class="cls-27"
                          d="M756.48,202.33a4.56,4.56,0,0,1-.53,6.45,4.59,4.59,0,1,1-5.93-7A4.56,4.56,0,0,1,756.48,202.33Z"/>
                    <path class="cls-27" d="M760.79,190.71a3.56,3.56,0,1,1-5-.43A3.57,3.57,0,0,1,760.79,190.71Z"/>
                    <path class="cls-27" d="M788.3,206.83a3.19,3.19,0,0,1-.35,4.52,3.24,3.24,0,1,1,.35-4.52Z"/>
                </g>
                <g class="cls-28">
                    <path class="cls-27"
                          d="M1649.46,374.71a5.38,5.38,0,1,0-9.44,5.16,5.34,5.34,0,0,0,7.28,2.15A5.4,5.4,0,0,0,1649.46,374.71Z"/>
                    <path class="cls-27" d="M1621.83,374a5.38,5.38,0,1,0-9.44,5.17,5.38,5.38,0,0,0,9.44-5.17Z"/>
                    <path class="cls-27" d="M1836.38,345.65a4.49,4.49,0,1,0-1.78,6.1A4.48,4.48,0,0,0,1836.38,345.65Z"/>
                    <path class="cls-27" d="M1562.54,414.09a4.64,4.64,0,1,0-1.85,6.29A4.65,4.65,0,0,0,1562.54,414.09Z"/>
                    <path class="cls-27" d="M1675.18,129.54a5.18,5.18,0,1,0-2.07,7A5.19,5.19,0,0,0,1675.18,129.54Z"/>
                    <path class="cls-27" d="M1480.14,109.76a5.59,5.59,0,1,0-2.21,7.61A5.59,5.59,0,0,0,1480.14,109.76Z"/>
                    <path class="cls-27" d="M1319.73,89.4a4.84,4.84,0,1,0-2,6.6A4.87,4.87,0,0,0,1319.73,89.4Z"/>
                    <path class="cls-27" d="M1356.68,94.31a6,6,0,1,0-2.4,8.17A6.06,6.06,0,0,0,1356.68,94.31Z"/>
                    <path class="cls-27" d="M1314.5,71.38a3.38,3.38,0,1,0-5.93,3.23,3.38,3.38,0,0,0,5.93-3.23Z"/>
                    <path class="cls-27" d="M1350.23,78.23a4.1,4.1,0,1,0-1.63,5.57A4.16,4.16,0,0,0,1350.23,78.23Z"/>
                    <path class="cls-27" d="M1509.56,78.8A3.11,3.11,0,1,0,1508.3,83,3.11,3.11,0,0,0,1509.56,78.8Z"/>
                    <path class="cls-27" d="M1873.81,212.91a4.55,4.55,0,1,0-1.81,6.18A4.56,4.56,0,0,0,1873.81,212.91Z"/>
                    <path class="cls-27" d="M1034.83,21.8a4.39,4.39,0,1,0-1.77,5.95A4.39,4.39,0,0,0,1034.83,21.8Z"/>
                    <path class="cls-27" d="M1409.46,95a5.27,5.27,0,0,0-9.26,5,5.27,5.27,0,0,0,9.26-5Z"/>
                    <path class="cls-27" d="M1377.18,89.78a4.44,4.44,0,1,0-1.77,6A4.44,4.44,0,0,0,1377.18,89.78Z"/>
                    <path class="cls-27" d="M1148.77,37.09a4.83,4.83,0,1,0-2,6.55A4.84,4.84,0,0,0,1148.77,37.09Z"/>
                    <path class="cls-27" d="M1538.84,228.37a5.41,5.41,0,1,0-9.49,5.2,5.41,5.41,0,1,0,9.49-5.2Z"/>
                    <path class="cls-27" d="M1752.43,60.61a3.54,3.54,0,1,0-1.42,4.8A3.52,3.52,0,0,0,1752.43,60.61Z"/>
                    <path class="cls-27" d="M1619.72,63.2a5.11,5.11,0,1,0-2,7A5.15,5.15,0,0,0,1619.72,63.2Z"/>
                    <path class="cls-27" d="M1571.72,241.94a5.51,5.51,0,1,0-2.21,7.48A5.52,5.52,0,0,0,1571.72,241.94Z"/>
                    <path class="cls-27" d="M1888.52,135.25a5.23,5.23,0,1,0-2.07,7.1A5.22,5.22,0,0,0,1888.52,135.25Z"/>
                    <path class="cls-27" d="M1331,24.15a3.45,3.45,0,0,0-6.07,3.26,3.45,3.45,0,0,0,6.07-3.26Z"/>
                    <path class="cls-27" d="M1663.83,243.13a5.06,5.06,0,0,0-8.89,4.84,5.06,5.06,0,1,0,8.89-4.84Z"/>
                    <path class="cls-27" d="M1839.14,154.09a4.21,4.21,0,1,0-1.68,5.73A4.22,4.22,0,0,0,1839.14,154.09Z"/>
                    <path class="cls-27" d="M1332.06,37.47a6.05,6.05,0,1,0-2.43,8.2A6,6,0,0,0,1332.06,37.47Z"/>
                    <path class="cls-27" d="M1759,245.26a3.94,3.94,0,1,0-1.56,5.35A3.91,3.91,0,0,0,1759,245.26Z"/>
                    <path class="cls-27" d="M1639.14,123a4.86,4.86,0,1,0-1.94,6.62A4.86,4.86,0,0,0,1639.14,123Z"/>
                    <path class="cls-27" d="M1715.24,155.74a3.65,3.65,0,1,0-1.44,4.94A3.61,3.61,0,0,0,1715.24,155.74Z"/>
                    <path class="cls-27" d="M1791.82,39.51a5.58,5.58,0,1,0-2.24,7.56A5.57,5.57,0,0,0,1791.82,39.51Z"/>
                    <path class="cls-27" d="M1869.39,28.56a4.67,4.67,0,0,0-6.38-1.91,4.71,4.71,0,1,0,6.38,1.91Z"/>
                    <path class="cls-27" d="M1705,330.65a4.28,4.28,0,1,0-1.71,5.81A4.25,4.25,0,0,0,1705,330.65Z"/>
                    <path class="cls-27" d="M1914.57,73.21a3.9,3.9,0,1,0-1.57,5.27A3.86,3.86,0,0,0,1914.57,73.21Z"/>
                    <path class="cls-27" d="M1535.61,82.91a4.68,4.68,0,0,0-6.29-1.85,4.63,4.63,0,1,0,6.29,1.85Z"/>
                    <path class="cls-27" d="M1684,387.53a5.84,5.84,0,1,0-2.35,7.91A5.86,5.86,0,0,0,1684,387.53Z"/>
                    <path class="cls-27" d="M1289.21,298.37a4.11,4.11,0,1,0-1.66,5.56A4.09,4.09,0,0,0,1289.21,298.37Z"/>
                    <path class="cls-27" d="M1258,333a3.52,3.52,0,1,0-1.42,4.74A3.53,3.53,0,0,0,1258,333Z"/>
                </g>
                <g class="cls-26">
                    <path class="cls-27" d="M437.34,1058.41a3.58,3.58,0,1,1,.61-7.14,3.58,3.58,0,0,1-.61,7.14Z"/>
                    <path class="cls-27" d="M606.93,1089.69a5.87,5.87,0,1,1,6.36-5.37A5.89,5.89,0,0,1,606.93,1089.69Z"/>
                    <path class="cls-27" d="M429.43,991.75a3.78,3.78,0,1,1,4.08-3.45A3.78,3.78,0,0,1,429.43,991.75Z"/>
                    <path class="cls-27" d="M447.78,1053.72a4.17,4.17,0,1,1,4.52-3.81A4.16,4.16,0,0,1,447.78,1053.72Z"/>
                    <path class="cls-27" d="M932,852a5.43,5.43,0,0,1-4.94-5.82A5.39,5.39,0,1,1,932,852Z"/>
                    <path class="cls-27" d="M920.17,827a5.38,5.38,0,1,1,.91-10.72,5.38,5.38,0,0,1-.91,10.72Z"/>
                    <path class="cls-27" d="M980.88,1034.75a4.49,4.49,0,1,1,4.85-4.09A4.47,4.47,0,0,1,980.88,1034.75Z"/>
                    <path class="cls-27" d="M933,756.58a4.64,4.64,0,1,1,5-4.23A4.64,4.64,0,0,1,933,756.58Z"/>
                    <path class="cls-27" d="M718.08,974.5a5.18,5.18,0,1,1,5.59-4.73A5.19,5.19,0,0,1,718.08,974.5Z"/>
                    <path class="cls-27" d="M621.26,804a5.59,5.59,0,1,1,6.07-5.1A5.6,5.6,0,0,1,621.26,804Z"/>
                    <path class="cls-27" d="M537.89,665.49a4.84,4.84,0,1,1,5.25-4.43A4.88,4.88,0,0,1,537.89,665.49Z"/>
                    <path class="cls-27" d="M557.29,697.32a6,6,0,1,1,6.51-5.5A6,6,0,0,1,557.29,697.32Z"/>
                    <path class="cls-27"
                          d="M519.28,668a3.42,3.42,0,0,1-3.09-3.64,3.37,3.37,0,0,1,3.66-3.09,3.38,3.38,0,0,1-.57,6.73Z"/>
                    <path class="cls-27" d="M540,697.91a4.1,4.1,0,1,1,4.43-3.74A4.13,4.13,0,0,1,540,697.91Z"/>
                    <path class="cls-27"
                          d="M442.82,821.65a5.89,5.89,0,0,1,1-11.74,6,6,0,0,1,5.42,6.37A5.93,5.93,0,0,1,442.82,821.65Z"/>
                    <path class="cls-27" d="M604.81,843.45a3.11,3.11,0,1,1,3.37-2.85A3.11,3.11,0,0,1,604.81,843.45Z"/>
                    <path class="cls-27" d="M361,432.12a4.39,4.39,0,1,1,4.73-4A4.39,4.39,0,0,1,361,432.12Z"/>
                    <path class="cls-27" d="M579.2,745.34a5.27,5.27,0,0,1,.86-10.5,5.27,5.27,0,0,1-.86,10.5Z"/>
                    <path class="cls-27" d="M561.41,717.9a4.44,4.44,0,1,1,4.81-4A4.48,4.48,0,0,1,561.41,717.9Z"/>
                    <path class="cls-27" d="M421,530.2a4.84,4.84,0,1,1,5.2-4.43A4.84,4.84,0,0,1,421,530.2Z"/>
                    <path class="cls-27" d="M753.48,809.87a5.41,5.41,0,1,1,.92-10.78,5.41,5.41,0,0,1-.92,10.78Z"/>
                    <path class="cls-27" d="M686.21,1073a3.54,3.54,0,1,1,3.81-3.24A3.56,3.56,0,0,1,686.21,1073Z"/>
                    <path class="cls-27" d="M635,950.54a5.07,5.07,0,0,1-4.65-5.5,5.12,5.12,0,1,1,4.65,5.5Z"/>
                    <path class="cls-27" d="M524.22,1033.08a4.2,4.2,0,1,1,4.53-3.84A4.22,4.22,0,0,1,524.22,1033.08Z"/>
                    <path class="cls-27" d="M779.16,834.47a5.51,5.51,0,1,1,6-5A5.51,5.51,0,0,1,779.16,834.47Z"/>
                    <path class="cls-27"
                          d="M178,1075.28a5.66,5.66,0,1,1,.92-11.28,5.69,5.69,0,0,1,5.19,6.13A5.61,5.61,0,0,1,178,1075.28Z"/>
                    <path class="cls-27" d="M482.73,702.14a3.44,3.44,0,1,1,3.7-3.16A3.46,3.46,0,0,1,482.73,702.14Z"/>
                    <path class="cls-27" d="M817.43,918.27a5.06,5.06,0,1,1,5.48-4.62A5,5,0,0,1,817.43,918.27Z"/>
                    <path class="cls-27" d="M495.35,697.74a6.06,6.06,0,1,1,6.53-5.54A6,6,0,0,1,495.35,697.74Z"/>
                    <path class="cls-27" d="M857.8,1004.51a3.94,3.94,0,1,1,4.27-3.6A3.95,3.95,0,0,1,857.8,1004.51Z"/>
                    <path class="cls-27" d="M697.51,944.18a4.86,4.86,0,1,1,5.28-4.45A4.86,4.86,0,0,1,697.51,944.18Z"/>
                    <path class="cls-27" d="M758.23,1000.57a3.64,3.64,0,1,1,3.93-3.31A3.59,3.59,0,0,1,758.23,1000.57Z"/>
                    <path class="cls-27" d="M203.32,453.25a5.1,5.1,0,1,1,5.52-4.68A5.11,5.11,0,0,1,203.32,453.25Z"/>
                    <path class="cls-27" d="M914.14,920.63a4.28,4.28,0,1,1,4.62-3.91A4.24,4.24,0,0,1,914.14,920.63Z"/>
                    <path class="cls-27" d="M421,949.25a5.16,5.16,0,1,1,5.54-4.72A5.19,5.19,0,0,1,421,949.25Z"/>
                    <path class="cls-27"
                          d="M325.33,984.78a3.71,3.71,0,0,1,.61-7.4,3.68,3.68,0,0,1,3.41,4A3.73,3.73,0,0,1,325.33,984.78Z"/>
                    <path class="cls-27" d="M223.47,395.91a3.81,3.81,0,0,1-3.51-4.15,3.84,3.84,0,1,1,3.51,4.15Z"/>
                    <path class="cls-27" d="M619.08,865.63a4.66,4.66,0,0,1-4.22-5,4.63,4.63,0,1,1,4.22,5Z"/>
                    <path class="cls-27" d="M184.41,439.25a3.49,3.49,0,1,1,3.75-3.17A3.48,3.48,0,0,1,184.41,439.25Z"/>
                    <path class="cls-27" d="M380.17,628.16a3.92,3.92,0,1,1,.65-7.81,3.92,3.92,0,0,1-.65,7.81Z"/>
                    <path class="cls-27" d="M264.86,572.43a5.73,5.73,0,1,1,6.2-5.22A5.73,5.73,0,0,1,264.86,572.43Z"/>
                    <path class="cls-27" d="M277.26,538.76a3.35,3.35,0,0,1,.52-6.67,3.35,3.35,0,1,1-.52,6.67Z"/>
                    <path class="cls-27" d="M957.7,878.44A5.83,5.83,0,1,1,964,873.1,5.84,5.84,0,0,1,957.7,878.44Z"/>
                    <path class="cls-27" d="M202.4,1018.61a3.4,3.4,0,0,1-3.11-3.69,3.4,3.4,0,1,1,3.11,3.69Z"/>
                    <path class="cls-27" d="M16.67,174a4.13,4.13,0,0,1,.67-8.24,4.13,4.13,0,0,1-.67,8.24Z"/>
                    <path class="cls-27" d="M200.26,752.85a5.06,5.06,0,0,1-4.58-5.41,5,5,0,1,1,4.58,5.41Z"/>
                    <path class="cls-27" d="M318.18,878.08a3.62,3.62,0,1,1,3.91-3.31A3.63,3.63,0,0,1,318.18,878.08Z"/>
                    <path class="cls-27"
                          d="M144.35,693a3.76,3.76,0,0,1-3.45-4.06,3.77,3.77,0,1,1,7.51.62A3.74,3.74,0,0,1,144.35,693Z"/>
                    <path class="cls-27" d="M318.65,846.92a5.7,5.7,0,0,1-5.22-6.19,5.72,5.72,0,1,1,5.22,6.19Z"/>
                    <path class="cls-27" d="M295.69,811a4,4,0,0,1-3.64-4.32,4,4,0,1,1,3.64,4.32Z"/>
                    <path class="cls-27" d="M208.43,746.57a4.57,4.57,0,1,1,4.92-4.15A4.56,4.56,0,0,1,208.43,746.57Z"/>
                    <path class="cls-27" d="M716.75,553.22a4.1,4.1,0,1,1,4.42-3.76A4.08,4.08,0,0,1,716.75,553.22Z"/>
                    <path class="cls-27" d="M735.8,510.67a3.51,3.51,0,1,1,3.76-3.21A3.48,3.48,0,0,1,735.8,510.67Z"/>
                </g>
                <g class="cls-28">
                    <path class="cls-27" d="M36.56,877.06a5.11,5.11,0,1,0-3.46-6.37A5.13,5.13,0,0,0,36.56,877.06Z"/>
                    <path class="cls-27" d="M400.1,619.73a3.5,3.5,0,1,0-2.35-4.35A3.5,3.5,0,0,0,400.1,619.73Z"/>
                    <path class="cls-27" d="M38.5,816.31a3.83,3.83,0,0,0,4.78-2.6,3.84,3.84,0,1,0-4.78,2.6Z"/>
                    <path class="cls-27" d="M59.25,870.84a3.48,3.48,0,0,0,4.32-2.38,3.47,3.47,0,1,0-4.32,2.38Z"/>
                    <path class="cls-27" d="M311.53,684.18a4.13,4.13,0,1,0-2.77-5.14A4.14,4.14,0,0,0,311.53,684.18Z"/>
                    <path class="cls-27"
                          d="M393.75,582.31a3.43,3.43,0,1,0,1.95-6.58,3.45,3.45,0,0,0-4.24,2.33A3.41,3.41,0,0,0,393.75,582.31Z"/>
                    <path class="cls-27"
                          d="M249.35,983.81a4.56,4.56,0,0,0,5.7-3.08,4.6,4.6,0,1,0-8.82-2.59A4.56,4.56,0,0,0,249.35,983.81Z"/>
                    <path class="cls-27" d="M240.46,992.45a3.55,3.55,0,1,0-2.41-4.42A3.58,3.58,0,0,0,240.46,992.45Z"/>
                    <path class="cls-27" d="M278.64,1051.65a6,6,0,1,0-4-7.45A6,6,0,0,0,278.64,1051.65Z"/>
                    <path class="cls-27" d="M266.32,1011.12a3.19,3.19,0,0,0,4-2.15,3.24,3.24,0,1,0-4,2.15Z"/>
                </g>
            </g>
        </g>
    </g>
</svg>