<svg xmlns="http://www.w3.org/2000/svg" xmlns:xlink="http://www.w3.org/1999/xlink" viewBox="0 0 750 500">
    <defs>
        <style>
            .cls-1,.cls-7,.cls-9{fill:none;}.cls-2{clip-path:url(#clip-path);}.cls-3{fill:#7379f9;}.cls-4{fill:#08f3fc;}.cls-5{fill:#9b50f9;}.cls-6{fill:#31346b;}.cls-7{stroke:#e605f9;}.cls-7,.cls-9{stroke-linecap:round;stroke-miterlimit:10;stroke-width:3px;}.cls-8{fill:#e605f9;}.cls-9{stroke:#7379f9;}
        </style>
        <clipPath id="clip-path">
            <rect class="cls-1" width="750" height="500"/>
        </clipPath>
    </defs>
    <g id="Layer_3">
        <g class="cls-2">
            <path class="cls-3"
                  d="M232.16,43.57a37.32,37.32,0,1,0,37.31,37.31A37.36,37.36,0,0,0,232.16,43.57Zm0,67.27a30,30,0,1,1,30-30A30,30,0,0,1,232.16,110.84Z"/>
            <circle class="cls-4" cx="692.96" cy="294.53" r="17.56" transform="translate(-59.96 287.6) rotate(-22.5)"/>
            <path class="cls-5"
                  d="M585.05,409.49h0a4.51,4.51,0,0,1,6.38,0L605,423.05a4.5,4.5,0,0,1,0,6.37h0a4.5,4.5,0,0,1-6.37,0l-13.57-13.56A4.52,4.52,0,0,1,585.05,409.49Z"/>
            <path class="cls-5"
                  d="M605,409.49h0a4.5,4.5,0,0,1,0,6.37l-13.56,13.56a4.51,4.51,0,0,1-6.38,0h0a4.52,4.52,0,0,1,0-6.37l13.57-13.56A4.5,4.5,0,0,1,605,409.49Z"/>
            <path class="cls-5"
                  d="M207,194.19h0a2.93,2.93,0,0,1,4.14,0L220,203a2.93,2.93,0,0,1,0,4.15h0a2.93,2.93,0,0,1-4.14,0L207,198.33A2.92,2.92,0,0,1,207,194.19Z"/>
            <path class="cls-5"
                  d="M220,194.19h0a2.92,2.92,0,0,1,0,4.14l-8.82,8.83a2.93,2.93,0,0,1-4.14,0h0a2.93,2.93,0,0,1,0-4.15l8.82-8.82A2.93,2.93,0,0,1,220,194.19Z"/>
            <circle class="cls-4" cx="400.35" cy="112.05" r="19.08"/>
            <circle class="cls-5" cx="55.16" cy="103.93" r="10.59"/>
            <circle class="cls-5" cx="495.12" cy="165.64" r="3.16"/>
            <circle class="cls-5" cx="495.12" cy="182.13" r="3.16"/>
            <circle class="cls-5" cx="511.18" cy="165.64" r="3.16"/>
            <circle class="cls-5" cx="511.18" cy="182.13" r="3.16"/>
            <circle class="cls-5" cx="45.68" cy="135.87" r="3.16"/>
            <circle class="cls-5" cx="45.68" cy="152.36" r="3.16"/>
            <circle class="cls-5" cx="61.74" cy="135.87" r="3.16"/>
            <circle class="cls-5" cx="61.74" cy="152.36" r="3.16"/>
            <circle class="cls-5" cx="13.17" cy="135.87" r="3.16"/>
            <circle class="cls-5" cx="13.17" cy="152.36" r="3.16"/>
            <circle class="cls-5" cx="29.23" cy="135.87" r="3.16"/>
            <circle class="cls-5" cx="29.23" cy="152.36" r="3.16"/>
            <circle class="cls-5" cx="656.36" cy="411.07" r="3.16"/>
            <path class="cls-5" d="M659.52,427.56a3.16,3.16,0,1,1-3.16-3.16A3.15,3.15,0,0,1,659.52,427.56Z"/>
            <circle class="cls-5" cx="672.42" cy="411.07" r="3.16"/>
            <path class="cls-5" d="M675.58,427.56a3.16,3.16,0,1,1-3.16-3.16A3.16,3.16,0,0,1,675.58,427.56Z"/>
            <circle class="cls-5" cx="623.86" cy="411.07" r="3.16"/>
            <path class="cls-5" d="M627,427.56a3.16,3.16,0,1,1-3.15-3.16A3.15,3.15,0,0,1,627,427.56Z"/>
            <circle class="cls-5" cx="639.92" cy="411.07" r="3.16"/>
            <path class="cls-5" d="M643.07,427.56a3.16,3.16,0,1,1-3.15-3.16A3.15,3.15,0,0,1,643.07,427.56Z"/>
            <circle class="cls-5" cx="721.31" cy="411.07" r="3.16"/>
            <path class="cls-5" d="M724.47,427.56a3.16,3.16,0,1,1-3.16-3.16A3.15,3.15,0,0,1,724.47,427.56Z"/>
            <path class="cls-5" d="M740.53,411.07a3.16,3.16,0,1,1-3.16-3.16A3.16,3.16,0,0,1,740.53,411.07Z"/>
            <path class="cls-5" d="M740.53,427.56a3.16,3.16,0,1,1-3.16-3.16A3.15,3.15,0,0,1,740.53,427.56Z"/>
            <circle class="cls-5" cx="688.81" cy="411.07" r="3.16"/>
            <path class="cls-5" d="M692,427.56a3.16,3.16,0,1,1-3.15-3.16A3.15,3.15,0,0,1,692,427.56Z"/>
            <circle class="cls-5" cx="704.87" cy="411.07" r="3.16"/>
            <path class="cls-5" d="M708,427.56a3.16,3.16,0,1,1-3.15-3.16A3.15,3.15,0,0,1,708,427.56Z"/>
            <circle class="cls-6" cx="232.48" cy="404.42" r="7.79"/>
            <circle class="cls-4" cx="652.43" cy="184.37" r="7.79"/>
            <line class="cls-7" x1="645.9" y1="135.63" x2="773.08" y2="8.44"/>
            <line class="cls-7" x1="418.63" y1="57.63" x2="485.22" y2="-8.97"/>
            <line class="cls-7" x1="-13.47" y1="417.04" x2="115.78" y2="287.78"/>
            <line class="cls-7" x1="127.06" y1="575.45" x2="242.91" y2="459.6"/>
            <line class="cls-7" x1="-76.95" y1="443.91" x2="38.9" y2="328.06"/>
            <circle class="cls-5" cx="163.6" cy="200.22" r="15.75"/>
            <circle class="cls-5" cx="456.09" cy="120.19" r="8.32"/>
            <circle class="cls-8" cx="720.77" cy="125.21" r="8.32"/>
            <circle class="cls-5" cx="73.73" cy="392.07" r="20.45"/>
            <path class="cls-4"
                  d="M482.42,430.29a70,70,0,1,0,69.95,69.95A70,70,0,0,0,482.42,430.29Zm0,126.12a56.17,56.17,0,1,1,56.17-56.17A56.18,56.18,0,0,1,482.42,556.41Z"/>
            <path class="cls-3"
                  d="M30.4,507.35c1.41-.47,54.86-54.51,75.31-75.21a11.1,11.1,0,0,1,15.75,0h0a11.09,11.09,0,0,1,0,15.7l-16.8,16.8a5.56,5.56,0,0,0,0,7.88h0a5.55,5.55,0,0,0,7.87,0l7-7a12.16,12.16,0,0,1,17.21,0h0a12.17,12.17,0,0,1,0,17.21h0a5.17,5.17,0,0,0,0,7.3l19.7,19.69H28.65"/>
            <path class="cls-3"
                  d="M630.91-9.2,570,51.69a14.46,14.46,0,0,0,0,20.47h0a14.47,14.47,0,0,0,20.46,0L623,39.61a5,5,0,0,1,7,0h0a5,5,0,0,1,0,7L619,57.73a7.82,7.82,0,0,0,0,11.07h0a7.82,7.82,0,0,0,11.07,0L659.91,39a21.14,21.14,0,0,1,29.9,0l.82.82,58-58S630.91-9.87,630.91-9.2Z"/>
            <line class="cls-9" x1="299.24" y1="515.6" x2="443.92" y2="370.92"/>
            <line class="cls-9" x1="-92.09" y1="594.09" x2="52.58" y2="449.41"/>
            <line class="cls-9" x1="465.01" y1="-40.44" x2="347.83" y2="76.74"/>
            <line class="cls-9" x1="222.5" y1="92.52" x2="193.11" y2="121.91"/>
            <line class="cls-9" x1="390.71" y1="456.23" x2="418.92" y2="428.02"/>
            <path class="cls-3"
                  d="M695.23,44.24l-4.6-4.46s54.07-54,55.22-55.21,30.7,2.07,30.7,2.07L721.81,43.76A18.74,18.74,0,0,1,695.23,44.24Z"/>
        </g>
    </g>
</svg>