<svg id="fa608d3b-d68f-4a0c-9cc8-681a134a9988" data-name="Layer 1" xmlns="http://www.w3.org/2000/svg" viewBox="0 0 321.27855 598.92026"><defs><style>.a6c25493-782a-484d-bc62-9c66b28397a0{fill:#e22022;stroke:#e22022;}.a6c25493-782a-484d-bc62-9c66b28397a0,.e817f27a-07d5-47fb-9a8c-bd424196b496{stroke-miterlimit:10;stroke-width:0.09375px;}.e817f27a-07d5-47fb-9a8c-bd424196b496{fill:#0b6fb7;stroke:#0b6fb7;}</style></defs><path class="a6c25493-782a-484d-bc62-9c66b28397a0" d="M214.5762,22.53421c9.39842,10.7001,12.5,26,9.7988,39.8002-2.90038,15.5-11.5,29.1998-21.5996,41a199.6216,199.6216,0,0,1-27.0996,25.69979c-11.3003,9.1-22.4004,18.9003-29.5005,31.7001a41.38672,41.38672,0,0,0-3.2998,34.5c6.6997,19.3999,22.2998,33.7999,30.7998,52.1001-9.3999-8.3002-18.6001-16.8999-27.2002-26-9-9.6001-17.5-19.8002-23.0996-31.8002-3.8003-8.4-5.5-18.1998-2.6001-27.0997,2.8999-9.1001,9.3999-16.4003,15.8999-23.2002,18.1001-18.1001,40.4009-31.39989,58.1001-49.79979,9.8008-10.1001,17.9004-22.2002,20.69922-36.1001,2.30078-10.2002,1.20118-20.7002-.89842-30.8002Z" transform="translate(-12.60146 -22.36975)"/><path class="a6c25493-782a-484d-bc62-9c66b28397a0" d="M199.7754,136.4345c19.4004-14.3003,42.0996-23.40029,65.0996-30-18.1992,11.5997-37.1992,22.19969-52.90038,37.09969-5.69922,5.5-11.09962,11.8002-13.59962,19.5-1.90038,5.7001-1.0996,12,1.2012,17.4003,4.1992,9.5997,11.2988,17.3999,16.6992,26.1997a27.73468,27.73468,0,0,1,1.9004,25.2002c-5.3008,11.8999-15.70118,20.6001-26.5,27.5-1.4004.7998-2.5996,2.2998-4.3008,2.5,7.2012-6.5,12.8008-15.7002,12.59962-25.6001-.19922-7.3999-4.29882-13.8999-9.09962-19.2001-9.90038-11.7999-18.1997-26.7999-16.4995-42.6998,1.7007-15.8999,13.09912-28.7002,25.3999-37.8999Z" transform="translate(-12.60146 -22.36975)"/><path class="e817f27a-07d5-47fb-9a8c-bd424196b496" d="M268.5762,252.0342c4.1992-5.0997,10.89842-6.4,17-7.1998,10.5996-1.3999,21.89842,1.2998,29.89842,8.6001a27.159,27.159,0,0,1,8.9004,24c-1.5,10.2998-8.4004,18.8999-16.19922,25.3999-14.0996,11.2998-31.5,17.8999-48.9004,22.3008a15.7301,15.7301,0,0,1,3.4004-2.9004c13.1992-7.1006,26.29882-15.4004,36-27.0005,5.9004-7.2001,10.5-16.6001,8.5996-26.1001-2-11-12.6992-19-23.5996-19.6-5.20118-.5-10.0996,1.5-15.0996,2.5Z" transform="translate(-12.60146 -22.36975)"/><path class="e817f27a-07d5-47fb-9a8c-bd424196b496" d="M67.5752,261.1342c18.3999-7.8999,38.3999-13,58.5-12.6997-11.6997,3.3999-23.6997,6.2998-34.6997,11.5-2.6001,1.3999-5.6001,2.6997-7.1001,5.3999-.8003,2.1001,1.3999,3.5,3,4.1998,6.7998,2.8002,14.2998,3.2001,21.6001,3.9003,25.5996,1.6997,51.2998.6997,76.8003-.9003,25.1992-1.5997,50.1992-5,75.0996-9a138.59005,138.59005,0,0,0-16.1992,8.5c-2.60158,1.8002-5.8008,2.3002-8.7012,3-30.5996,6.8002-61.9995,8.9003-93.1997,9.4003-12.1001.0997-24.1001-.1001-36.1001-.9003-13.3999-.9-26.8999-1.9-40-5.4-3.7998-1.1-7.7998-2.2998-10.7998-5a3.50072,3.50072,0,0,1-.2002-5c3.3003-3.3999,7.8999-5,12-7Z" transform="translate(-12.60146 -22.36975)"/><path class="e817f27a-07d5-47fb-9a8c-bd424196b496" d="M91.1753,303.8344c5.2002-4.1001,11.3999-6.3999,17.6001-8.6001-2,2.3999-4.8003,4.7002-5,8-.1001,2.1001,1.6001,3.7002,3.2998,4.7002,3.3003,1.6997,7,2.2998,10.7002,2.7998,19.1997,2,38.6001,3.1001,58,1.7999,17.69922-.9,35.3008-3.7999,52.8008-6.9,4.7988,4.5,10.5,7.6001,16.5,10.3003a316.05461,316.05461,0,0,1-64.60158,11.4996c-20.59912,1.4003-41.49952,1.3007-61.99952-2-8.0996-1.5-16.3999-3.1993-23.7998-6.9996-3-1.6001-6.3999-3.7002-7.2998-7.2002-.6001-3,1.5996-5.7001,3.7998-7.3999Z" transform="translate(-12.60146 -22.36975)"/><path class="e817f27a-07d5-47fb-9a8c-bd424196b496" d="M102.7754,347.4341c4.6001-3.6993,10.2998-5.5997,15.8999-7.1993-1.7998,1.6993-5,3.7989-3.6001,6.6993,2.7002,3.5,7.7002,3.9003,11.7002,4.8007,16.8999,2.0996,34,3.5,50.9004,2.1993,12.79882-.7989,25.4004-3.0997,37.9004-5.2989a186.14625,186.14625,0,0,0,22.39842,11c-11.79882,5.2989-24.5,8.6992-37.19922,11.0996a197.041,197.041,0,0,1-65,.9004c-9.5-1.7011-19.2002-3.9004-27.8003-8.6015-3.2998-1.8985-6.7998-4.0996-8.1997-7.7989-1.1001-2.9004.6997-6,3-7.8007Z" transform="translate(-12.60146 -22.36975)"/><path class="e817f27a-07d5-47fb-9a8c-bd424196b496" d="M47.2754,375.7348c9.1997-3.0996,18.6997-5.5996,28.3999-5.9004,3.8999-.0996,7.8999.0997,11.2998,2.0997a85.6121,85.6121,0,0,0-33.5996,8.9003c-2.3003,1.3008-4.9004,2.8008-5.8003,5.5,0,3.0997,3.5,4.0997,5.8003,5.0997,14.5,5.4003,30,7.0996,45.1997,8.7011,45.3003,3.7989,90.89942,2.7989,136.2002-1.3008,17.0996-1.9003,34.3008-3.8007,50.9004-8.5,5.29882-1.8007,11.29882-3.5996,14.79882-8.3007,2.10158-2.7989.70118-6.2989-1.39842-8.6993,3.39842,1.9004,8.1992,4.3008,7.5,8.9004-1.3008,4.7989-6.2012,7.2989-10.2012,9.5996-12.7988,6.5-26.90038,9.8008-40.90038,12.6993-40.69922,8-82.39942,9.8007-123.79932,8.6015a694.49172,694.49172,0,0,1-93.2002-9.4004c-5.5-1.3007-11.6997-2.4004-15.6997-6.7011-2.6001-3-.3003-7.1993,2.1997-9.3985,6.3003-5.8008,14.4004-9,22.3003-11.9004Z" transform="translate(-12.60146 -22.36975)"/><path class="e817f27a-07d5-47fb-9a8c-bd424196b496" d="M296.47462,409.9341c10.10158-3.5,20.9004-7.1993,28.4004-15.1993-1.2988,8.6993-8.7988,14.6993-16.19922,18.5996-14.20118,7.4004-30.0996,10.8008-45.9004,13.5997-33.4004,5.3007-67.30078,6.5996-101.2002,6-23.1001-.6993-46.3999-1.5997-69.1001-6.4004-5.3999-1.5-11.1997-2.5-15.8999-5.6993,20.2002,3.4004,40.7002,4.8008,61.2002,5.5997a655.57567,655.57567,0,0,0,101-4.5c19.4004-2.6993,38.9004-6,57.69922-12Z" transform="translate(-12.60146 -22.36975)"/><path class="a6c25493-782a-484d-bc62-9c66b28397a0" d="M32.9751,558.23479c.1001-32.8007-.0996-65.59959.1001-98.5,6.8003.1993,13.6001,0,20.3999.1993-.0996,36.7011,0,73.5-.0996,110.30069-.2002,10.2989-.4004,21.0996-5.4004,30.2989-5.5,9.8007-15.2998,16.7011-25.6997,20.7011-3.3003-3.5996-6.3003-7.4004-9.6001-11h0c8.3999-4.9004,16.7998-11.9004,18.7998-22,1.9004-9.9004,1.3003-20,1.5-30Z" transform="translate(-12.60146 -22.36975)"/><path class="a6c25493-782a-484d-bc62-9c66b28397a0" d="M72.3755,499.2348c13.5-5.8007,28.5-8.8007,43.1997-7.2011,7.6001.9004,15.5,3.7011,20.3999,9.8007,4.1001,5.1993,5.6001,11.9004,5.5,18.40039v67.0996H126.3755c-.5-3.3007-1-6.6992-1.4004-10.0996-5.6997,4.5-11.7998,8.7989-18.8999,10.5996a40.78927,40.78927,0,0,1-24.8999-1.1992,21.85938,21.85938,0,0,1-12.6001-14.4004c-2.5-9.3007-1.1997-20.2011,5.3999-27.7011,5.9004-6.8985,14.8003-10.2989,23.6001-11.8985,8.1001-1.6015,16.3999-1.6015,24.7002-1.6015-.2002-6.2989,1-13.1993-2.6001-18.79889-2.8999-4.3007-8.2002-6-13.1001-6.3007-10.6997-.9004-21.2998,1.8007-31.3999,5.3007-1-4-1.8999-8-2.7998-12m24.7998,46.40039c-4.3999,1.3985-8.5,4.5996-9.7002,9.1992-1.3999,5.0997-1,11.0997,2.3003,15.4004,3.1997,4.1993,9,5.1993,14,4.5996,7-.8007,13.1001-4.8007,18.5-9.0996,0-7.5-.1001-14.9004,0-22.4004-8.3999,0-17-.5-25.1001,2.3008Z" transform="translate(-12.60146 -22.36975)"/><path class="a6c25493-782a-484d-bc62-9c66b28397a0" d="M248.1758,499.2348c13.5996-5.8007,28.5996-8.9004,43.4004-7.2011,7.39842.9004,15,3.6015,19.89842,9.4004,4.6016,5.5,6,12.8007,5.9004,19.80069-.0996,22.0996.0996,44.0996-.1992,66.1993-5-.1993-10,.0996-15-.1993-.5-3.4004-.9004-6.7011-1.5-10-7,6-15.4004,10.9004-24.9004,11.6993-8.6992.8007-18.5-.2989-25.30078-6.5-7.09962-6.5997-8.29882-17.2989-6.5-26.4004,1.70118-8.3985,8-15.2989,15.60158-19,11.89842-5.7989,25.5-6.0996,38.5-6-.2012-6.0996.89842-12.5996-2.2012-18.09959-2.40038-4.4004-7.5-6.4004-12.2988-6.9004-11.10158-1.1993-22.2012,1.6015-32.60158,5.2011-.89842-4-1.89842-8-2.79882-12m24.5,46.5c-4.20118,1.4004-8.0996,4.5996-9.4004,9-1.4004,5.0996-1,11.0996,2.19922,15.5,3.30078,4.2989,9.20118,5.1993,14.30078,4.5996,6.9004-1,13.19922-4.8007,18.4004-9.4003-.20118-7.2989-.0996-14.6993-.0996-22.0997-8.5,0-17.2012-.5-25.4004,2.4004Z" transform="translate(-12.60146 -22.36975)"/><path class="a6c25493-782a-484d-bc62-9c66b28397a0" d="M152.8755,493.2348h21c4.09912,13.1993,8.09912,26.29889,12.2007,39.5,2.39842,8.0996,5.39842,16.0996,7.0996,24.4004.9004,3.6992,1.6992,7.5,2.79882,11.0996,8.60158-24.3007,15.20118-49.4004,18.60158-75h20.39842c-5.89842,32.40039-15.19922,64.29889-29.19922,94.09959h-24q-14.40015-47.10045-28.8999-94.09959Z" transform="translate(-12.60146 -22.36975)"/><path class="a6c25493-782a-484d-bc62-9c66b28397a0" d="M321.36532,491.4175h-2.458v-.8877h5.9843v.8877h-2.4707v7.1962h-1.0556Z" transform="translate(-12.60146 -22.36975)"/><path class="a6c25493-782a-484d-bc62-9c66b28397a0" d="M332.60652,495.0639c-.0596-1.1279-.1319-2.4951-.1319-3.4902h-.0244c-.2871.9355-.6113,1.9551-1.0185,3.0703l-1.4278,3.9219h-.791l-1.3193-3.8496c-.3838-1.1514-.6963-2.1836-.9238-3.1426h-.0244c-.0235,1.0078-.084,2.3506-.1553,3.5742l-.2158,3.4658h-.9961l.5644-8.0839h1.3311l1.3789,3.9101c.3359.9951.5996,1.8828.8154,2.72268h.0244c.2158-.81548.5039-1.70318.8633-2.72268l1.4395-3.9101h1.331l.5039,8.0839h-1.0312Z" transform="translate(-12.60146 -22.36975)"/></svg>